<svg xmlns="http://www.w3.org/2000/svg" xmlns:xlink="http://www.w3.org/1999/xlink" width="294" height="165.32" viewBox="0 0 294 165.32">
  <defs>
    <clipPath id="clip-path">
      <rect id="Imagen_36" data-name="Imagen 36" width="294" height="165.32" rx="19" transform="translate(391 5198.728)" fill="#5038a1"/>
    </clipPath>
  </defs>
  <g id="Grupo_161412" data-name="Grupo 161412" transform="translate(-286.828 -6779)">
    <g id="Grupo_80543" data-name="Grupo 80543" transform="translate(-104.172 1580.271)">
      <rect id="Imagen_3" data-name="Imagen 3" width="294" height="165.32" rx="19" transform="translate(391 5198.728)" fill="#5038a1"/>
    </g>
    <g id="Grupo_161376" data-name="Grupo 161376" transform="translate(376.377 6802)">
      <g id="Grupo_138301" data-name="Grupo 138301" transform="translate(0 0)">
        <g id="Grupo_89571" data-name="Grupo 89571">
          <g id="Trazado_137458" data-name="Trazado 137458" transform="translate(0 0)" fill="#fff">
            <path d="M 59.22535705566406 113.45068359375 C 51.90277862548828 113.45068359375 44.80189895629883 112.0176620483398 38.11993789672852 109.1914443969727 C 34.90793609619141 107.8328857421875 31.80957794189453 106.1511077880859 28.91093635559082 104.1928024291992 C 26.03853797912598 102.2522659301758 23.3372974395752 100.0235061645508 20.88223648071289 97.56844329833984 C 18.42717742919922 95.1134033203125 16.19843673706055 92.41216278076172 14.25787734985352 89.53976440429688 C 12.29957675933838 86.64112854003906 10.61779689788818 83.54276275634766 9.259237289428711 80.33076477050781 C 6.433017253875732 73.6488037109375 4.999997138977051 66.54792785644531 4.999997138977051 59.22534561157227 C 4.999997138977051 51.90276718139648 6.433017253875732 44.80188751220703 9.259237289428711 38.11992645263672 C 10.61779689788818 34.90792465209961 12.29957675933838 31.80956649780273 14.25787734985352 28.91092491149902 C 16.19843673706055 26.03852653503418 18.42717742919922 23.3372859954834 20.88223648071289 20.88224601745605 C 23.3372974395752 18.42718505859375 26.03853797912598 16.19842529296875 28.91093635559082 14.25788593292236 C 31.80957794189453 12.29958534240723 34.90793609619141 10.61780548095703 38.11993789672852 9.259245872497559 C 44.80189895629883 6.43302583694458 51.90277862548828 5.000005722045898 59.22535705566406 5.000005722045898 C 66.54793548583984 5.000005722045898 73.64881896972656 6.43302583694458 80.33078002929688 9.259245872497559 C 83.54277801513672 10.61780548095703 86.64113616943359 12.29958534240723 89.53977966308594 14.25788593292236 C 92.41217803955078 16.19842529296875 95.11341857910156 18.42718505859375 97.56847381591797 20.88224601745605 C 100.0235366821289 23.3372859954834 102.2522735595703 26.03852653503418 104.1928405761719 28.91092491149902 C 106.1511383056641 31.80956649780273 107.8329162597656 34.90792465209961 109.1914749145508 38.11992645263672 C 112.0177001953125 44.80188751220703 113.4507141113281 51.90276718139648 113.4507141113281 59.22534561157227 C 113.4507141113281 66.54792785644531 112.0177001953125 73.6488037109375 109.1914749145508 80.33076477050781 C 107.8329162597656 83.54276275634766 106.1511383056641 86.64112854003906 104.1928405761719 89.53976440429688 C 102.2522735595703 92.41216278076172 100.0235366821289 95.1134033203125 97.56847381591797 97.56844329833984 C 95.11341857910156 100.0235061645508 92.41217803955078 102.2522659301758 89.53977966308594 104.1928024291992 C 86.64113616943359 106.1511077880859 83.54277801513672 107.8328857421875 80.33078002929688 109.1914443969727 C 73.64881896972656 112.0176620483398 66.54793548583984 113.45068359375 59.22535705566406 113.45068359375 Z" stroke="none"/>
            <path d="M 59.22535705566406 9.999992370605469 C 32.08240509033203 9.999992370605469 10.00000762939453 32.0823974609375 10.00000762939453 59.22534561157227 C 10.00000762939453 86.36829376220703 32.08240509033203 108.4506988525391 59.22535705566406 108.4506988525391 C 86.36830139160156 108.4506988525391 108.4507064819336 86.36829376220703 108.4507064819336 59.22534561157227 C 108.4507064819336 32.0823974609375 86.36830139160156 9.999992370605469 59.22535705566406 9.999992370605469 M 59.22535705566406 -7.62939453125e-06 C 91.93463134765625 -7.62939453125e-06 118.4507064819336 26.51609802246094 118.4507064819336 59.22534561157227 C 118.4507064819336 91.93459320068359 91.93463134765625 118.4506988525391 59.22535705566406 118.4506988525391 C 26.51610565185547 118.4506988525391 7.62939453125e-06 91.93459320068359 7.62939453125e-06 59.22534561157227 C 7.62939453125e-06 26.51609802246094 26.51610565185547 -7.62939453125e-06 59.22535705566406 -7.62939453125e-06 Z" stroke="none" fill="#8c6df2"/>
          </g>
        </g>
      </g>
      <g id="Grupo_161283" data-name="Grupo 161283" transform="translate(26.17 26.168)">
        <path id="Trazado_231862" data-name="Trazado 231862" d="M2848,537.732q5.027-5.024,10.052-10.049a11.948,11.948,0,0,1,6.647-3.447,1.02,1.02,0,0,1,.974.285,22.313,22.313,0,0,0,15.993,6.087,21.134,21.134,0,0,0,8.854-2.079,1.02,1.02,0,0,1,1.348.234,4.473,4.473,0,0,1,1.1,4.866,4.4,4.4,0,0,1-4.056,2.8c-4.07.017-8.141.006-12.211.007h-.745v3.878h.7c3.963,0,7.926.012,11.889,0a8.265,8.265,0,0,0,7.95-5.057,5.545,5.545,0,0,1,1.011-1.478q4.448-4.507,8.948-8.962a4.479,4.479,0,0,1,6.427-.15,4.426,4.426,0,0,1-.112,6.368c-2.45,2.484-4.92,4.948-7.381,7.422-2.6,2.611-5.209,5.208-7.786,7.839a13.54,13.54,0,0,1-10.237,4.264c-3.166-.037-6.333,0-9.5-.008a16.7,16.7,0,0,0-11.854,4.595,2.365,2.365,0,0,1-.2.169.719.719,0,0,1-.161.057c-.154-.146-.326-.3-.49-.466q-8.293-8.291-16.588-16.582a6.37,6.37,0,0,0-.585-.464Z" transform="translate(-2848 -489.258)" fill="#8c6df2"/>
        <path id="Trazado_231863" data-name="Trazado 231863" d="M2951.477,325.786c1.382.3,2.8.494,4.142.908a18.726,18.726,0,1,1-10.4-.294c1.031-.276,2.1-.413,3.153-.614Zm-6.242,28.028,2.757.268v2.042h3.872c0-.617.017-1.2-.007-1.772a.57.57,0,0,1,.389-.63,5.807,5.807,0,0,0-2.272-11.131,1.958,1.958,0,0,1-1.977-2.145,1.906,1.906,0,0,1,2.334-1.648l3.842.531.542-3.823-2.866-.427v-2.135h-3.868v2.23l-.5.228a5.809,5.809,0,0,0,2.459,11.074,1.925,1.925,0,0,1,.41,3.8,4,4,0,0,1-1.088,0c-1.217-.093-2.432-.2-3.7-.31C2945.457,351.265,2945.35,352.5,2945.235,353.814Z" transform="translate(-2916.834 -325.786)" fill="#8c6df2"/>
      </g>
    </g>
  </g>
</svg>
