<svg xmlns="http://www.w3.org/2000/svg" width="92.007" height="91.884" viewBox="0 0 92.007 91.884">
  <path id="Trazado_231864" data-name="Trazado 231864" d="M-112.866-586.927a27.537,27.537,0,0,0-.369-3.913,45.73,45.73,0,0,0-6.864-16.733,45.641,45.641,0,0,0-13.935-13.621c-6.741-4.218-13.976-6.836-22.033-6.68,0,.02.011.041.016.062h-5.459c0-.019.01-.038.014-.057a37.043,37.043,0,0,0-6.662.473,40.923,40.923,0,0,0-7.056,2.018,46.576,46.576,0,0,0-18.38,12.745,45.187,45.187,0,0,0-8.748,14.7,31.952,31.952,0,0,0-2.083,8.385c-.133,1.612-.13,3.229-.3,4.838v5.384c.164.213.083.461.086.692a34.2,34.2,0,0,0,1.184,9.143,46.314,46.314,0,0,0,10.125,18.374A46.219,46.219,0,0,0-178.391-540a39.745,39.745,0,0,0,12.137,3.673,78.81,78.81,0,0,0,10.564.291,38.427,38.427,0,0,0,11.754-2.042,47.2,47.2,0,0,0,10.909-5.376,47.94,47.94,0,0,0,9.077-7.963,44.554,44.554,0,0,0,7.494-11.64,38.338,38.338,0,0,0,3.357-11.214A76.331,76.331,0,0,0-112.866-586.927Zm-22.044-10.406q-9.808,14.089-19.572,28.209-3.728,5.379-7.457,10.757c-.164.237-.278.525-.594.668-.168-.114-.346-.222-.509-.349q-10.256-7.989-20.517-15.973c-.48-.372-.557-.621-.154-1.124q2.633-3.29,5.182-6.646c.411-.544.66-.558,1.182-.147,3.944,3.107,7.923,6.17,11.863,9.282.635.5.926.491,1.409-.209q10.379-15.057,20.8-30.086c.479-.695.771-.816,1.494-.288,2.17,1.587,4.392,3.105,6.627,4.6C-134.545-598.229-134.482-597.948-134.91-597.334Z" transform="translate(204.723 627.88)" fill="#5038a1"/>
</svg>
