<svg xmlns="http://www.w3.org/2000/svg" width="94.855" height="89.386" viewBox="0 0 94.855 89.386">
  <g id="Grupo_161285" data-name="Grupo 161285" transform="translate(-1117.477 808.473)">
    <path id="Trazado_231874" data-name="Trazado 231874" d="M1212.332-754.881c-.245.844-.455,1.7-.74,2.529a12.8,12.8,0,0,1-11.4,8.612c-1.509.076-3.025.049-4.538.029a2.847,2.847,0,0,1-2.946-3.086q-.013-8.058,0-16.117c0-4.168.024-8.337-.017-12.5a27.8,27.8,0,0,0-23.077-26.714,27.769,27.769,0,0,0-31.64,20.475,28.373,28.373,0,0,0-.875,7.328q.022,13.57.005,27.139c0,2.263-.693,3.227-2.934,3.489-7.115.831-13.227-1.748-15.851-8.356a12.124,12.124,0,0,1-.84-4.519c0-2.594,0-5.187,0-7.781a12.926,12.926,0,0,1,13-13.08c.606-.009.836-.136.9-.79a32.638,32.638,0,0,1,9.762-20.424,33.724,33.724,0,0,1,56.247,14.806,25.214,25.214,0,0,1,1.038,5.625c.041.786.435.77,1.008.778a12.961,12.961,0,0,1,12.445,9.523,6.2,6.2,0,0,0,.454,1.736Z" fill="#5038a1"/>
    <path id="Trazado_231875" data-name="Trazado 231875" d="M1279.959-483.648c-1.235,0-2.47.021-3.705,0a5.921,5.921,0,0,1-5.9-5.881,5.937,5.937,0,0,1,5.748-5.96q3.841-.11,7.687,0a5.931,5.931,0,0,1,5.719,5.985,5.913,5.913,0,0,1-5.84,5.85C1282.429-483.626,1281.194-483.649,1279.959-483.648Z" transform="translate(-115.023 -235.448)" fill="#5038a1"/>
    <path id="Trazado_231876" data-name="Trazado 231876" d="M1188.1-516.238a20.193,20.193,0,0,1-19.75-15.954c-.163-.731-.106-1.073.776-.96.789.1,1.812-.233,2.337.156s.5,1.441.755,2.189a16.818,16.818,0,0,0,15.753,11.233c.74.006,1.648-.247,2.174.092.549.355,0,1.287.07,1.977.136,1.262.095,1.266-1.187,1.266Z" transform="translate(-38.22 -207.126)" fill="#5038a1"/>
  </g>
</svg>
