<svg xmlns="http://www.w3.org/2000/svg" width="136.973" height="136.973" viewBox="0 0 136.973 136.973">
  <g id="Grupo_161353" data-name="Grupo 161353" transform="translate(-381.007 -3659)">
    <g id="Trazado_137458" data-name="Trazado 137458" transform="translate(381.007 3659)" fill="#fff">
      <path d="M 68.48631286621094 131.9726409912109 C 59.91350936889648 131.9726409912109 51.59981155395508 130.2947692871094 43.77611541748047 126.9856185913086 C 40.01535797119141 125.3949661254883 36.38774871826172 123.4259033203125 32.9940071105957 121.1331405639648 C 29.6312255859375 118.8612899780273 26.46885681152344 116.2520523071289 23.5947265625 113.3779220581055 C 20.72059631347656 110.503791809082 18.11135673522949 107.341423034668 15.83950805664062 103.9786376953125 C 13.5467472076416 100.5848999023438 11.57768249511719 96.95726776123047 9.987030029296875 93.196533203125 C 6.677877902984619 85.37283325195312 5.000008583068848 77.05912017822266 5.000008583068848 68.48631286621094 C 5.000008583068848 59.91350936889648 6.677877902984619 51.59981155395508 9.987030029296875 43.77611541748047 C 11.57768249511719 40.01535797119141 13.5467472076416 36.38774871826172 15.83950805664062 32.9940071105957 C 18.11135673522949 29.6312255859375 20.72059631347656 26.46885681152344 23.5947265625 23.5947265625 C 26.46885681152344 20.72059631347656 29.6312255859375 18.11135673522949 32.9940071105957 15.83950805664062 C 36.38774871826172 13.5467472076416 40.01535797119141 11.57768249511719 43.77611541748047 9.987030029296875 C 51.59981155395508 6.677877902984619 59.91350936889648 5.000008583068848 68.48631286621094 5.000008583068848 C 77.05912017822266 5.000008583068848 85.37283325195312 6.677877902984619 93.196533203125 9.987030029296875 C 96.95726776123047 11.57768249511719 100.5848999023438 13.5467472076416 103.9786376953125 15.83950805664062 C 107.341423034668 18.11135673522949 110.503791809082 20.72059631347656 113.3779220581055 23.5947265625 C 116.2520523071289 26.46885681152344 118.8612899780273 29.6312255859375 121.1331405639648 32.9940071105957 C 123.4259033203125 36.38774871826172 125.3949661254883 40.01535797119141 126.9856185913086 43.77611541748047 C 130.2947692871094 51.59981155395508 131.9726409912109 59.91350936889648 131.9726409912109 68.48631286621094 C 131.9726409912109 77.05912017822266 130.2947692871094 85.37283325195312 126.9856185913086 93.196533203125 C 125.3949661254883 96.95726776123047 123.4259033203125 100.5848999023438 121.1331405639648 103.9786376953125 C 118.8612899780273 107.341423034668 116.2520523071289 110.503791809082 113.3779220581055 113.3779220581055 C 110.503791809082 116.2520523071289 107.341423034668 118.8612899780273 103.9786376953125 121.1331405639648 C 100.5848999023438 123.4259033203125 96.95726776123047 125.3949661254883 93.196533203125 126.9856185913086 C 85.37283325195312 130.2947692871094 77.05912017822266 131.9726409912109 68.48631286621094 131.9726409912109 Z" stroke="none"/>
      <path d="M 68.48631286621094 10.00000762939453 C 36.23686981201172 10.00000762939453 10.00000762939453 36.23686981201172 10.00000762939453 68.48631286621094 C 10.00000762939453 100.7357559204102 36.23686981201172 126.9726181030273 68.48631286621094 126.9726181030273 C 100.7357559204102 126.9726181030273 126.9726181030273 100.7357559204102 126.9726181030273 68.48631286621094 C 126.9726181030273 36.23686981201172 100.7357559204102 10.00000762939453 68.48631286621094 10.00000762939453 M 68.48631286621094 0 C 106.3102569580078 0 136.9726257324219 30.66236877441406 136.9726257324219 68.48631286621094 C 136.9726257324219 106.3102569580078 106.3102569580078 136.9726257324219 68.48631286621094 136.9726257324219 C 30.66236877441406 136.9726257324219 0 106.3102569580078 0 68.48631286621094 C 0 30.66236877441406 30.66236877441406 0 68.48631286621094 0 Z" stroke="none" fill="#8c6df2"/>
    </g>
    <circle id="Elipse_4752" data-name="Elipse 4752" cx="60.161" cy="60.161" r="60.161" transform="translate(389.007 3667)" fill="#fedc72"/>
    <g id="Grupo_161223" data-name="Grupo 161223" transform="translate(-835.285 3426.495)">
      <g id="Grupo_161218" data-name="Grupo 161218">
        <g id="Grupo_161217" data-name="Grupo 161217">
          <path id="Trazado_231715" data-name="Trazado 231715" d="M1286.62,335.527a2.3,2.3,0,0,1-2.3-2.373l.471-14.733a2.292,2.292,0,0,1,.594-1.47l16.97-18.739a2.3,2.3,0,0,1,4,1.706l-1.67,23.647a2.3,2.3,0,0,1-1.078,1.79l-15.771,9.824A2.3,2.3,0,0,1,1286.62,335.527Z" fill="#fcdb72"/>
          <path id="Trazado_231716" data-name="Trazado 231716" d="M1304.061,299.756l-1.67,23.647-15.771,9.824.471-14.733,16.97-18.738m0-4.6a4.6,4.6,0,0,0-3.41,1.512l-16.971,18.739a4.6,4.6,0,0,0-1.188,2.941l-.471,14.732a4.6,4.6,0,0,0,7.03,4.051l15.771-9.824a4.6,4.6,0,0,0,2.157-3.58l1.67-23.647a4.6,4.6,0,0,0-4.588-4.924Z" fill="#5b3c9e"/>
        </g>
      </g>
      <g id="Grupo_161220" data-name="Grupo 161220">
        <g id="Grupo_161219" data-name="Grupo 161219">
          <path id="Trazado_231717" data-name="Trazado 231717" d="M1251.585,300.493a2.3,2.3,0,0,1-1.952-3.515l9.824-15.772a2.3,2.3,0,0,1,1.79-1.078l23.648-1.672c.055,0,.11-.005.163-.005a2.3,2.3,0,0,1,1.543,4l-18.74,16.971a2.3,2.3,0,0,1-1.47.594Z" fill="#c184bf"/>
          <path id="Trazado_231718" data-name="Trazado 231718" d="M1285.057,280.75l-18.74,16.971-14.732.473,9.824-15.772,23.648-1.672m0-4.6c-.108,0-.216,0-.326.01l-23.648,1.672a4.6,4.6,0,0,0-3.58,2.158l-9.824,15.771a4.6,4.6,0,0,0,3.9,7.031c.05,0,.1,0,.148,0l14.733-.472a4.6,4.6,0,0,0,2.94-1.188l18.74-16.971a4.6,4.6,0,0,0-3.086-8.009Z" fill="#5b3c9e"/>
        </g>
      </g>
      <g id="Grupo_161222" data-name="Grupo 161222">
        <g id="Grupo_161221" data-name="Grupo 161221">
          <path id="Trazado_231719" data-name="Trazado 231719" d="M1284.423,318.952a2.291,2.291,0,0,1-1.626-.673L1266.412,301.9a2.3,2.3,0,0,1,0-3.252l29.025-29.022c4.012-4.013,11.3-6.817,17.723-6.817a17.622,17.622,0,0,1,6.146,1.021,2.329,2.329,0,0,1,1.578,1.611c2.855,7.773-.74,18.747-5.814,23.82l-29.021,29.022A2.291,2.291,0,0,1,1284.423,318.952Z" fill="#c184bf"/>
          <path id="Trazado_231720" data-name="Trazado 231720" d="M1313.16,265.105a15.278,15.278,0,0,1,5.481.929l.008-.008a.02.02,0,0,1,0,.013l.012,0-.008.008c2.625,6.807-.689,17.059-5.213,21.582l-29.021,29.022-16.385-16.383,29.025-29.022c3.415-3.416,10.1-6.142,16.1-6.143m0-4.6h0c-6.985,0-14.942,3.081-19.351,7.491l-29.025,29.021a4.6,4.6,0,0,0,0,6.506l16.385,16.383a4.6,4.6,0,0,0,6.506,0l29.021-29.022c5.687-5.686,9.55-17.532,6.344-26.247a4.635,4.635,0,0,0-3.075-3.019,19.978,19.978,0,0,0-6.8-1.113Z" fill="#5b3c9e"/>
        </g>
      </g>
      <path id="Trazado_231721" data-name="Trazado 231721" d="M1318.663,266.063c2.613,6.808-.7,17.047-5.219,21.568l-29.021,29.022-8.176-8.176Z" fill="#fcdb72"/>
      <path id="Trazado_231722" data-name="Trazado 231722" d="M1302.983,276.522a3.668,3.668,0,1,0,5.186,0A3.672,3.672,0,0,0,1302.983,276.522Z" fill="none" stroke="#5b3c9e" stroke-linejoin="round" stroke-width="4.6"/>
      <line id="Línea_461" data-name="Línea 461" x1="19.564" y2="19.565" transform="translate(1248.122 317.123)" fill="none" stroke="#fff" stroke-linecap="round" stroke-linejoin="round" stroke-width="4.6"/>
      <line id="Línea_462" data-name="Línea 462" x1="14.613" y2="14.615" transform="translate(1244.292 308.342)" fill="none" stroke="#fff" stroke-linecap="round" stroke-linejoin="round" stroke-width="4.6"/>
      <line id="Línea_463" data-name="Línea 463" x1="14.613" y2="14.615" transform="translate(1261.733 325.784)" fill="none" stroke="#fff" stroke-linecap="round" stroke-linejoin="round" stroke-width="4.6"/>
      <line id="Línea_464" data-name="Línea 464" y1="10" x2="10.5" transform="translate(1279.714 286.973)" fill="none" stroke="#fff" stroke-linecap="round" stroke-linejoin="round" stroke-width="4.6"/>
    </g>
  </g>
</svg>
