<svg xmlns="http://www.w3.org/2000/svg" width="136.973" height="136.973" viewBox="0 0 136.973 136.973">
  <g id="Grupo_161352" data-name="Grupo 161352" transform="translate(-732.007 -3659)">
    <g id="Trazado_137458" data-name="Trazado 137458" transform="translate(732.007 3659)" fill="#fff">
      <path d="M 68.48631286621094 131.9726409912109 C 59.91350936889648 131.9726409912109 51.59981155395508 130.2947692871094 43.77611541748047 126.9856185913086 C 40.01535797119141 125.3949661254883 36.38774871826172 123.4259033203125 32.9940071105957 121.1331405639648 C 29.6312255859375 118.8612899780273 26.46885681152344 116.2520523071289 23.5947265625 113.3779220581055 C 20.72059631347656 110.503791809082 18.11135673522949 107.341423034668 15.83950805664062 103.9786376953125 C 13.5467472076416 100.5848999023438 11.57768249511719 96.95726776123047 9.987030029296875 93.196533203125 C 6.677877902984619 85.37283325195312 5.000008583068848 77.05912017822266 5.000008583068848 68.48631286621094 C 5.000008583068848 59.91350936889648 6.677877902984619 51.59981155395508 9.987030029296875 43.77611541748047 C 11.57768249511719 40.01535797119141 13.5467472076416 36.38774871826172 15.83950805664062 32.9940071105957 C 18.11135673522949 29.6312255859375 20.72059631347656 26.46885681152344 23.5947265625 23.5947265625 C 26.46885681152344 20.72059631347656 29.6312255859375 18.11135673522949 32.9940071105957 15.83950805664062 C 36.38774871826172 13.5467472076416 40.01535797119141 11.57768249511719 43.77611541748047 9.987030029296875 C 51.59981155395508 6.677877902984619 59.91350936889648 5.000008583068848 68.48631286621094 5.000008583068848 C 77.05912017822266 5.000008583068848 85.37283325195312 6.677877902984619 93.196533203125 9.987030029296875 C 96.95726776123047 11.57768249511719 100.5848999023438 13.5467472076416 103.9786376953125 15.83950805664062 C 107.341423034668 18.11135673522949 110.503791809082 20.72059631347656 113.3779220581055 23.5947265625 C 116.2520523071289 26.46885681152344 118.8612899780273 29.6312255859375 121.1331405639648 32.9940071105957 C 123.4259033203125 36.38774871826172 125.3949661254883 40.01535797119141 126.9856185913086 43.77611541748047 C 130.2947692871094 51.59981155395508 131.9726409912109 59.91350936889648 131.9726409912109 68.48631286621094 C 131.9726409912109 77.05912017822266 130.2947692871094 85.37283325195312 126.9856185913086 93.196533203125 C 125.3949661254883 96.95726776123047 123.4259033203125 100.5848999023438 121.1331405639648 103.9786376953125 C 118.8612899780273 107.341423034668 116.2520523071289 110.503791809082 113.3779220581055 113.3779220581055 C 110.503791809082 116.2520523071289 107.341423034668 118.8612899780273 103.9786376953125 121.1331405639648 C 100.5848999023438 123.4259033203125 96.95726776123047 125.3949661254883 93.196533203125 126.9856185913086 C 85.37283325195312 130.2947692871094 77.05912017822266 131.9726409912109 68.48631286621094 131.9726409912109 Z" stroke="none"/>
      <path d="M 68.48631286621094 10.00000762939453 C 36.23686981201172 10.00000762939453 10.00000762939453 36.23686981201172 10.00000762939453 68.48631286621094 C 10.00000762939453 100.7357559204102 36.23686981201172 126.9726181030273 68.48631286621094 126.9726181030273 C 100.7357559204102 126.9726181030273 126.9726181030273 100.7357559204102 126.9726181030273 68.48631286621094 C 126.9726181030273 36.23686981201172 100.7357559204102 10.00000762939453 68.48631286621094 10.00000762939453 M 68.48631286621094 0 C 106.3102569580078 0 136.9726257324219 30.66236877441406 136.9726257324219 68.48631286621094 C 136.9726257324219 106.3102569580078 106.3102569580078 136.9726257324219 68.48631286621094 136.9726257324219 C 30.66236877441406 136.9726257324219 0 106.3102569580078 0 68.48631286621094 C 0 30.66236877441406 30.66236877441406 0 68.48631286621094 0 Z" stroke="none" fill="#8c6df2"/>
    </g>
    <circle id="Elipse_4752" data-name="Elipse 4752" cx="60.161" cy="60.161" r="60.161" transform="translate(740.007 3667)" fill="#fedc72"/>
    <g id="Grupo_161229" data-name="Grupo 161229" transform="translate(-601.411 3185.864)">
      <g id="Grupo_161228" data-name="Grupo 161228">
        <g id="Grupo_161224" data-name="Grupo 161224">
          <path id="Trazado_231723" data-name="Trazado 231723" d="M1408.393,580.4a7.065,7.065,0,0,0-13.994,0,7.074,7.074,0,0,1-7.065-7.068l.021-24.8-1.457,1.556a5.738,5.738,0,0,1-4.04,1.884c-.1,0-.2.007-.3.007a5.869,5.869,0,0,1-4.311-9.817l9.784-10.619a10.768,10.768,0,0,1,7.9-3.46h12.83a10.771,10.771,0,0,1,7.9,3.459l9.774,10.611a5.864,5.864,0,0,1-4.3,9.826s-.2,0-.3-.007a5.736,5.736,0,0,1-4.063-1.912l-1.4-1.488.169,24.752A7.148,7.148,0,0,1,1408.393,580.4Z" fill="#c184bf"/>
          <path id="Trazado_231724" data-name="Trazado 231724" d="M1407.753,530.385a8.459,8.459,0,0,1,6.2,2.719l9.773,10.609a3.564,3.564,0,0,1-2.611,5.968c-.064,0-.128,0-.193-.005a3.424,3.424,0,0,1-2.469-1.158l-5.44-5.807.209,30.631a4.871,4.871,0,0,1-4.834,4.762,4.759,4.759,0,0,1-4.759-4.762V560.2h-4.465v13.136a4.767,4.767,0,1,1-9.535,0l.027-30.629-5.442,5.811a3.438,3.438,0,0,1-2.47,1.158c-.066,0-.13.005-.194.005a3.57,3.57,0,0,1-2.611-5.968l9.775-10.609a8.455,8.455,0,0,1,6.2-2.719h12.83m0-4.6h-12.83a13.071,13.071,0,0,0-9.585,4.2l-9.777,10.61a8.165,8.165,0,0,0,5.994,13.685c.136,0,.274,0,.413-.01a8.173,8.173,0,0,0,3.084-.748l-.018,19.809a212.628,212.628,0,0,1,23.359,9.371,9.418,9.418,0,0,0,9.432-9.231c0-.054,0-.107,0-.161l-.135-19.756a8.168,8.168,0,0,0,3.017.716c.137.007.275.01.411.01a8.17,8.17,0,0,0,6.012-13.666l-9.791-10.627a13.072,13.072,0,0,0-9.588-4.2Z" fill="#5b3c9e"/>
        </g>
        <path id="Trazado_231725" data-name="Trazado 231725" d="M1388.719,533.1l-9.775,10.609a3.568,3.568,0,0,0,5.275,4.8l5.442-5.811-.027,30.629a4.767,4.767,0,1,0,9.535,0V560.2h2.2V530.385h-6.441A8.455,8.455,0,0,0,1388.719,533.1Z" fill="#fcdb72"/>
        <g id="Grupo_161227" data-name="Grupo 161227">
          <g id="Grupo_161225" data-name="Grupo 161225">
            <path id="Trazado_231726" data-name="Trazado 231726" d="M1401.339,521.5a9.517,9.517,0,1,1,6.744-2.787A9.219,9.219,0,0,1,1401.339,521.5Z" fill="#c184bf"/>
            <path id="Trazado_231727" data-name="Trazado 231727" d="M1401.339,504.736a7.221,7.221,0,1,1-5.118,2.115,6.973,6.973,0,0,1,5.118-2.115m0-4.6a11.82,11.82,0,1,0,8.37,3.462,11.588,11.588,0,0,0-8.37-3.462Z" fill="#5b3c9e"/>
          </g>
          <g id="Grupo_161226" data-name="Grupo 161226">
            <path id="Trazado_231728" data-name="Trazado 231728" d="M1401.339,504.736a7.233,7.233,0,1,0,0,14.465Z" fill="#fcdb72"/>
          </g>
        </g>
      </g>
      <line id="Línea_465" data-name="Línea 465" y1="8.816" transform="translate(1404.979 535.709)" fill="none" stroke="#fff" stroke-linecap="round" stroke-linejoin="round" stroke-width="4.6"/>
      <line id="Línea_466" data-name="Línea 466" x1="1.551" transform="translate(1401.624 510.115)" fill="none" stroke="#fff" stroke-linecap="round" stroke-linejoin="round" stroke-width="4.6"/>
    </g>
  </g>
</svg>
