<svg xmlns="http://www.w3.org/2000/svg" width="610" height="359" viewBox="0 0 610 359">
  <g id="Grupo_161420" data-name="Grupo 161420" transform="translate(7327 6376.087)">
    <rect id="Rectángulo_49155" data-name="Rectángulo 49155" width="610" height="346" rx="12" transform="translate(-7327 -6376.087)" fill="#f6f6f6"/>
    <g id="Grupo_161280" data-name="Grupo 161280" transform="translate(-9065.819 -6296.685)">
      <g id="Grupo_161249" data-name="Grupo 161249" transform="translate(1848.444 -59.715)">
        <g id="Grupo_161247" data-name="Grupo 161247">
          <circle id="Elipse_6694" data-name="Elipse 6694" cx="79.102" cy="79.102" r="79.102" fill="#9b99b5"/>
          <g id="Grupo_161246" data-name="Grupo 161246" transform="translate(25.721 7.18)">
            <g id="Grupo_161239" data-name="Grupo 161239" transform="translate(13.136 67.915)">
              <path id="Trazado_231747" data-name="Trazado 231747" d="M1895.33,78.887V118.3a79.177,79.177,0,0,0,78.469-1.488V78.887Z" transform="translate(-1892.48 -46.638)" fill="#355a79"/>
              <g id="Grupo_161238" data-name="Grupo 161238">
                <path id="Trazado_231748" data-name="Trazado 231748" d="M1897.563,45.228a9.509,9.509,0,0,0-5.3,8.524v60.5a78.877,78.877,0,0,0,7.27,3.878q1.648.772,3.335,1.47V53.752A9.509,9.509,0,0,0,1897.563,45.228Z" transform="translate(-1892.261 -44.234)" fill="#76a8d9"/>
                <path id="Trazado_231749" data-name="Trazado 231749" d="M1976.377,45.228a9.509,9.509,0,0,0-5.3,8.524v64.9q1.97-.884,3.88-1.875,3.467-1.791,6.725-3.909V53.752A9.508,9.508,0,0,0,1976.377,45.228Z" transform="translate(-1897.891 -44.234)" fill="#76a8d9"/>
                <path id="Trazado_231750" data-name="Trazado 231750" d="M1943.554,78.807h18.286a18.5,18.5,0,0,0,4.013-.45V53.676a9.509,9.509,0,0,1,5.3-8.524,9.461,9.461,0,0,0-4.216-.994h-64.752a9.466,9.466,0,0,0-4.217.994,9.509,9.509,0,0,1,5.3,8.524V78.694a18.687,18.687,0,0,0,2,.112H1926.4" transform="translate(-1892.669 -44.157)" fill="#4a72af"/>
              </g>
            </g>
            <rect id="Rectángulo_49221" data-name="Rectángulo 49221" width="24.54" height="16.825" transform="translate(42.738 85.026)" fill="#efc38e"/>
            <path id="Trazado_231751" data-name="Trazado 231751" d="M1932.77,58.722h0a27.172,27.172,0,0,1-27.232-24.481l-2.733-29.824c-1.442-15.743,11.162-29.31,27.232-29.31h5.466c16.07,0,28.675,13.567,27.232,29.31L1960,34.241A27.17,27.17,0,0,1,1932.77,58.722Z" transform="translate(-1879.87 28.691)" fill="#efc38e"/>
            <g id="Grupo_161240" data-name="Grupo 161240" transform="translate(41.527 38.195)">
              <path id="Trazado_231752" data-name="Trazado 231752" d="M1928.392,23.7a6.306,6.306,0,0,0-.08-.926V22.7c-.02-.124-.049-.241-.076-.359l-.01-.048a3.986,3.986,0,0,0-.686-1.536c-.011-.015-.023-.028-.035-.043a2.068,2.068,0,0,0-.274-.275c-.019-.015-.036-.031-.055-.044a1.277,1.277,0,0,0-.293-.168c-.02-.008-.037-.02-.057-.027a1.022,1.022,0,0,0-.356-.065h0l-.013,0a1.081,1.081,0,0,0-.365.076l-.014.007a2.911,2.911,0,0,0-1.378,2.237l0,.1a6.428,6.428,0,0,0-.1,1.182,6.567,6.567,0,0,0,.08.926v.074c.02.124.049.241.077.36,0,.016.005.032.009.047a3.992,3.992,0,0,0,.686,1.536l.036.043a1.967,1.967,0,0,0,.274.275c.018.015.035.03.054.044a1.357,1.357,0,0,0,.293.168c.02.007.038.02.058.027a1.038,1.038,0,0,0,.356.065h0l.012,0a1.056,1.056,0,0,0,.365-.076l.014-.007a2.906,2.906,0,0,0,1.379-2.237v-.1A6.4,6.4,0,0,0,1928.392,23.7Z" transform="translate(-1922.961 -12.721)" fill="#333233"/>
              <path id="Trazado_231753" data-name="Trazado 231753" d="M1949.153,23.7a6.306,6.306,0,0,0-.08-.926V22.7c-.02-.124-.049-.241-.076-.359l-.01-.048a4,4,0,0,0-.686-1.536c-.012-.015-.024-.028-.035-.043a2.06,2.06,0,0,0-.274-.275c-.019-.015-.036-.031-.055-.044a1.289,1.289,0,0,0-.292-.168c-.02-.008-.038-.02-.058-.027a1.022,1.022,0,0,0-.356-.065h0l-.012,0a1.08,1.08,0,0,0-.365.076l-.014.007a2.909,2.909,0,0,0-1.378,2.237v.1a6.067,6.067,0,0,0-.025,2.108v.074c.021.124.049.241.076.36,0,.016.006.032.01.047a4,4,0,0,0,.686,1.536l.035.043a1.958,1.958,0,0,0,.275.275c.018.015.035.03.054.044a1.355,1.355,0,0,0,.293.168c.02.007.038.02.058.027a1.035,1.035,0,0,0,.356.065h0l.012,0a1.061,1.061,0,0,0,.365-.076l.014-.007a2.905,2.905,0,0,0,1.378-2.237l0-.1A6.39,6.39,0,0,0,1949.153,23.7Z" transform="translate(-1924.444 -12.721)" fill="#333233"/>
              <path id="Trazado_231754" data-name="Trazado 231754" d="M1943.4,12.683l.092-.046c.081-.042.181-.084.293-.129a5.077,5.077,0,0,1,.97-.271,4.883,4.883,0,0,1,1.4-.061,4.326,4.326,0,0,1,.77.133,6.216,6.216,0,0,1,.754.254,5.931,5.931,0,0,1,1.277.8c.172.157.338.309.5.452l.385.447a6.541,6.541,0,0,1,.512.7l.183.268a.434.434,0,0,1-.666.55l-.033-.033-.207-.21a5.412,5.412,0,0,0-.553-.525l-.388-.316-.46-.289a4.592,4.592,0,0,0-1.044-.421,4.686,4.686,0,0,0-.54-.075,2.654,2.654,0,0,0-.516.007,3.088,3.088,0,0,0-.876.2,3.053,3.053,0,0,0-.557.275.713.713,0,0,0-.11.078l-.047.035a1.079,1.079,0,0,1-1.3-1.723A1.146,1.146,0,0,1,1943.4,12.683Z" transform="translate(-1924.262 -12.151)" fill="#402d27"/>
              <path id="Trazado_231755" data-name="Trazado 231755" d="M1928.91,14.51l-.047-.035a.67.67,0,0,0-.11-.078,3.316,3.316,0,0,0-1.433-.479,2.653,2.653,0,0,0-.516-.007,4.682,4.682,0,0,0-.54.075,4.575,4.575,0,0,0-1.043.421l-.461.289-.388.316a5.521,5.521,0,0,0-.553.525l-.207.21-.032.033a.434.434,0,0,1-.667-.55l.183-.268a6.385,6.385,0,0,1,.511-.7l.385-.447.5-.452a5.913,5.913,0,0,1,1.278-.8,6.133,6.133,0,0,1,.753-.254,4.32,4.32,0,0,1,.771-.133,4.873,4.873,0,0,1,1.395.061,5.079,5.079,0,0,1,.97.271c.113.045.213.087.293.129l.093.046a1.079,1.079,0,1,1-.961,1.931A1.138,1.138,0,0,1,1928.91,14.51Z" transform="translate(-1922.835 -12.151)" fill="#402d27"/>
            </g>
            <path id="Trazado_231756" data-name="Trazado 231756" d="M1994.7,105.118a84.507,84.507,0,0,0-5.82-11.16c-9.272-14.711-22.562-17.653-26.265-17.8V97.717c.1.049,6.257,3.367,12.916,22.122A79.424,79.424,0,0,0,1994.7,105.118Z" transform="translate(-1884.15 21.472)" fill="#867998"/>
            <path id="Trazado_231757" data-name="Trazado 231757" d="M1911.744,97.717V76.159c-3.7.146-16.994,3.087-26.266,17.8a90.9,90.9,0,0,0-7.365,14.864,79.25,79.25,0,0,0,19.921,13.319C1904.99,101.355,1911.64,97.768,1911.744,97.717Z" transform="translate(-1878.114 21.472)" fill="#867998"/>
            <path id="Trazado_231758" data-name="Trazado 231758" d="M1943.02,72.817V80.14h-17.8V72.825c-17.232,1.1-29.136,7.619-32.26,45.874a79.167,79.167,0,0,0,82.288-1.884C1971.877,80.136,1960.033,73.878,1943.02,72.817Z" transform="translate(-1879.174 21.711)" fill="#9383a8"/>
            <path id="Trazado_231759" data-name="Trazado 231759" d="M1945.381,79.362l-17.8.007a33.124,33.124,0,0,0-7.374.832l11.084,49.508c1.066.043,2.136.071,3.213.071,2.364,0,4.7-.11,7.013-.313l10.536-49.5C1949.146,79.271,1948.707,79.544,1945.381,79.362Z" transform="translate(-1881.121 21.244)" fill="#e4e4e5"/>
            <path id="Trazado_231760" data-name="Trazado 231760" d="M1950.852,92.248l12.224-1.5-10.028-17.02c-4.218,5.578-7.824,15.879-10.5,25.446-1.469,5.246-2.659,18.244-3.517,30.138,1.641-.065,3.271-.174,4.884-.337l7.592-29.863Z" transform="translate(-1882.465 21.646)" fill="#695f76"/>
            <path id="Trazado_231761" data-name="Trazado 231761" d="M1933.875,129.378c-.865-11.906-2.065-24.936-3.545-30.187-2.7-9.567-6.321-19.869-10.549-25.444l-10,17.04,12.226,1.487-.64,6.861,7.6,30.1c1.587.1,3.184.149,4.794.149Z" transform="translate(-1880.376 21.645)" fill="#695f76"/>
            <g id="Grupo_161241" data-name="Grupo 161241" transform="translate(35.842 90.492)">
              <path id="Trazado_231762" data-name="Trazado 231762" d="M1951.254,68.47l-14.42,9.44,10.131,7.9,9.518-10.989Z" transform="translate(-1918.15 -68.47)" fill="#f2f2f2"/>
              <path id="Trazado_231763" data-name="Trazado 231763" d="M1921.942,68.47l14.42,9.44-10.131,7.9-9.518-10.989Z" transform="translate(-1916.713 -68.47)" fill="#f2f2f2"/>
            </g>
            <path id="Trazado_231764" data-name="Trazado 231764" d="M1967.159,22.933c-.221-3.159-1.125-6.714-3.926-8.189a9.411,9.411,0,0,0-4.64-.773,3.5,3.5,0,0,0-1.46.256c-1.312.635-1.4,2.437-1.32,3.893a119.021,119.021,0,0,1-.174,15.294c-.3,3.98-1.106,8.459-4.441,10.651-1.351.888-3.416,1.153-4.4-.13a5.973,5.973,0,0,1-.627-1.253,7.186,7.186,0,0,0-11.248-2.536h-.127a7.186,7.186,0,0,0-11.248,2.536,5.986,5.986,0,0,1-.627,1.253c-.981,1.283-3.047,1.018-4.4.13-3.336-2.191-4.14-6.671-4.442-10.651a119.021,119.021,0,0,1-.174-15.294c.077-1.456-.009-3.257-1.321-3.893a3.5,3.5,0,0,0-1.46-.256,9.4,9.4,0,0,0-4.639.773c-2.8,1.475-3.707,5.03-3.927,8.189a53.122,53.122,0,0,0,3.133,20.506,40.393,40.393,0,0,0,2.02,5.049,31.085,31.085,0,0,0,54.289,0,40.429,40.429,0,0,0,2.02-5.049A53.09,53.09,0,0,0,1967.159,22.933Zm-22.522,28.215a22.411,22.411,0,0,1-19.551,0v-3.4l9.775-4.56,9.776,4.56Z" transform="translate(-1879.854 25.915)" fill="#4d2f1e"/>
            <path id="Trazado_231765" data-name="Trazado 231765" d="M1931.281,51c.009.006.148.065.424.175s.674.251,1.154.4c.241.074.5.151.781.221s.576.125.878.2a11.828,11.828,0,0,0,1.918.2,6.05,6.05,0,0,0,.972-.023,6.716,6.716,0,0,0,.933-.111,6.605,6.605,0,0,0,.863-.187,4.861,4.861,0,0,0,.761-.233c.23-.091.458-.143.642-.229l.48-.225c.269-.122.43-.187.43-.187l.052-.02a.434.434,0,0,1,.435.74s-.144.116-.407.31a6.711,6.711,0,0,1-1.151.725,4.575,4.575,0,0,1-.838.373,5.964,5.964,0,0,1-.983.306,6.93,6.93,0,0,1-1.086.189,7.357,7.357,0,0,1-1.137.05,8.57,8.57,0,0,1-1.129-.089,10.5,10.5,0,0,1-1.071-.212,9.928,9.928,0,0,1-1.8-.661,9.018,9.018,0,0,1-1.172-.672c-.271-.181-.425-.321-.419-.312a.435.435,0,0,1,.466-.734Z" transform="translate(-1881.864 23.275)" fill="#211915"/>
            <path id="Trazado_231766" data-name="Trazado 231766" d="M1887.457,14.29C1895,6.408,1895.9-5.724,1901.7-14.965a29.974,29.974,0,0,1,20.045-13.578,43.207,43.207,0,0,1,10.8-.2c7.681.655,15.711,2.437,21.352,7.692.16.148.781-2.107.851-2.345.268-.9.657-2.278,1.751-2.457,1.3-.212,2.266,1.363,2.341,2.462.094,1.355-.471,2.671-.539,4.027.072-1.3,3.855-2.972,3.214.329-.268,1.385-1.452,3.779-3.229,3.094,2.255.87,3.694,3.071,4.758,5.241a36.817,36.817,0,0,1,1.427,28.451,19.626,19.626,0,0,1-18.02-15.262,11.232,11.232,0,0,1-8.5-.107c-2.809-1.205-5.272-3.6-8.329-3.578-2.355.021-4.463,1.543-5.948,3.371s-2.507,3.982-3.828,5.932c-4.494,6.633-12.5,10.552-20.509,10.689a17.027,17.027,0,0,1-4.388-.423S1888.61,16.477,1887.457,14.29Z" transform="translate(-1878.781 28.983)" fill="#593623"/>
            <rect id="Rectángulo_49222" data-name="Rectángulo 49222" width="4.778" height="12.366" rx="1.201" transform="translate(20.843 62.76) rotate(180)" fill="#4c5f7a"/>
            <g id="Grupo_161242" data-name="Grupo 161242" transform="translate(60.529 62.078)">
              <path id="Trazado_231767" data-name="Trazado 231767" d="M1946.919,56.625c-1.143,0-2.348-.025-3.62-.08l.11-2.6c17.2.729,21.014-3.9,21.588-4.8V37.871h2.606V49.693l-.085.224C1967.244,50.641,1964.43,56.625,1946.919,56.625Z" transform="translate(-1943.299 -37.871)" fill="#95a5b5"/>
            </g>
            <path id="Trazado_231768" data-name="Trazado 231768" d="M1943.993,56.425c0,1.725-3.614,3.124-6.092,3.124s-3.751-1.4-3.751-3.124,1.273-3.124,3.751-3.124S1943.993,54.7,1943.993,56.425Z" transform="translate(-1882.117 23.105)" fill="#353e47"/>
            <g id="Grupo_161244" data-name="Grupo 161244" transform="translate(28.058 41.451)">
              <g id="Grupo_161243" data-name="Grupo 161243" transform="translate(9.741)">
                <path id="Trazado_231769" data-name="Trazado 231769" d="M1933.683,29.565a10.958,10.958,0,0,1-.353,4.185c-.439,1.074-1.318,2.045-1.245,3.2a2.644,2.644,0,0,0,2.078,2.226,5.206,5.206,0,0,0,3.178-.414,5.637,5.637,0,0,0,3.01-2.509c.792-1.6.266-3.516.407-5.213a19.652,19.652,0,0,0-.22-4.917c-.24-1.414-.676-3.8-2.32-4.25a3.984,3.984,0,0,0-1.18-.084c-3.034.1-3.451,3-3.4,5.538q.019,1.018.04,2.035C1933.679,29.432,1933.681,29.5,1933.683,29.565Z" transform="translate(-1919.768 -16.095)" fill="#d17171"/>
                <path id="Trazado_231770" data-name="Trazado 231770" d="M1933.792,23.142a7.486,7.486,0,1,1-7.485-7.485A7.485,7.485,0,0,1,1933.792,23.142Z" transform="translate(-1918.821 -15.657)" fill="none" stroke="#274055" stroke-miterlimit="10" stroke-width="2"/>
                <path id="Trazado_231771" data-name="Trazado 231771" d="M1955.231,23.142a7.486,7.486,0,1,1-7.485-7.485A7.485,7.485,0,0,1,1955.231,23.142Z" transform="translate(-1920.352 -15.657)" fill="none" stroke="#274055" stroke-miterlimit="10" stroke-width="2"/>
                <line id="Línea_468" data-name="Línea 468" x2="4.936" transform="translate(14.971 7.486)" fill="none" stroke="#274055" stroke-miterlimit="10" stroke-width="1"/>
              </g>
              <line id="Línea_469" data-name="Línea 469" y1="0.691" x2="9.885" transform="translate(0 8.943)" fill="none" stroke="#274055" stroke-miterlimit="10" stroke-width="1"/>
              <line id="Línea_470" data-name="Línea 470" x1="9.885" y1="0.691" transform="translate(44.62 8.943)" fill="none" stroke="#274055" stroke-miterlimit="10" stroke-width="1"/>
            </g>
            <rect id="Rectángulo_49223" data-name="Rectángulo 49223" width="4.777" height="12.366" rx="1.201" transform="translate(86.065 49.091)" fill="#4c5f7a"/>
            <g id="Grupo_161245" data-name="Grupo 161245" transform="translate(20.043 0.983)">
              <path id="Trazado_231772" data-name="Trazado 231772" d="M1965.97,20.029l-4.361-.933c.049-.215,4.75-21.753-5.421-34.05-4.736-5.725-12.092-8.627-21.866-8.627h-1.71c-9.774,0-17.13,2.9-21.865,8.627-10.172,12.3-5.471,33.834-5.422,34.05l-4.361.933c-.219-.963-5.216-23.76,6.293-37.692,5.624-6.808,14.155-10.261,25.355-10.261h1.71c11.2,0,19.73,3.452,25.355,10.261C1971.186-3.731,1966.189,19.066,1965.97,20.029Z" transform="translate(-1899.699 27.924)" fill="#71849d"/>
            </g>
            <rect id="Rectángulo_49224" data-name="Rectángulo 49224" width="7.383" height="19.11" rx="1.856" transform="translate(79.839 45.719)" fill="#404c56"/>
            <rect id="Rectángulo_49225" data-name="Rectángulo 49225" width="7.384" height="19.11" rx="1.856" transform="translate(27.068 66.132) rotate(180)" fill="#404c56"/>
          </g>
        </g>
        <g id="Grupo_161248" data-name="Grupo 161248" transform="translate(124.612 32.529)">
          <path id="Trazado_231773" data-name="Trazado 231773" d="M2011.36-1.683c-10.715,0-19.4,6.644-19.4,14.839a11.6,11.6,0,0,0,.692,3.929.768.768,0,0,1-.027.6c-1.212,2.439-3.814,6.949-7.7,9.905a.781.781,0,0,0,.449,1.4c3.652.1,10.814-.077,16.623-2.6a.75.75,0,0,1,.576-.012,24.26,24.26,0,0,0,8.79,1.61c10.714,0,19.4-6.644,19.4-14.839S2022.074-1.683,2011.36-1.683Z" transform="translate(-1984.612 1.683)" fill="#ebecee"/>
          <path id="Trazado_231774" data-name="Trazado 231774" d="M2008.361,14.66A2.461,2.461,0,1,1,2005.9,12.2,2.461,2.461,0,0,1,2008.361,14.66Z" transform="translate(-1985.957 0.691)" fill="#d25d5a"/>
          <path id="Trazado_231775" data-name="Trazado 231775" d="M2016.761,14.66A2.461,2.461,0,1,1,2014.3,12.2,2.462,2.462,0,0,1,2016.761,14.66Z" transform="translate(-1986.557 0.691)" fill="#d25d5a"/>
          <path id="Trazado_231776" data-name="Trazado 231776" d="M2025.16,14.66A2.461,2.461,0,1,1,2022.7,12.2,2.461,2.461,0,0,1,2025.16,14.66Z" transform="translate(-1987.157 0.691)" fill="#d25d5a"/>
        </g>
      </g>
      <g id="Grupo_161258" data-name="Grupo 161258" transform="translate(1822.83 63.015)">
        <g id="Grupo_161256" data-name="Grupo 161256" transform="translate(0)">
          <circle id="Elipse_6695" data-name="Elipse 6695" cx="79.102" cy="79.102" r="79.102" transform="matrix(0.413, -0.911, 0.911, 0.413, 0, 144.069)" fill="#9b99b5"/>
          <g id="Grupo_161251" data-name="Grupo 161251" transform="translate(63.291 99.876)">
            <path id="Trazado_231777" data-name="Trazado 231777" d="M1894.059,264.869v39.412a79.183,79.183,0,0,0,78.469-1.488V264.869Z" transform="translate(-1891.209 -232.621)" fill="#355a79"/>
            <g id="Grupo_161250" data-name="Grupo 161250">
              <path id="Trazado_231778" data-name="Trazado 231778" d="M1896.292,231.211a9.508,9.508,0,0,0-5.3,8.524v60.5a78.98,78.98,0,0,0,7.27,3.878q1.648.772,3.334,1.47v-65.85A9.508,9.508,0,0,0,1896.292,231.211Z" transform="translate(-1890.99 -230.217)" fill="#76a8d9"/>
              <path id="Trazado_231779" data-name="Trazado 231779" d="M1975.106,231.211a9.508,9.508,0,0,0-5.3,8.524v64.9q1.969-.884,3.88-1.875,3.465-1.791,6.725-3.909V239.735A9.506,9.506,0,0,0,1975.106,231.211Z" transform="translate(-1896.62 -230.217)" fill="#76a8d9"/>
              <path id="Trazado_231780" data-name="Trazado 231780" d="M1942.282,264.789h18.286a18.553,18.553,0,0,0,4.013-.449v-24.68a9.508,9.508,0,0,1,5.3-8.524,9.448,9.448,0,0,0-4.216-.994h-64.752a9.453,9.453,0,0,0-4.217.994,9.508,9.508,0,0,1,5.3,8.524v25.018a18.688,18.688,0,0,0,2,.111h21.126" transform="translate(-1891.398 -230.14)" fill="#4a72af"/>
            </g>
          </g>
          <path id="Trazado_231781" data-name="Trazado 231781" d="M1910.067,179.725c-6.313-1.911-14.427-.854-18.9,4.394-3.323,3.9-4.693,14.038.855,16.933a12.383,12.383,0,0,0-7.9,23.264c-4.5.906-7.28,6.134-6.341,10.623s4.864,7.949,9.246,9.3c-3.8,3.029-3.828,9.511-.312,12.863s9.622,3.224,13.278.025a8.742,8.742,0,0,0,15.26,0c6.642,3.158,15.559-.01,18.718-6.651a6.761,6.761,0,0,0,7.073,2.555c1.4-.373,2.73-1.215,4.176-1.1,1.976.163,3.308,1.994,4.808,3.292a9.525,9.525,0,0,0,9.7,1.707,8.048,8.048,0,0,0,4.818-8.334,11.485,11.485,0,0,0,9.874-.029c3-1.616,4.934-5.309,3.954-8.572a13.887,13.887,0,0,0-2.75-24.516c2.773-4.205,3.532-9.9,2.837-14.892-.506-3.634-2.6-8-6.941-12.1a11.767,11.767,0,0,0-11.224-2.473c1.272-4.246-4.109-9.445-8.307-10.871s-7.833-1.036-10.434,2.763a6.693,6.693,0,0,0-5.532-5.514c-3.117-.437-6.85,1.714-6.9,3.634,1.469-1.86-4.732-5.933-7.989-5.782-5.12.237-11.281,4.148-11.068,9.619" transform="translate(-1826.716 -125.986)" fill="#211915"/>
          <path id="Trazado_231782" data-name="Trazado 231782" d="M1980.349,292.858c-8.23-14.711-20.028-17.653-23.315-17.8v21.557c.077.043,4.148,2.516,9.056,15.206a78.91,78.91,0,0,0,18.429-10.29A83.971,83.971,0,0,0,1980.349,292.858Z" transform="translate(-1832.416 -133.473)" fill="#d6a934"/>
          <path id="Trazado_231783" data-name="Trazado 231783" d="M1912.056,296.616V275.059c-3.287.146-15.086,3.087-23.316,17.8a83.8,83.8,0,0,0-4.168,8.674A78.889,78.889,0,0,0,1903,311.822C1907.908,299.131,1911.979,296.658,1912.056,296.616Z" transform="translate(-1827.24 -133.473)" fill="#d6a934"/>
          <path id="Trazado_231784" data-name="Trazado 231784" d="M1940.464,271.717v7.323h-15.8v-7.314c-13.985,1.008-24.016,6.541-27.755,36.713a79.234,79.234,0,0,0,71.453.2C1964.63,278.206,1954.54,272.7,1940.464,271.717Z" transform="translate(-1828.121 -133.234)" fill="#e4b946"/>
          <rect id="Rectángulo_49226" data-name="Rectángulo 49226" width="21.231" height="24.445" transform="translate(93.499 134.357)" fill="#a8714c"/>
          <path id="Trazado_231785" data-name="Trazado 231785" d="M1933.47,265.873h0a25.4,25.4,0,0,1-25.09-23.4l-2.518-28.507c-1.329-15.048,10.285-28.017,25.09-28.017h5.036c14.806,0,26.42,12.968,25.09,28.017l-2.517,28.507A25.4,25.4,0,0,1,1933.47,265.873Z" transform="translate(-1828.754 -127.108)" fill="#b1805c"/>
          <g id="Grupo_161252" data-name="Grupo 161252" transform="translate(90.943 97.428)">
            <path id="Trazado_231786" data-name="Trazado 231786" d="M1926.326,239.051a6.305,6.305,0,0,0-.08-.926v-.074c-.02-.124-.049-.241-.076-.359l-.01-.048a3.991,3.991,0,0,0-.686-1.536c-.011-.015-.023-.028-.035-.043a2.011,2.011,0,0,0-.274-.274c-.019-.016-.036-.032-.055-.045a1.353,1.353,0,0,0-.293-.168c-.02-.008-.037-.02-.057-.027a1.043,1.043,0,0,0-.356-.065h0l-.012,0a1.083,1.083,0,0,0-.366.077l-.014.007a2.914,2.914,0,0,0-1.379,2.237v.1a6.4,6.4,0,0,0-.1,1.181,6.585,6.585,0,0,0,.08.926v.075c.02.124.049.241.076.359l.01.047a4,4,0,0,0,.686,1.536l.035.043a1.973,1.973,0,0,0,.275.275c.018.015.035.03.054.044a1.338,1.338,0,0,0,.293.169c.02.006.038.02.058.026a1.038,1.038,0,0,0,.356.065h0l.013,0a1.04,1.04,0,0,0,.365-.077l.014-.007a2.906,2.906,0,0,0,1.379-2.237v-.1A6.41,6.41,0,0,0,1926.326,239.051Z" transform="translate(-1920.895 -228.074)" fill="#333233"/>
            <path id="Trazado_231787" data-name="Trazado 231787" d="M1947.087,239.051a6.322,6.322,0,0,0-.08-.926v-.074c-.02-.124-.049-.241-.076-.359l-.01-.048a4.005,4.005,0,0,0-.686-1.536c-.011-.015-.024-.028-.035-.043a2.011,2.011,0,0,0-.274-.274c-.019-.016-.036-.032-.055-.045a1.333,1.333,0,0,0-.293-.168c-.02-.008-.037-.02-.057-.027a1.044,1.044,0,0,0-.357-.065h0l-.012,0a1.084,1.084,0,0,0-.365.077l-.014.007a2.912,2.912,0,0,0-1.379,2.237v.1a6.472,6.472,0,0,0-.1,1.181,6.583,6.583,0,0,0,.081.926v.075c.021.124.049.241.076.359l.01.047a3.986,3.986,0,0,0,.686,1.536l.035.043a1.969,1.969,0,0,0,.274.275l.055.044a1.376,1.376,0,0,0,.292.169c.02.006.038.02.058.026a1.043,1.043,0,0,0,.357.065h0l.013,0a1.031,1.031,0,0,0,.364-.077l.015-.007a2.9,2.9,0,0,0,1.378-2.237v-.1A6.325,6.325,0,0,0,1947.087,239.051Z" transform="translate(-1922.378 -228.074)" fill="#333233"/>
            <path id="Trazado_231788" data-name="Trazado 231788" d="M1941.334,228.036l.092-.046c.081-.042.18-.084.293-.129a5.074,5.074,0,0,1,.97-.271,4.977,4.977,0,0,1,1.395-.062,4.407,4.407,0,0,1,.771.134,6.378,6.378,0,0,1,.754.254,5.931,5.931,0,0,1,1.277.8l.5.453.385.445a6.49,6.49,0,0,1,.513.7c.116.172.183.268.183.268a.434.434,0,0,1-.666.55l-.033-.034-.207-.209a5.5,5.5,0,0,0-.553-.526c-.121-.1-.251-.2-.388-.315l-.462-.289a4.511,4.511,0,0,0-1.043-.421,4.69,4.69,0,0,0-.54-.075,2.729,2.729,0,0,0-.516.007,3.071,3.071,0,0,0-.876.205,3.019,3.019,0,0,0-.556.274.771.771,0,0,0-.11.078l-.047.035a1.079,1.079,0,1,1-1.3-1.723A1.046,1.046,0,0,1,1941.334,228.036Z" transform="translate(-1922.195 -227.504)" fill="#402d27"/>
            <path id="Trazado_231789" data-name="Trazado 231789" d="M1926.843,229.863l-.047-.035a.719.719,0,0,0-.11-.078,3.019,3.019,0,0,0-.556-.274,3.071,3.071,0,0,0-.876-.205,2.727,2.727,0,0,0-.516-.007,4.69,4.69,0,0,0-.54.075,4.527,4.527,0,0,0-1.043.421l-.462.289c-.137.111-.267.218-.388.315a5.59,5.59,0,0,0-.553.526l-.207.209-.033.033a.434.434,0,0,1-.667-.549s.067-.1.183-.268a6.457,6.457,0,0,1,.512-.7l.385-.445.5-.453a5.915,5.915,0,0,1,1.278-.8,6.3,6.3,0,0,1,.753-.254,4.423,4.423,0,0,1,.771-.134,4.977,4.977,0,0,1,1.395.062,5.074,5.074,0,0,1,.97.271c.113.045.213.087.294.129l.091.046a1.078,1.078,0,1,1-.96,1.931A1.106,1.106,0,0,1,1926.843,229.863Z" transform="translate(-1920.769 -227.504)" fill="#402d27"/>
          </g>
          <path id="Trazado_231790" data-name="Trazado 231790" d="M1948,287.456l-14.033,30.43h0l-14.433-32.933S1932.283,295.96,1948,287.456Z" transform="translate(-1829.738 -134.18)" fill="#e4e4e5"/>
          <path id="Trazado_231791" data-name="Trazado 231791" d="M1949.547,286.306c3.04-1.449,9.41-4.054,9.41-4.054l-11.437-12.6h-3.909c.34,6.687-7.3,34.754-10.641,46.631-3.337-11.876-10.981-39.944-10.641-46.631h-3.909l-11.437,12.6s6.37,2.606,9.411,4.054l-3.693,5.067s11.865,19.8,16.467,25.408q2.181.12,4.39.123c1.061,0,2.117-.027,3.168-.069,4.568-5.537,16.512-25.463,16.512-25.463Z" transform="translate(-1828.841 -133.087)" fill="#ce9124"/>
          <path id="Trazado_231792" data-name="Trazado 231792" d="M1901.949,223.805a24.365,24.365,0,0,0,30.641-19.872c.837,6.308,4.283,12.543,9.975,15.387,4.109,2.054,8.908,2.174,13.486,1.807a14.229,14.229,0,0,0,5.245-1.175c3.741-1.866,5.4-6.439,5.345-10.618-.081-6.188-3.121-12.008-7.048-16.791-3.661-4.459-8.29-8.315-13.789-10.065a31.2,31.2,0,0,0-13.729-.747c-9.974,1.391-19.771,5.944-26.049,13.817s-8.459,19.275-4.1,28.356" transform="translate(-1828.317 -126.777)" fill="#211915"/>
          <path id="Trazado_231793" data-name="Trazado 231793" d="M1936.264,239.276a7.076,7.076,0,0,1,.554,2.5,18.385,18.385,0,0,1-.35,4.385,4.706,4.706,0,0,1-1.142,2.52,2.671,2.671,0,0,1-4.263-.762,5.4,5.4,0,0,1-.106-3.27,20.378,20.378,0,0,1,1.538-5.557,2.859,2.859,0,0,1,.891-1.153C1934.471,237.208,1935.841,238.281,1936.264,239.276Z" transform="translate(-1830.539 -130.804)" fill="#a55b55"/>
          <path id="Trazado_231794" data-name="Trazado 231794" d="M1939.437,259.149c0,1.108-2.569,3.174-5.736,3.174s-5.731-2.066-5.731-3.174,2.567-2.006,5.733-2.006S1939.437,258.04,1939.437,259.149Z" transform="translate(-1830.34 -132.193)" fill="#4f1621"/>
          <path id="Trazado_231795" data-name="Trazado 231795" d="M1940.456,258.375a.447.447,0,0,0-.041-.824c-.486-.178-1.274.045-1.533-.163-.519-.415-4.447-4.14-5.292-.4-.845-3.737-5.029.042-5.548.458-.259.207-.791.043-1.277.221a.448.448,0,0,0-.041.825S1933.594,261.693,1940.456,258.375Z" transform="translate(-1830.233 -132.064)" fill="#5f1127"/>
          <g id="Grupo_161255" data-name="Grupo 161255" transform="translate(67.437 52.991)">
            <path id="Rectángulo_49227" data-name="Rectángulo 49227" d="M1.2,0H3.576a1.2,1.2,0,0,1,1.2,1.2v9.963a1.2,1.2,0,0,1-1.2,1.2H1.2a1.2,1.2,0,0,1-1.2-1.2V1.2A1.2,1.2,0,0,1,1.2,0Z" transform="translate(69.999 48.109)" fill="#4c5f7a"/>
            <rect id="Rectángulo_49228" data-name="Rectángulo 49228" width="4.778" height="12.365" rx="1.201" transform="translate(4.778 61.777) rotate(180)" fill="#4c5f7a"/>
            <g id="Grupo_161253" data-name="Grupo 161253" transform="translate(3.96)">
              <path id="Trazado_231796" data-name="Trazado 231796" d="M1964.186,227.6l-4.242-.934c.047-.215,4.621-21.753-5.274-34.05-4.607-5.725-11.762-8.627-21.27-8.627h-1.664c-9.508,0-16.664,2.9-21.271,8.627-9.894,12.3-5.322,33.834-5.273,34.05l-4.243.934c-.213-.964-5.074-23.761,6.122-37.693,5.471-6.808,13.77-10.262,24.665-10.262h1.664c10.895,0,19.193,3.453,24.665,10.262C1969.259,203.843,1964.4,226.64,1964.186,227.6Z" transform="translate(-1899.719 -179.649)" fill="#71849d"/>
            </g>
            <g id="Grupo_161254" data-name="Grupo 161254" transform="translate(47.727 62.586)">
              <path id="Trazado_231797" data-name="Trazado 231797" d="M1949.94,263.276q-1.464,0-3.087-.068l.111-2.6c14.229.609,17.674-3.148,18.265-3.99V247.05h2.606v10.145l-.085.224C1967.509,258.051,1965.058,263.276,1949.94,263.276Z" transform="translate(-1946.853 -247.05)" fill="#95a5b5"/>
            </g>
            <path id="Trazado_231798" data-name="Trazado 231798" d="M1950.262,262.916c0,1.476-3.09,2.671-5.209,2.671s-3.208-1.2-3.208-2.671,1.089-2.671,3.208-2.671S1950.262,261.441,1950.262,262.916Z" transform="translate(-1898.768 -185.406)" fill="#353e47"/>
            <path id="Rectángulo_49229" data-name="Rectángulo 49229" d="M1.855,0H5.528A1.856,1.856,0,0,1,7.384,1.856v15.4A1.856,1.856,0,0,1,5.527,19.11H1.856A1.856,1.856,0,0,1,0,17.254V1.855A1.855,1.855,0,0,1,1.855,0Z" transform="translate(63.774 44.737)" fill="#404c56"/>
            <path id="Rectángulo_49230" data-name="Rectángulo 49230" d="M1.855,0H5.528A1.856,1.856,0,0,1,7.384,1.856v15.4A1.855,1.855,0,0,1,5.528,19.11H1.856A1.856,1.856,0,0,1,0,17.254V1.855A1.855,1.855,0,0,1,1.855,0Z" transform="translate(11.003 65.15) rotate(180)" fill="#404c56"/>
          </g>
        </g>
        <g id="Grupo_161257" data-name="Grupo 161257" transform="translate(154.537 60.867)">
          <path id="Trazado_231799" data-name="Trazado 231799" d="M2016,188.131c-10.715,0-19.4,6.644-19.4,14.839a11.6,11.6,0,0,0,.691,3.929.761.761,0,0,1-.027.6c-1.212,2.439-3.815,6.95-7.7,9.905a.781.781,0,0,0,.449,1.4c3.652.1,10.814-.077,16.623-2.6a.752.752,0,0,1,.577-.012,24.232,24.232,0,0,0,8.789,1.611c10.714,0,19.4-6.644,19.4-14.84S2026.716,188.131,2016,188.131Z" transform="translate(-1989.255 -188.131)" fill="#ebecee"/>
          <path id="Trazado_231800" data-name="Trazado 231800" d="M2013,204.474a2.462,2.462,0,1,1-2.462-2.461A2.463,2.463,0,0,1,2013,204.474Z" transform="translate(-1990.599 -189.123)" fill="#cc6a02"/>
          <path id="Trazado_231801" data-name="Trazado 231801" d="M2021.4,204.474a2.461,2.461,0,1,1-2.461-2.461A2.462,2.462,0,0,1,2021.4,204.474Z" transform="translate(-1991.199 -189.123)" fill="#cc6a02"/>
          <path id="Trazado_231802" data-name="Trazado 231802" d="M2029.8,204.474a2.461,2.461,0,1,1-2.462-2.461A2.463,2.463,0,0,1,2029.8,204.474Z" transform="translate(-1991.799 -189.123)" fill="#cc6a02"/>
        </g>
      </g>
      <g id="Grupo_161270" data-name="Grupo 161270" transform="translate(2056.239 -59.715)">
        <g id="Grupo_161268" data-name="Grupo 161268" transform="translate(17.602)">
          <g id="Grupo_161267" data-name="Grupo 161267">
            <circle id="Elipse_6696" data-name="Elipse 6696" cx="79.102" cy="79.102" r="79.102" fill="#9b99b5"/>
            <g id="Grupo_161266" data-name="Grupo 161266" transform="translate(38.315 17.329)">
              <g id="Grupo_161260" data-name="Grupo 161260" transform="translate(0 59.539)">
                <path id="Trazado_231803" data-name="Trazado 231803" d="M2191.082,80.795v39.411a79.177,79.177,0,0,0,78.469-1.488V80.795Z" transform="translate(-2188.232 -48.547)" fill="#355a79"/>
                <g id="Grupo_161259" data-name="Grupo 161259">
                  <path id="Trazado_231804" data-name="Trazado 231804" d="M2193.315,47.136a9.51,9.51,0,0,0-5.3,8.524v60.5a78.561,78.561,0,0,0,7.27,3.878q1.648.772,3.334,1.47V55.66A9.508,9.508,0,0,0,2193.315,47.136Z" transform="translate(-2188.013 -46.142)" fill="#76a8d9"/>
                  <path id="Trazado_231805" data-name="Trazado 231805" d="M2272.129,47.136a9.51,9.51,0,0,0-5.3,8.524v64.9q1.968-.884,3.88-1.874,3.465-1.793,6.725-3.909V55.66A9.509,9.509,0,0,0,2272.129,47.136Z" transform="translate(-2193.643 -46.142)" fill="#76a8d9"/>
                  <path id="Trazado_231806" data-name="Trazado 231806" d="M2239.306,80.715h18.286a18.493,18.493,0,0,0,4.013-.45V55.584a9.51,9.51,0,0,1,5.3-8.524,9.461,9.461,0,0,0-4.216-.994h-64.752a9.465,9.465,0,0,0-4.217.994,9.508,9.508,0,0,1,5.3,8.524V80.6a18.46,18.46,0,0,0,2,.112h21.126" transform="translate(-2188.421 -46.066)" fill="#4a72af"/>
                </g>
              </g>
              <path id="Trazado_231807" data-name="Trazado 231807" d="M2262.814,46.709c0-8.109-.22-16.225-.331-24.334-.123-9.12.811-14.735-2.892-23.531-1.241-2.95-4.206-4.6-6.679-5.5a7.593,7.593,0,0,1-4.469-4.391c-1.609-4.144-6.25-5.682-10.844-6.471a38.6,38.6,0,0,0-10.944-.276c-5.751.666-12.681,2.618-17.09,6.577a29.005,29.005,0,0,0-6.017,7.233c-4.636,8.341-3.838,17.234-3.962,26.355-.11,8.109-.33,16.225-.33,24.334-.073,5.357-.741,10.315-1.2,15.415a7.767,7.767,0,0,0,6.718,8.369l23.161,3.11a7.781,7.781,0,0,0,1.949.016L2257.16,70.4A7.766,7.766,0,0,0,2264,62.01C2263.544,56.95,2262.886,52.026,2262.814,46.709Z" transform="translate(-2188.729 18.053)" fill="#3a281e"/>
              <path id="Trazado_231808" data-name="Trazado 231808" d="M2240.907,84.144V68.107h-17.156V83.975c-4.351,4.968-7.607,5.048-7.607,5.048,3.658,8.185,11.878,25.628,16.185,27.285,4.308-1.657,12.527-19.1,16.186-27.285C2248.515,89.023,2245.183,88.942,2240.907,84.144Z" transform="translate(-2190.022 11.898)" fill="#dba183"/>
              <path id="Trazado_231809" data-name="Trazado 231809" d="M2266.249,103.526l-.148-.721s-.385-2.074-3.2-4.84l-4.165,29.147a78.489,78.489,0,0,0,7.515-2.922q1.968-.884,3.88-1.874Z" transform="translate(-2193.065 9.765)" fill="#e6c29a"/>
              <path id="Trazado_231810" data-name="Trazado 231810" d="M2203.352,97.965c-2.816,2.765-3.2,4.84-3.2,4.84l-.974,4.715-3.334,16.152q1.648.772,3.334,1.47a78.272,78.272,0,0,0,8.48,2.953Z" transform="translate(-2188.572 9.765)" fill="#e6c29a"/>
              <path id="Trazado_231811" data-name="Trazado 231811" d="M2238.515,123.852h-23.243V90.632c-5.731,2.27-9.227,4.734-11.342,6.809l4.3,30.129a79.519,79.519,0,0,0,46.584-.982l4.165-29.147c-2.115-2.075-5.61-4.539-11.342-6.809l-.061,33.22Z" transform="translate(-2189.15 10.289)" fill="#d25d5a"/>
              <path id="Trazado_231812" data-name="Trazado 231812" d="M2232.329,117.917c-4.307-1.657-12.527-19.1-16.185-27.285v33.22h32.31l.061-33.22C2244.856,98.817,2236.636,116.26,2232.329,117.917Z" transform="translate(-2190.022 10.289)" fill="#d25d5a"/>
              <path id="Trazado_231813" data-name="Trazado 231813" d="M2231.573,68.691a17.623,17.623,0,0,1-11.052-4.517c-5.531-4.647-8.605-11.58-10.675-18.5-2.375-7.946-2.653-16.629-3.947-24.884A23.466,23.466,0,0,1,2229.248-4.8h4.686a23.466,23.466,0,0,1,23.346,25.59l-4.08,26.039C2251.438,58.108,2242.143,68.908,2231.573,68.691Z" transform="translate(-2189.284 17.106)" fill="#e6c29a"/>
              <path id="Trazado_231814" data-name="Trazado 231814" d="M2239.955,31.787l.092-.045a3.038,3.038,0,0,1,.293-.13,5.07,5.07,0,0,1,.97-.271,4.875,4.875,0,0,1,1.395-.061,4.318,4.318,0,0,1,.771.133,6.379,6.379,0,0,1,.754.254,5.949,5.949,0,0,1,1.278.8c.171.157.337.309.495.452l.385.447a6.4,6.4,0,0,1,.512.7c.117.17.183.267.183.267a.434.434,0,0,1-.667.55l-.032-.033-.207-.21a5.493,5.493,0,0,0-.553-.525l-.387-.316-.461-.289a4.6,4.6,0,0,0-1.044-.421,4.684,4.684,0,0,0-.54-.075,2.654,2.654,0,0,0-.517.007,3.06,3.06,0,0,0-.876.205,3.018,3.018,0,0,0-.556.274.6.6,0,0,0-.11.078l-.047.035a1.079,1.079,0,0,1-1.3-1.723A1.152,1.152,0,0,1,2239.955,31.787Z" transform="translate(-2191.68 14.531)" fill="#202219"/>
              <path id="Trazado_231815" data-name="Trazado 231815" d="M2204.977,32.255s34.3-5.626,40.135-28.131c0,0,1.159,23.674,10.858,24.177,0,0,6.949-19.931,2.316-26.7-3.8-5.551-11.927-9.3-18.358-11.55-6.951-2.426-15.057-2.522-21.721.9-7.138,3.663-12.592,10.827-14.942,17.9-2.5,7.531-1.265,15.541,1.711,22.8" transform="translate(-2189.007 17.599)" fill="#3a281e"/>
              <ellipse id="Elipse_6697" data-name="Elipse 6697" cx="2.337" cy="4.256" rx="2.337" ry="4.256" transform="translate(39.97 105.013)" fill="#dba52c"/>
              <path id="Trazado_231816" data-name="Trazado 231816" d="M2231.937,99.38c0-1.739.681-3.149,1.52-3.149s1.52,1.41,1.52,3.149-.68,3.149-1.52,3.149S2231.937,101.119,2231.937,99.38Z" transform="translate(-2191.15 9.889)" fill="#e4b946"/>
              <path id="Trazado_231817" data-name="Trazado 231817" d="M2235.64,42.083q-.011-.29-.022-.581a3.431,3.431,0,0,0-.228-1.315,1.169,1.169,0,0,0-1.035-.729c-.724.031-1.08.884-1.221,1.594-.365,1.822.083,3.988-.542,5.695-.423,1.153-1.266,2.113-1.568,3.318a1.916,1.916,0,0,0,1.672,2.558c1.991.045,2.839-2.263,3.043-3.871C2235.738,46.525,2235.719,44.312,2235.64,42.083Z" transform="translate(-2191.08 13.945)" fill="#d87777"/>
              <path id="Trazado_231818" data-name="Trazado 231818" d="M2248.143,39.829a.491.491,0,0,0-.673-.174,2.083,2.083,0,0,1-1.763.123l0-.025c0-.051-.006-.1-.008-.153a3.119,3.119,0,0,0,.551,0,3.01,3.01,0,0,0,1.594-.725.492.492,0,0,0-.657-.733,2.078,2.078,0,0,1-1.588.481c-.009-.05-.023-.095-.034-.143l-.008-.041c0-.017-.007-.032-.011-.048s-.01-.038-.016-.058c-.026-.1-.053-.2-.083-.293s-.054-.161-.083-.239c-.012-.03-.022-.061-.035-.091a3.438,3.438,0,0,0-.469-.855l-.036-.043a1.977,1.977,0,0,0-.274-.275l-.053-.044a1.384,1.384,0,0,0-.294-.168c-.019-.008-.038-.02-.057-.027a1.043,1.043,0,0,0-.357-.065h0l-.013,0a1.067,1.067,0,0,0-.364.076l-.015.007a2.905,2.905,0,0,0-1.378,2.236v.1a6.34,6.34,0,0,0-.106,1.182,6.405,6.405,0,0,0,.081.926v.074c.021.124.049.242.076.36l.01.047a3.986,3.986,0,0,0,.686,1.536c.011.015.024.028.035.043a2.02,2.02,0,0,0,.274.275l.055.044a1.348,1.348,0,0,0,.292.168c.02.008.038.02.058.027a1.039,1.039,0,0,0,.356.065h0l.012,0a1.061,1.061,0,0,0,.365-.076l.013-.007a2.9,2.9,0,0,0,1.38-2.236v-.1c.011-.063.017-.131.026-.2a3.153,3.153,0,0,0,1.253.09,2.921,2.921,0,0,0,1.086-.374A.492.492,0,0,0,2248.143,39.829Z" transform="translate(-2191.863 14.175)" fill="#211915"/>
              <path id="Trazado_231819" data-name="Trazado 231819" d="M2218.561,39.829a.49.49,0,0,1,.672-.174,2.082,2.082,0,0,0,1.763.123.218.218,0,0,0,0-.025c0-.051,0-.1.006-.153a3.1,3.1,0,0,1-.55,0,3,3,0,0,1-1.593-.725.492.492,0,0,1,.657-.733,2.074,2.074,0,0,0,1.587.481c.009-.05.023-.095.034-.143,0-.014.006-.027.01-.041l.009-.048c0-.02.012-.038.017-.058.025-.1.053-.2.083-.293s.053-.161.082-.239l.035-.091a3.391,3.391,0,0,1,.469-.855c.011-.015.024-.028.036-.043a1.963,1.963,0,0,1,.274-.275c.018-.015.035-.03.054-.044a1.347,1.347,0,0,1,.293-.168c.02-.008.038-.02.057-.027a1.045,1.045,0,0,1,.357-.065h0l.012,0a1.083,1.083,0,0,1,.365.076l.014.007a2.906,2.906,0,0,1,1.379,2.236v.1a6.428,6.428,0,0,1,.1,1.182,6.585,6.585,0,0,1-.08.926v.074c-.021.124-.05.242-.076.36,0,.016-.007.032-.009.047a4,4,0,0,1-.687,1.536c-.011.015-.023.028-.035.043a1.931,1.931,0,0,1-.275.275l-.053.044a1.342,1.342,0,0,1-.294.168c-.019.008-.038.02-.057.027a1.043,1.043,0,0,1-.357.065h0l-.012,0a1.051,1.051,0,0,1-.364-.076l-.015-.007a2.906,2.906,0,0,1-1.378-2.236v-.1c-.012-.063-.018-.131-.027-.2a3.147,3.147,0,0,1-1.251.09,2.923,2.923,0,0,1-1.088-.374A.49.49,0,0,1,2218.561,39.829Z" transform="translate(-2190.19 14.175)" fill="#211915"/>
              <g id="Grupo_161263" data-name="Grupo 161263" transform="translate(34.737 68.396)">
                <g id="Grupo_161261" data-name="Grupo 161261">
                  <path id="Trazado_231820" data-name="Trazado 231820" d="M2232.312,59.8a32.287,32.287,0,0,0,7.963-.889,16.077,16.077,0,0,0,.382-2.888c-10.373,2.777-15.194-.415-15.194-.415a12.882,12.882,0,0,0,.042,2.508A13.247,13.247,0,0,0,2232.312,59.8Z" transform="translate(-2225.422 -55.605)" fill="#fff"/>
                  <path id="Trazado_231821" data-name="Trazado 231821" d="M2233.152,66.164a6.046,6.046,0,0,0,5.582-2.748c-5.961,1.585-9.853.284-11.9-.806A7.15,7.15,0,0,0,2233.152,66.164Z" transform="translate(-2225.523 -56.105)" fill="#fff"/>
                </g>
                <g id="Grupo_161262" data-name="Grupo 161262" transform="translate(0.083 2.508)">
                  <path id="Trazado_231822" data-name="Trazado 231822" d="M2229.242,63.431a17.288,17.288,0,0,0,9.664-.1,9.254,9.254,0,0,0,.608-1.037,10.316,10.316,0,0,0-4.206-.891A10.672,10.672,0,0,0,2229.242,63.431Z" transform="translate(-2225.778 -58.527)" fill="#a35669"/>
                  <path id="Trazado_231823" data-name="Trazado 231823" d="M2232.318,59.989a13.247,13.247,0,0,1-6.807-1.683,10.294,10.294,0,0,0,1.229,4,12.7,12.7,0,0,0,2.235.908,10.672,10.672,0,0,1,6.065-2.031,10.316,10.316,0,0,1,4.206.891,12.753,12.753,0,0,0,1.034-2.97A32.287,32.287,0,0,1,2232.318,59.989Z" transform="translate(-2225.511 -58.306)" fill="#4d200f"/>
                </g>
              </g>
              <rect id="Rectángulo_49231" data-name="Rectángulo 49231" width="4.519" height="11.696" rx="1.136" transform="translate(73.906 50)" fill="#4c5f7a"/>
              <rect id="Rectángulo_49232" data-name="Rectángulo 49232" width="4.519" height="11.696" rx="1.136" transform="translate(12.217 62.928) rotate(180)" fill="#4c5f7a"/>
              <g id="Grupo_161264" data-name="Grupo 161264" transform="translate(11.444 4.498)">
                <path id="Trazado_231824" data-name="Trazado 231824" d="M2261.312,32.147l-4.011-.882c.044-.2,4.37-20.575-4.988-32.206-4.358-5.415-11.126-8.16-20.118-8.16h-1.574c-8.992,0-15.76,2.745-20.118,8.16-9.358,11.63-5.033,32-4.988,32.206l-4.011.882c-.2-.911-4.8-22.473,5.79-35.651,5.175-6.44,13.024-9.705,23.328-9.705h1.574c10.3,0,18.154,3.266,23.329,9.705C2266.11,9.674,2261.513,31.236,2261.312,32.147Z" transform="translate(-2200.337 13.209)" fill="#71849d"/>
              </g>
              <g id="Grupo_161265" data-name="Grupo 161265" transform="translate(52.84 63.694)">
                <path id="Trazado_231825" data-name="Trazado 231825" d="M2247.835,65.887c-.922,0-1.893-.02-2.917-.064l.1-2.463c13.461.57,16.717-2.979,17.277-3.776V50.541h2.464v9.594l-.081.212C2264.455,60.944,2262.135,65.887,2247.835,65.887Z" transform="translate(-2244.918 -50.541)" fill="#95a5b5"/>
              </g>
              <path id="Trazado_231826" data-name="Trazado 231826" d="M2248.141,65.547c0,1.4-2.922,2.527-4.927,2.527s-3.034-1.131-3.034-2.527,1.03-2.527,3.034-2.527S2248.141,64.151,2248.141,65.547Z" transform="translate(-2191.739 12.261)" fill="#353e47"/>
              <path id="Rectángulo_49233" data-name="Rectángulo 49233" d="M1.755,0H5.228A1.756,1.756,0,0,1,6.984,1.756V16.319a1.756,1.756,0,0,1-1.756,1.756H1.756A1.756,1.756,0,0,1,0,16.32V1.755A1.755,1.755,0,0,1,1.755,0Z" transform="translate(68.017 46.81)" fill="#404c56"/>
              <path id="Rectángulo_49234" data-name="Rectángulo 49234" d="M1.756,0H5.228A1.755,1.755,0,0,1,6.983,1.755V16.32a1.755,1.755,0,0,1-1.755,1.755H1.756A1.756,1.756,0,0,1,0,16.32V1.756A1.756,1.756,0,0,1,1.756,0Z" transform="translate(18.105 66.118) rotate(180)" fill="#404c56"/>
              <path id="Trazado_231827" data-name="Trazado 231827" d="M2222.767,86.843s2.825,7.611,10.035,7.611,9.892-7.611,9.892-7.611" transform="translate(-2190.496 10.56)" fill="none" stroke="#cc8f15" stroke-linecap="round" stroke-linejoin="round" stroke-width="1"/>
            </g>
          </g>
          <path id="Trazado_231828" data-name="Trazado 231828" d="M2225.464,33.614l-.047-.035a.711.711,0,0,0-.111-.078,3.014,3.014,0,0,0-.556-.274,3.062,3.062,0,0,0-.876-.205,2.648,2.648,0,0,0-.516-.007,4.685,4.685,0,0,0-.541.075,4.575,4.575,0,0,0-1.043.421l-.461.289-.388.316a5.486,5.486,0,0,0-.553.525l-.206.21-.034.033a.433.433,0,0,1-.666-.55l.182-.267a6.331,6.331,0,0,1,.513-.7l.385-.447.5-.452a5.938,5.938,0,0,1,1.277-.8,6.335,6.335,0,0,1,.754-.254,4.318,4.318,0,0,1,.771-.133,4.876,4.876,0,0,1,1.395.061,5.07,5.07,0,0,1,.97.271,3.011,3.011,0,0,1,.293.13l.093.045a1.079,1.079,0,0,1-.962,1.931A1.13,1.13,0,0,1,2225.464,33.614Z" transform="translate(-2151.939 31.859)" fill="#202219"/>
        </g>
        <g id="Grupo_161269" data-name="Grupo 161269" transform="translate(0 86.357)">
          <path id="Trazado_231829" data-name="Trazado 231829" d="M2147.195,56.285c10.714,0,19.4,6.644,19.4,14.839a11.6,11.6,0,0,1-.691,3.929.768.768,0,0,0,.027.6c1.212,2.438,3.814,6.949,7.7,9.905a.781.781,0,0,1-.448,1.4c-3.652.1-10.814-.077-16.622-2.6a.759.759,0,0,0-.578-.011,24.229,24.229,0,0,1-8.788,1.61c-10.715,0-19.4-6.644-19.4-14.839S2136.48,56.285,2147.195,56.285Z" transform="translate(-2127.794 -56.285)" fill="#ebecee"/>
          <circle id="Elipse_6698" data-name="Elipse 6698" cx="2.461" cy="2.461" r="2.461" transform="translate(23.743 12.89)" fill="#e4b946"/>
          <circle id="Elipse_6699" data-name="Elipse 6699" cx="2.461" cy="2.461" r="2.461" transform="translate(15.943 12.89)" fill="#e4b946"/>
          <circle id="Elipse_6700" data-name="Elipse 6700" cx="2.461" cy="2.461" r="2.461" transform="translate(8.144 12.89)" fill="#e4b946"/>
        </g>
      </g>
      <g id="Grupo_161279" data-name="Grupo 161279" transform="translate(2041.076 55.865)">
        <g id="Grupo_161277" data-name="Grupo 161277">
          <circle id="Elipse_6701" data-name="Elipse 6701" cx="79.102" cy="79.102" r="79.102" transform="translate(0 111.867) rotate(-45)" fill="#9b99b5"/>
          <g id="Grupo_161276" data-name="Grupo 161276" transform="translate(64.298 48.42)">
            <g id="Grupo_161272" data-name="Grupo 161272" transform="translate(4.814 59.648)">
              <path id="Trazado_231830" data-name="Trazado 231830" d="M2188.962,265.991V305.4a79.171,79.171,0,0,0,78.469-1.488V265.991Z" transform="translate(-2186.112 -233.743)" fill="#355a79"/>
              <g id="Grupo_161271" data-name="Grupo 161271">
                <path id="Trazado_231831" data-name="Trazado 231831" d="M2191.2,232.332a9.509,9.509,0,0,0-5.3,8.524v60.5a79.118,79.118,0,0,0,7.27,3.879q1.646.77,3.335,1.47V240.856A9.512,9.512,0,0,0,2191.2,232.332Z" transform="translate(-2185.893 -231.338)" fill="#76a8d9"/>
                <path id="Trazado_231832" data-name="Trazado 231832" d="M2270.009,232.332a9.511,9.511,0,0,0-5.3,8.524v64.9q1.97-.884,3.88-1.874,3.465-1.791,6.726-3.909V240.856A9.509,9.509,0,0,0,2270.009,232.332Z" transform="translate(-2191.523 -231.338)" fill="#76a8d9"/>
                <path id="Trazado_231833" data-name="Trazado 231833" d="M2237.186,265.911h18.286a18.488,18.488,0,0,0,4.013-.45V240.78a9.511,9.511,0,0,1,5.3-8.524,9.46,9.46,0,0,0-4.216-.994H2195.82a9.456,9.456,0,0,0-4.216.994,9.512,9.512,0,0,1,5.3,8.524V265.8a18.655,18.655,0,0,0,2,.112h21.127" transform="translate(-2186.301 -231.262)" fill="#4a72af"/>
              </g>
            </g>
            <rect id="Rectángulo_49235" data-name="Rectángulo 49235" width="22.484" height="24.446" transform="translate(35.466 91.021)" fill="#f2bb7e"/>
            <path id="Trazado_231834" data-name="Trazado 231834" d="M2228.879,263.647h0a25.4,25.4,0,0,1-25.09-23.4l-2.517-28.506c-1.329-15.049,10.284-28.018,25.09-28.018h5.035c14.805,0,26.419,12.968,25.089,28.018l-2.517,28.506A25.4,25.4,0,0,1,2228.879,263.647Z" transform="translate(-2182.17 -168.218)" fill="#e6c79d"/>
            <path id="Trazado_231835" data-name="Trazado 231835" d="M2202.284,232.973q3.052.361,6.1.721a127.263,127.263,0,0,1,.015-20.705,2.888,2.888,0,0,1,.346-1.362,3.037,3.037,0,0,1,1.808-1.024,49.6,49.6,0,0,0,22.766-14.4,87.228,87.228,0,0,1-3.754,12.435,86.44,86.44,0,0,0,14.629-7.9,12.46,12.46,0,0,1-1.13,4.9,8.853,8.853,0,0,0,7.613-3.574,185.468,185.468,0,0,1-2.993,29.807,19.284,19.284,0,0,0,6.319.26,2.048,2.048,0,0,0,1.177-.422c.377-.353.368-.929.494-1.428A113.006,113.006,0,0,0,2258.861,199c-.035-1.54-2.118-5.721-1.665-7.194.829-2.691,3.219-4.741,3.81-7.494a12.155,12.155,0,0,0-5.25.773,42.117,42.117,0,0,1,1.659-9.253,30.832,30.832,0,0,1-8.793,3.6c-3.616-5.084-8.307-10.119-14.482-11.007a9.349,9.349,0,0,1,1.23,4.774,28.183,28.183,0,0,0-21.288-5.921q1.914,3.589,3.829,7.177a22.785,22.785,0,0,0-14.453-1.734l4.348,4.617a44.023,44.023,0,0,0-13.493,4.572,23.323,23.323,0,0,0,5.926,1.156,128.567,128.567,0,0,0-9.71,17.639,14.566,14.566,0,0,0,7.337-3.015,66.431,66.431,0,0,0-2.068,9.678l5.1,26.111Z" transform="translate(-2181.41 -167.025)" fill="#cc6a02"/>
            <path id="Rectángulo_49236" data-name="Rectángulo 49236" d="M1.2,0H3.576a1.2,1.2,0,0,1,1.2,1.2v9.963a1.2,1.2,0,0,1-1.2,1.2H1.2a1.2,1.2,0,0,1-1.2-1.2V1.2A1.2,1.2,0,0,1,1.2,0Z" transform="translate(79.319 53.882)" fill="#4c5f7a"/>
            <path id="Rectángulo_49237" data-name="Rectángulo 49237" d="M1.2,0H3.577a1.2,1.2,0,0,1,1.2,1.2v9.964a1.2,1.2,0,0,1-1.2,1.2H1.2a1.2,1.2,0,0,1-1.2-1.2V1.2A1.2,1.2,0,0,1,1.2,0Z" transform="translate(14.097 67.551) rotate(180)" fill="#4c5f7a"/>
            <g id="Grupo_161273" data-name="Grupo 161273" transform="translate(13.279 5.774)">
              <path id="Trazado_231836" data-name="Trazado 231836" d="M2259.478,221.2l-4.243-.934c.047-.215,4.621-21.753-5.274-34.05-4.606-5.725-11.762-8.627-21.271-8.627h-1.663c-9.508,0-16.664,2.9-21.271,8.627-9.894,12.3-5.321,33.834-5.274,34.05l-4.242.934c-.212-.964-5.073-23.761,6.122-37.693,5.47-6.808,13.77-10.261,24.665-10.261h1.663c10.9,0,19.194,3.452,24.666,10.261C2264.55,197.437,2259.689,220.234,2259.478,221.2Z" transform="translate(-2195.01 -173.244)" fill="#71849d"/>
            </g>
            <g id="Grupo_161274" data-name="Grupo 161274" transform="translate(57.048 68.361)">
              <path id="Trazado_231837" data-name="Trazado 231837" d="M2245.23,256.871c-.976,0-2-.022-3.085-.068l.11-2.6c14.271.611,17.721-3.2,18.265-3.978v-9.575h2.605v10.142l-.084.225C2262.8,251.643,2260.348,256.871,2245.23,256.871Z" transform="translate(-2242.145 -240.645)" fill="#95a5b5"/>
            </g>
            <path id="Trazado_231838" data-name="Trazado 231838" d="M2245.552,256.51c0,1.475-3.09,2.671-5.209,2.671s-3.208-1.2-3.208-2.671,1.089-2.672,3.208-2.672S2245.552,255.035,2245.552,256.51Z" transform="translate(-2184.74 -173.227)" fill="#353e47"/>
            <g id="Grupo_161275" data-name="Grupo 161275" transform="translate(33.537 50.2)">
              <path id="Trazado_231839" data-name="Trazado 231839" d="M2222.384,232.634a6.5,6.5,0,0,0-.081-.927v-.073c-.02-.124-.049-.241-.076-.36,0-.015-.006-.032-.01-.047a4,4,0,0,0-.685-1.536l-.036-.043a1.96,1.96,0,0,0-.274-.274c-.019-.016-.037-.032-.055-.045a1.341,1.341,0,0,0-.292-.168c-.02-.008-.038-.02-.058-.027a1.059,1.059,0,0,0-.355-.066h0l-.012,0a1.087,1.087,0,0,0-.366.077l-.013.007a2.91,2.91,0,0,0-1.38,2.238v.1a6.407,6.407,0,0,0-.1,1.182,6.549,6.549,0,0,0,.08.926v.074c.021.124.049.241.076.36l.01.047a4,4,0,0,0,.687,1.535c.012.016.023.03.035.044a1.973,1.973,0,0,0,.275.275c.019.015.035.03.054.044a1.337,1.337,0,0,0,.293.168c.02.007.038.02.058.027a1.043,1.043,0,0,0,.356.065h0l.013,0a1.049,1.049,0,0,0,.365-.077l.014-.007a2.909,2.909,0,0,0,1.379-2.237v-.1A6.363,6.363,0,0,0,2222.384,232.634Z" transform="translate(-2216.951 -221.657)" fill="#333233"/>
              <path id="Trazado_231840" data-name="Trazado 231840" d="M2243.145,232.634a6.465,6.465,0,0,0-.081-.927v-.073c-.021-.124-.049-.241-.076-.36,0-.015-.007-.032-.01-.047a4,4,0,0,0-.685-1.536c-.012-.015-.025-.028-.036-.043a1.946,1.946,0,0,0-.274-.274.6.6,0,0,0-.055-.045,1.37,1.37,0,0,0-.292-.168c-.02-.008-.038-.02-.058-.027a1.066,1.066,0,0,0-.356-.066h0l-.011,0a1.085,1.085,0,0,0-.366.077l-.014.007a2.909,2.909,0,0,0-1.378,2.238l0,.1a6.428,6.428,0,0,0-.1,1.182,6.585,6.585,0,0,0,.08.926v.074c.021.124.049.241.077.36l.009.047a4,4,0,0,0,.686,1.535.555.555,0,0,0,.036.044,1.868,1.868,0,0,0,.274.275l.053.044a1.338,1.338,0,0,0,.294.168c.019.007.038.02.057.027a1.042,1.042,0,0,0,.356.065h0l.013,0a1.047,1.047,0,0,0,.364-.077l.015-.007a2.9,2.9,0,0,0,1.378-2.237v-.1A6.259,6.259,0,0,0,2243.145,232.634Z" transform="translate(-2218.435 -221.657)" fill="#333233"/>
              <path id="Trazado_231841" data-name="Trazado 231841" d="M2237.391,221.619l.092-.046c.081-.041.181-.085.294-.129a5.287,5.287,0,0,1,2.365-.333,4.435,4.435,0,0,1,.771.134,6.5,6.5,0,0,1,.753.254,5.976,5.976,0,0,1,1.277.8l.5.453.384.445a6.477,6.477,0,0,1,.513.7l.183.268a.433.433,0,0,1-.666.549l-.033-.033-.207-.209a5.408,5.408,0,0,0-.553-.526c-.121-.1-.25-.2-.388-.315l-.462-.289a4.53,4.53,0,0,0-1.043-.421,4.66,4.66,0,0,0-.541-.075,2.652,2.652,0,0,0-.516.007,3.071,3.071,0,0,0-.877.205,3.022,3.022,0,0,0-.556.274.718.718,0,0,0-.111.078l-.047.035a1.079,1.079,0,0,1-1.3-1.723A1.237,1.237,0,0,1,2237.391,221.619Z" transform="translate(-2218.252 -221.087)" fill="#402d27"/>
              <path id="Trazado_231842" data-name="Trazado 231842" d="M2222.9,223.447l-.046-.035a.678.678,0,0,0-.111-.078,3.019,3.019,0,0,0-.556-.274,3.067,3.067,0,0,0-.877-.205,2.644,2.644,0,0,0-.515-.007,4.63,4.63,0,0,0-.541.075,4.52,4.52,0,0,0-1.044.421l-.461.289-.388.315a5.435,5.435,0,0,0-.554.526l-.207.209-.032.033a.434.434,0,0,1-.667-.549l.184-.268a6.445,6.445,0,0,1,.511-.7l.385-.445.5-.453a5.947,5.947,0,0,1,1.278-.8,6.456,6.456,0,0,1,.753-.254,4.4,4.4,0,0,1,.771-.134,5.287,5.287,0,0,1,2.365.333c.113.045.213.088.293.129l.093.046a1.079,1.079,0,1,1-.961,1.931A1.122,1.122,0,0,1,2222.9,223.447Z" transform="translate(-2216.826 -221.087)" fill="#402d27"/>
            </g>
            <path id="Trazado_231843" data-name="Trazado 231843" d="M2230.809,248.982h0a2.618,2.618,0,0,1-2.617-2.618v-9.89a2.618,2.618,0,0,1,2.617-2.618h0a2.616,2.616,0,0,1,2.616,2.618v9.89A2.617,2.617,0,0,1,2230.809,248.982Z" transform="translate(-2184.101 -171.799)" fill="#c17f7f"/>
            <path id="Trazado_231844" data-name="Trazado 231844" d="M2255.05,287.481v21.006c.056.027,2.012,1.058,4.891,5.189a78.84,78.84,0,0,0,20.093-10.568C2270.888,290.264,2258.585,287.617,2255.05,287.481Z" transform="translate(-2186.019 -175.63)" fill="#d6d7db"/>
            <path id="Trazado_231845" data-name="Trazado 231845" d="M2205.095,308.487V287.481c-3.458.134-15.31,2.663-24.386,14.8a78.944,78.944,0,0,0,19.846,10.9C2203.241,309.461,2205.041,308.513,2205.095,308.487Z" transform="translate(-2180.709 -175.63)" fill="#d6d7db"/>
            <path id="Trazado_231846" data-name="Trazado 231846" d="M2236.655,284.225v7.134h-17.726v-7.127c-13.223.828-23.294,4.792-28.644,23.624a79.185,79.185,0,0,0,75.426,1.047C2260.424,289.109,2250.181,285.05,2236.655,284.225Z" transform="translate(-2181.393 -175.397)" fill="#ebecee"/>
            <path id="Trazado_231847" data-name="Trazado 231847" d="M2243.795,279.252l-11.858,8.638,7.848,7.225,8.9-10.055Z" transform="translate(-2184.368 -175.042)" fill="#d6d7db"/>
            <path id="Trazado_231848" data-name="Trazado 231848" d="M2216.264,279.252l11.858,8.638-7.848,7.225-8.9-10.055Z" transform="translate(-2182.899 -175.042)" fill="#d6d7db"/>
            <path id="Trazado_231849" data-name="Trazado 231849" d="M2233.008,300.92l-1.5,0v-.02h-4.035l-2.664,11.37v6.586c2.182.181,4.387.278,6.617.278q2.108,0,4.188-.111v-6.772Z" transform="translate(-2183.859 -176.589)" fill="#76cec5"/>
            <path id="Trazado_231850" data-name="Trazado 231850" d="M2231.264,288.514l5.324,4.9-3.273,8.471-4.349.006,0-.02h-2.019l-3.288-8.468,5.314-4.908Z" transform="translate(-2183.777 -175.702)" fill="#6ea6a1"/>
            <path id="Trazado_231851" data-name="Trazado 231851" d="M2218.1,252.306a4.661,4.661,0,0,0,.3.615,6.789,6.789,0,0,0,.436.662,7,7,0,0,0,.653.778,6.585,6.585,0,0,0,.906.768,7.857,7.857,0,0,0,1.12.69,10.158,10.158,0,0,0,1.324.5l.7.2.738.126a8.8,8.8,0,0,0,1.492.152,9.554,9.554,0,0,0,1.474.026,11.254,11.254,0,0,0,1.395-.043l1.265-.075c.4,0,.754-.08,1.077-.1l.842-.067c.469-.033.744-.033.744-.033h.026a.333.333,0,0,1,.141.634s-.25.117-.7.29c-.227.083-.5.185-.818.3a9.694,9.694,0,0,1-1.083.334l-1.32.276a10.7,10.7,0,0,1-1.505.172,9.972,9.972,0,0,1-1.634.012,10.366,10.366,0,0,1-1.7-.207l-.848-.172-.819-.287a8.945,8.945,0,0,1-1.535-.716,8.682,8.682,0,0,1-1.267-.967,7.834,7.834,0,0,1-.947-1.061,7.591,7.591,0,0,1-.6-1.032,6.6,6.6,0,0,1-.335-.85c-.067-.248-.113-.437-.136-.583a1.626,1.626,0,0,1-.031-.205l0-.075a.323.323,0,0,1,.641-.075Z" transform="translate(-2183.334 -173.098)" fill="#d38862"/>
            <path id="Rectángulo_49238" data-name="Rectángulo 49238" d="M1.856,0H5.528A1.855,1.855,0,0,1,7.383,1.855v15.4a1.857,1.857,0,0,1-1.857,1.857H1.856A1.856,1.856,0,0,1,0,17.255V1.856A1.856,1.856,0,0,1,1.856,0Z" transform="translate(73.094 50.51)" fill="#404c56"/>
            <rect id="Rectángulo_49239" data-name="Rectángulo 49239" width="7.383" height="19.11" rx="1.855" transform="translate(20.323 70.923) rotate(180)" fill="#404c56"/>
          </g>
        </g>
        <g id="Grupo_161278" data-name="Grupo 161278" transform="translate(10.188 103.712)">
          <path id="Trazado_231852" data-name="Trazado 231852" d="M2141.19,226.571c10.356,0,18.752,6.423,18.752,14.345a11.2,11.2,0,0,1-.668,3.8.745.745,0,0,0,.027.585,28.17,28.17,0,0,0,7.445,9.575.755.755,0,0,1-.434,1.356c-3.531.1-10.454-.074-16.069-2.514a.731.731,0,0,0-.558-.011,23.447,23.447,0,0,1-8.5,1.557c-10.357,0-18.753-6.423-18.753-14.345S2130.833,226.571,2141.19,226.571Z" transform="translate(-2122.437 -226.571)" fill="#ebecee"/>
          <path id="Trazado_231853" data-name="Trazado 231853" d="M2147.154,242.37a2.379,2.379,0,1,0,2.379-2.38A2.379,2.379,0,0,0,2147.154,242.37Z" transform="translate(-2124.203 -227.53)" fill="#9383a8"/>
          <circle id="Elipse_6702" data-name="Elipse 6702" cx="2.379" cy="2.379" r="2.379" transform="translate(15.412 12.461)" fill="#9383a8"/>
          <path id="Trazado_231854" data-name="Trazado 231854" d="M2130.915,242.37a2.379,2.379,0,1,0,2.38-2.38A2.38,2.38,0,0,0,2130.915,242.37Z" transform="translate(-2123.043 -227.53)" fill="#9383a8"/>
        </g>
      </g>
    </g>
  </g>
</svg>
