<svg xmlns="http://www.w3.org/2000/svg" width="136.973" height="136.973" viewBox="0 0 136.973 136.973">
  <g id="Grupo_161350" data-name="Grupo 161350" transform="translate(4145 8041)">
    <g id="Trazado_231508" data-name="Trazado 231508" transform="translate(-4145 -8041)" fill="#fff">
      <path d="M 68.48631286621094 131.9726409912109 C 59.91350936889648 131.9726409912109 51.59981155395508 130.2947692871094 43.77611541748047 126.9856185913086 C 40.01535797119141 125.3949661254883 36.38774871826172 123.4259033203125 32.9940071105957 121.1331405639648 C 29.6312255859375 118.8612899780273 26.46885681152344 116.2520523071289 23.5947265625 113.3779220581055 C 20.72059631347656 110.503791809082 18.11135673522949 107.341423034668 15.83950805664062 103.9786376953125 C 13.5467472076416 100.5848999023438 11.57768249511719 96.95726776123047 9.987030029296875 93.196533203125 C 6.677877902984619 85.37283325195312 5.000008583068848 77.05912017822266 5.000008583068848 68.48631286621094 C 5.000008583068848 59.91350936889648 6.677877902984619 51.59981155395508 9.987030029296875 43.77611541748047 C 11.57768249511719 40.01535797119141 13.5467472076416 36.38774871826172 15.83950805664062 32.9940071105957 C 18.11135673522949 29.6312255859375 20.72059631347656 26.46885681152344 23.5947265625 23.5947265625 C 26.46885681152344 20.72059631347656 29.6312255859375 18.11135673522949 32.9940071105957 15.83950805664062 C 36.38774871826172 13.5467472076416 40.01535797119141 11.57768249511719 43.77611541748047 9.987030029296875 C 51.59981155395508 6.677877902984619 59.91350936889648 5.000008583068848 68.48631286621094 5.000008583068848 C 77.05912017822266 5.000008583068848 85.37283325195312 6.677877902984619 93.196533203125 9.987030029296875 C 96.95726776123047 11.57768249511719 100.5848999023438 13.5467472076416 103.9786376953125 15.83950805664062 C 107.341423034668 18.11135673522949 110.503791809082 20.72059631347656 113.3779220581055 23.5947265625 C 116.2520523071289 26.46885681152344 118.8612899780273 29.6312255859375 121.1331405639648 32.9940071105957 C 123.4259033203125 36.38774871826172 125.3949661254883 40.01535797119141 126.9856185913086 43.77611541748047 C 130.2947692871094 51.59981155395508 131.9726409912109 59.91350936889648 131.9726409912109 68.48631286621094 C 131.9726409912109 77.05912017822266 130.2947692871094 85.37283325195312 126.9856185913086 93.196533203125 C 125.3949661254883 96.95726776123047 123.4259033203125 100.5848999023438 121.1331405639648 103.9786376953125 C 118.8612899780273 107.341423034668 116.2520523071289 110.503791809082 113.3779220581055 113.3779220581055 C 110.503791809082 116.2520523071289 107.341423034668 118.8612899780273 103.9786376953125 121.1331405639648 C 100.5848999023438 123.4259033203125 96.95726776123047 125.3949661254883 93.196533203125 126.9856185913086 C 85.37283325195312 130.2947692871094 77.05912017822266 131.9726409912109 68.48631286621094 131.9726409912109 Z" stroke="none"/>
      <path d="M 68.48631286621094 10.00000762939453 C 36.23686981201172 10.00000762939453 10.00000762939453 36.23686981201172 10.00000762939453 68.48631286621094 C 10.00000762939453 100.7357559204102 36.23686981201172 126.9726181030273 68.48631286621094 126.9726181030273 C 100.7357559204102 126.9726181030273 126.9726181030273 100.7357559204102 126.9726181030273 68.48631286621094 C 126.9726181030273 36.23686981201172 100.7357559204102 10.00000762939453 68.48631286621094 10.00000762939453 M 68.48631286621094 0 C 106.3102569580078 0 136.9726257324219 30.66236877441406 136.9726257324219 68.48631286621094 C 136.9726257324219 106.3102569580078 106.3102569580078 136.9726257324219 68.48631286621094 136.9726257324219 C 30.66236877441406 136.9726257324219 0 106.3102569580078 0 68.48631286621094 C 0 30.66236877441406 30.66236877441406 0 68.48631286621094 0 Z" stroke="none" fill="#8c6df2"/>
    </g>
    <circle id="Elipse_4752" data-name="Elipse 4752" cx="60.161" cy="60.161" r="60.161" transform="translate(-4137 -8033)" fill="#fedc72"/>
    <g id="Grupo_161237" data-name="Grupo 161237" transform="translate(-5000.683 -8633.699)">
      <g id="Grupo_161236" data-name="Grupo 161236">
        <g id="Grupo_161235" data-name="Grupo 161235">
          <path id="Trazado_231743" data-name="Trazado 231743" d="M920.119,694.757a3.913,3.913,0,0,1-3.908-3.909l0-6.064a25.1,25.1,0,0,1-4.138-1.716l-4.29,4.289a3.911,3.911,0,0,1-5.529,0l-5.116-5.119a3.906,3.906,0,0,1,0-5.529l4.286-4.287a25.009,25.009,0,0,1-1.715-4.141h-6.065a3.914,3.914,0,0,1-3.909-3.911v-7.235a3.914,3.914,0,0,1,3.909-3.91h6.064a25.212,25.212,0,0,1,1.717-4.141l-4.288-4.289a3.9,3.9,0,0,1,0-5.529l5.113-5.115a3.909,3.909,0,0,1,5.532,0l4.287,4.285a24.961,24.961,0,0,1,4.139-1.715v-6.065a3.914,3.914,0,0,1,3.91-3.909h7.237a3.912,3.912,0,0,1,3.908,3.909l0,6.065a24.952,24.952,0,0,1,4.141,1.716l4.29-4.288a3.9,3.9,0,0,1,5.529,0l5.115,5.113a3.905,3.905,0,0,1,0,5.528l-4.287,4.289a25.123,25.123,0,0,1,1.715,4.14h6.064a3.914,3.914,0,0,1,3.909,3.91v7.235a3.914,3.914,0,0,1-3.909,3.911h-6.064a25.105,25.105,0,0,1-1.715,4.139l4.289,4.29a3.907,3.907,0,0,1,0,5.53l-5.117,5.116a3.9,3.9,0,0,1-5.526,0l-4.289-4.287a25.188,25.188,0,0,1-4.141,1.715v6.064a3.914,3.914,0,0,1-3.91,3.909Zm3.618-42.923a8.919,8.919,0,1,0,8.921,8.92A8.93,8.93,0,0,0,923.737,651.834Z" fill="#c184bf"/>
          <path id="Trazado_231744" data-name="Trazado 231744" d="M927.356,628.8a1.857,1.857,0,0,1,1.857,1.858l0,6.693a1.224,1.224,0,0,0,.895,1.167,22.9,22.9,0,0,1,4.838,2,1.276,1.276,0,0,0,.616.159,1.187,1.187,0,0,0,.848-.347l4.735-4.732a1.853,1.853,0,0,1,2.625,0l5.119,5.117a1.855,1.855,0,0,1,0,2.627l-4.732,4.733a1.209,1.209,0,0,0-.2,1.442,23.027,23.027,0,0,1,2.016,4.859,1.221,1.221,0,0,0,1.168.9h6.691a1.858,1.858,0,0,1,1.858,1.859v7.235a1.858,1.858,0,0,1-1.858,1.86h-6.691a1.22,1.22,0,0,0-1.168.895,22.915,22.915,0,0,1-2,4.837,1.23,1.23,0,0,0,.19,1.465l4.732,4.733a1.855,1.855,0,0,1,0,2.627l-5.119,5.119a1.855,1.855,0,0,1-2.625,0l-4.735-4.734a1.208,1.208,0,0,0-1.441-.2,23.075,23.075,0,0,1-4.859,2.015,1.222,1.222,0,0,0-.9,1.167v6.692a1.858,1.858,0,0,1-1.859,1.858h-7.237a1.858,1.858,0,0,1-1.857-1.858l0-6.692a1.223,1.223,0,0,0-.894-1.167,22.987,22.987,0,0,1-4.836-2,1.28,1.28,0,0,0-.618-.16,1.191,1.191,0,0,0-.847.347l-4.735,4.734a1.859,1.859,0,0,1-2.628,0l-5.116-5.119a1.857,1.857,0,0,1,0-2.627l4.733-4.733a1.21,1.21,0,0,0,.2-1.442,22.883,22.883,0,0,1-2.014-4.859,1.225,1.225,0,0,0-1.168-.9h-6.693a1.86,1.86,0,0,1-1.858-1.86v-7.235a1.86,1.86,0,0,1,1.858-1.859h6.693a1.221,1.221,0,0,0,1.166-.9,23.119,23.119,0,0,1,2-4.837,1.231,1.231,0,0,0-.187-1.465l-4.733-4.733a1.857,1.857,0,0,1,0-2.627L903.7,635.6a1.857,1.857,0,0,1,2.628,0l4.735,4.732a1.193,1.193,0,0,0,.851.353,1.219,1.219,0,0,0,.59-.153,22.986,22.986,0,0,1,4.858-2.015,1.222,1.222,0,0,0,.9-1.167v-6.693a1.86,1.86,0,0,1,1.859-1.858h7.237m-3.619,42.923a10.97,10.97,0,1,0-10.969-10.97,10.97,10.97,0,0,0,10.969,10.97m3.619-47.025h-7.237a5.967,5.967,0,0,0-5.961,5.96v4.6q-.848.32-1.673.693L909.23,632.7a5.957,5.957,0,0,0-8.429,0l-5.116,5.118a5.957,5.957,0,0,0,0,8.429l3.252,3.253q-.375.825-.694,1.673h-4.6a5.968,5.968,0,0,0-5.96,5.962v7.235a5.968,5.968,0,0,0,5.96,5.962h4.6q.318.848.693,1.674l-3.253,3.254a5.958,5.958,0,0,0,0,8.432l5.111,5.114a5.962,5.962,0,0,0,8.433,0l3.253-3.252c.549.25,1.108.481,1.673.693v4.6a5.966,5.966,0,0,0,5.959,5.96h7.237a5.968,5.968,0,0,0,5.961-5.961v-4.6q.849-.318,1.674-.693l3.255,3.255a5.958,5.958,0,0,0,8.433-.007l5.112-5.111a5.958,5.958,0,0,0,0-8.431l-3.253-3.253q.375-.825.693-1.673h4.6a5.968,5.968,0,0,0,5.96-5.962v-7.235a5.968,5.968,0,0,0-5.96-5.962h-4.6q-.318-.846-.693-1.672l3.255-3.256a5.957,5.957,0,0,0,0-8.431l-5.116-5.114a5.953,5.953,0,0,0-8.43,0l-3.25,3.249q-.827-.375-1.675-.693l0-4.6a5.966,5.966,0,0,0-5.959-5.959Zm-3.619,42.922a6.867,6.867,0,1,1,6.87-6.867,6.875,6.875,0,0,1-6.87,6.867Z" fill="#5b3c9e"/>
        </g>
        <path id="Trazado_231745" data-name="Trazado 231745" d="M923.828,671.719c-.029,0-.058.005-.091.005a10.97,10.97,0,0,1,0-21.94c.033,0,.062,0,.091,0V628.8h-3.709a1.86,1.86,0,0,0-1.859,1.858v6.693a1.222,1.222,0,0,1-.9,1.167,22.986,22.986,0,0,0-4.858,2.015,1.208,1.208,0,0,1-1.441-.2L906.33,635.6a1.856,1.856,0,0,0-2.628,0l-5.116,5.117a1.857,1.857,0,0,0,0,2.627l4.733,4.733a1.231,1.231,0,0,1,.187,1.465,23.119,23.119,0,0,0-2,4.837,1.221,1.221,0,0,1-1.166.9h-6.693a1.86,1.86,0,0,0-1.858,1.859v7.235a1.86,1.86,0,0,0,1.858,1.86h6.693a1.225,1.225,0,0,1,1.168.9,22.883,22.883,0,0,0,2.014,4.859,1.21,1.21,0,0,1-.2,1.442l-4.733,4.733a1.857,1.857,0,0,0,0,2.627l5.116,5.119a1.859,1.859,0,0,0,2.628,0l4.735-4.734a1.227,1.227,0,0,1,1.465-.187,22.987,22.987,0,0,0,4.836,2,1.223,1.223,0,0,1,.894,1.167l0,6.692a1.858,1.858,0,0,0,1.857,1.858h3.709Z" fill="#fcdb72"/>
      </g>
      <path id="Trazado_231746" data-name="Trazado 231746" d="M924.912,644.041a15.84,15.84,0,0,1,15.84,15.84" fill="none" stroke="#fff" stroke-linecap="round" stroke-linejoin="round" stroke-width="4.6"/>
    </g>
  </g>
</svg>
