<svg xmlns="http://www.w3.org/2000/svg" width="294" height="165.32" viewBox="0 0 294 165.32">
  <g id="Grupo_161411" data-name="Grupo 161411" transform="translate(-286.828 -6298)">
    <g id="Grupo_80569" data-name="Grupo 80569" transform="translate(-104.172 2189)">
      <rect id="Imagen_5" data-name="Imagen 5" width="294" height="165.32" rx="19" transform="translate(391 4109)" fill="#5038a1"/>
    </g>
    <g id="Grupo_138300" data-name="Grupo 138300" transform="translate(376.377 6321)">
      <g id="Grupo_89571" data-name="Grupo 89571" transform="translate(0 0)">
        <g id="Trazado_137458" data-name="Trazado 137458" transform="translate(0 0)" fill="#fff">
          <path d="M 59.22535705566406 113.45068359375 C 51.90277862548828 113.45068359375 44.80189895629883 112.0176620483398 38.11993789672852 109.1914443969727 C 34.90793609619141 107.8328857421875 31.80957794189453 106.1511077880859 28.91093635559082 104.1928024291992 C 26.03853797912598 102.2522659301758 23.3372974395752 100.0235061645508 20.88223648071289 97.56844329833984 C 18.42717742919922 95.1134033203125 16.19843673706055 92.41216278076172 14.25787734985352 89.53976440429688 C 12.29957675933838 86.64112854003906 10.61779689788818 83.54276275634766 9.259237289428711 80.33076477050781 C 6.433017253875732 73.6488037109375 4.999997138977051 66.54792785644531 4.999997138977051 59.22534561157227 C 4.999997138977051 51.90276718139648 6.433017253875732 44.80188751220703 9.259237289428711 38.11992645263672 C 10.61779689788818 34.90792465209961 12.29957675933838 31.80956649780273 14.25787734985352 28.91092491149902 C 16.19843673706055 26.03852653503418 18.42717742919922 23.3372859954834 20.88223648071289 20.88224601745605 C 23.3372974395752 18.42718505859375 26.03853797912598 16.19842529296875 28.91093635559082 14.25788593292236 C 31.80957794189453 12.29958534240723 34.90793609619141 10.61780548095703 38.11993789672852 9.259245872497559 C 44.80189895629883 6.43302583694458 51.90277862548828 5.000005722045898 59.22535705566406 5.000005722045898 C 66.54793548583984 5.000005722045898 73.64881896972656 6.43302583694458 80.33078002929688 9.259245872497559 C 83.54277801513672 10.61780548095703 86.64113616943359 12.29958534240723 89.53977966308594 14.25788593292236 C 92.41217803955078 16.19842529296875 95.11341857910156 18.42718505859375 97.56847381591797 20.88224601745605 C 100.0235366821289 23.3372859954834 102.2522735595703 26.03852653503418 104.1928405761719 28.91092491149902 C 106.1511383056641 31.80956649780273 107.8329162597656 34.90792465209961 109.1914749145508 38.11992645263672 C 112.0177001953125 44.80188751220703 113.4507141113281 51.90276718139648 113.4507141113281 59.22534561157227 C 113.4507141113281 66.54792785644531 112.0177001953125 73.6488037109375 109.1914749145508 80.33076477050781 C 107.8329162597656 83.54276275634766 106.1511383056641 86.64112854003906 104.1928405761719 89.53976440429688 C 102.2522735595703 92.41216278076172 100.0235366821289 95.1134033203125 97.56847381591797 97.56844329833984 C 95.11341857910156 100.0235061645508 92.41217803955078 102.2522659301758 89.53977966308594 104.1928024291992 C 86.64113616943359 106.1511077880859 83.54277801513672 107.8328857421875 80.33078002929688 109.1914443969727 C 73.64881896972656 112.0176620483398 66.54793548583984 113.45068359375 59.22535705566406 113.45068359375 Z" stroke="none"/>
          <path d="M 59.22535705566406 9.999992370605469 C 32.08240509033203 9.999992370605469 10.00000762939453 32.0823974609375 10.00000762939453 59.22534561157227 C 10.00000762939453 86.36829376220703 32.08240509033203 108.4506988525391 59.22535705566406 108.4506988525391 C 86.36830139160156 108.4506988525391 108.4507064819336 86.36829376220703 108.4507064819336 59.22534561157227 C 108.4507064819336 32.0823974609375 86.36830139160156 9.999992370605469 59.22535705566406 9.999992370605469 M 59.22535705566406 -7.62939453125e-06 C 91.93463134765625 -7.62939453125e-06 118.4507064819336 26.51609802246094 118.4507064819336 59.22534561157227 C 118.4507064819336 91.93459320068359 91.93463134765625 118.4506988525391 59.22535705566406 118.4506988525391 C 26.51610565185547 118.4506988525391 7.62939453125e-06 91.93459320068359 7.62939453125e-06 59.22534561157227 C 7.62939453125e-06 26.51609802246094 26.51610565185547 -7.62939453125e-06 59.22535705566406 -7.62939453125e-06 Z" stroke="none" fill="#8c6df2"/>
        </g>
      </g>
      <g id="Grupo_136927" data-name="Grupo 136927" transform="translate(32.862 28.537)">
        <path id="Trazado_137471" data-name="Trazado 137471" d="M39.73,130.323a5.171,5.171,0,0,1-3.454-4.87c-.02-2.872-.006-5.744-.006-8.617q.013-16.841-.011-33.68a2.237,2.237,0,0,1,.707-1.717q6.15-6.155,12.3-12.306c.253-.253.547-.463.822-.693H78.449a12.042,12.042,0,0,1,1.239.435,5.061,5.061,0,0,1,3.117,4.856c.02,5.342.007,10.684.007,16.026v35.15c0,3.052-1.325,4.8-4.274,5.633-.034.009-.059.051-.088.077H40.634C40.332,130.52,40.029,130.423,39.73,130.323Zm16.7-14.986M46.012,89.175h-.486c-.919.016-1.5.528-1.493,1.3s.6,1.278,1.523,1.278H73.529a1.351,1.351,0,0,0,1.5-1.037,1.233,1.233,0,0,0-.707-1.4,2.62,2.62,0,0,0-.943-.137q-6.933-.006-13.866-.006ZM45.9,96.944c-.223,0-.446-.007-.667.012a1.27,1.27,0,0,0-1.2,1.22,1.3,1.3,0,0,0,1.151,1.336,4.439,4.439,0,0,0,.545.012H73.339a4.05,4.05,0,0,0,.6-.017,1.3,1.3,0,0,0,1.108-1.314,1.27,1.27,0,0,0-1.181-1.234c-.221-.021-.444-.014-.666-.014H45.9Zm8.5,7.773c-2.929,0-5.856-.009-8.789.005a2.165,2.165,0,0,0-1.076.285,1.111,1.111,0,0,0-.463,1.282,1.262,1.262,0,0,0,1.043.979,2.481,2.481,0,0,0,.485.022H63.163c.984,0,1.606-.56,1.545-1.377,0-.022,0-.045-.007-.067a1.308,1.308,0,0,0-1.464-1.131H54.392ZM66,81.4q-3.778,0-7.571,0a1.311,1.311,0,0,0-1.391.847,1.288,1.288,0,0,0,1.174,1.721c.6.033,1.211.009,1.816.009H73.283c.182,0,.365.009.545-.007a1.3,1.3,0,0,0,1.223-1.331A1.251,1.251,0,0,0,73.8,81.41c-1.028-.028-2.058-.013-3.087-.013H65.994Zm-25.07,0H44.3c.747,0,1.495.02,2.242,0h.033a2.538,2.538,0,0,0,2.611-2.463c.067-1.956.016-3.918.016-5.82Z" transform="translate(-36.258 -68.439)" fill="#8c6df2"/>
        <g id="Grupo_136930" data-name="Grupo 136930" transform="translate(18.993 15.066)">
          <g id="Grupo_136927-2" data-name="Grupo 136927" transform="translate(0 0)">
            <path id="Trazado_190918" data-name="Trazado 190918" d="M111.119,97.524,75.286,131.655,72.6,140.076l8.6-2.329,35.654-34.937Z" transform="translate(-71.335 -96.378)" fill="#fff"/>
            <path id="Trazado_190919" data-name="Trazado 190919" d="M70.332,140.374l3.219-10.087,36.555-34.819,6.956,6.413L80.624,137.587Zm4.682-9.171-2.155,6.755,6.907-1.871,34.869-34.169-4.51-4.158Z" transform="translate(-70.332 -95.468)" fill="#8c6df2"/>
          </g>
          <g id="Grupo_136928" data-name="Grupo 136928" transform="translate(34.737 4.252)">
            <path id="Trazado_190920" data-name="Trazado 190920" d="M139.132,110.143a.836.836,0,0,1-.577-.231l-5.644-5.375a.836.836,0,1,1,1.154-1.211l5.644,5.375a.836.836,0,0,1-.577,1.441Z" transform="translate(-132.652 -103.096)" fill="#8c6df2"/>
          </g>
          <g id="Grupo_136929" data-name="Grupo 136929" transform="translate(6.34 7.208)">
            <path id="Trazado_190921" data-name="Trazado 190921" d="M82.542,139.723a.836.836,0,0,1-.584-1.435l30.458-29.652a.836.836,0,0,1,1.167,1.2L83.125,139.486A.833.833,0,0,1,82.542,139.723Z" transform="translate(-81.705 -108.399)" fill="#8c6df2"/>
          </g>
        </g>
      </g>
    </g>
  </g>
</svg>
