<svg xmlns="http://www.w3.org/2000/svg" xmlns:xlink="http://www.w3.org/1999/xlink" width="295" height="166" viewBox="0 0 295 166">
  <defs>
    <clipPath id="clip-path">
      <rect id="Imagen_35" data-name="Imagen 35" width="295" height="166" rx="19" transform="translate(916 4948.888)" fill="#5038a1"/>
    </clipPath>
  </defs>
  <g id="Grupo_161413" data-name="Grupo 161413" transform="translate(-1021.997 -6538)">
    <g id="Grupo_80542" data-name="Grupo 80542" transform="translate(105.997 1601.112)">
      <rect id="Imagen_4" data-name="Imagen 4" width="295" height="166" rx="19" transform="translate(916 4936.888)" fill="#5038a1"/>
    </g>
    <g id="Grupo_161377" data-name="Grupo 161377" transform="translate(1110.271 6562)">
      <g id="Trazado_137458" data-name="Trazado 137458" transform="translate(0 0)" fill="#fff">
        <path d="M 59.22535705566406 113.45068359375 C 51.90277862548828 113.45068359375 44.80189895629883 112.0176620483398 38.11993789672852 109.1914443969727 C 34.90793609619141 107.8328857421875 31.80957794189453 106.1511077880859 28.91093635559082 104.1928024291992 C 26.03853797912598 102.2522659301758 23.3372974395752 100.0235061645508 20.88223648071289 97.56844329833984 C 18.42717742919922 95.1134033203125 16.19843673706055 92.41216278076172 14.25787734985352 89.53976440429688 C 12.29957675933838 86.64112854003906 10.61779689788818 83.54276275634766 9.259237289428711 80.33076477050781 C 6.433017253875732 73.6488037109375 4.999997138977051 66.54792785644531 4.999997138977051 59.22534561157227 C 4.999997138977051 51.90276718139648 6.433017253875732 44.80188751220703 9.259237289428711 38.11992645263672 C 10.61779689788818 34.90792465209961 12.29957675933838 31.80956649780273 14.25787734985352 28.91092491149902 C 16.19843673706055 26.03852653503418 18.42717742919922 23.3372859954834 20.88223648071289 20.88224601745605 C 23.3372974395752 18.42718505859375 26.03853797912598 16.19842529296875 28.91093635559082 14.25788593292236 C 31.80957794189453 12.29958534240723 34.90793609619141 10.61780548095703 38.11993789672852 9.259245872497559 C 44.80189895629883 6.43302583694458 51.90277862548828 5.000005722045898 59.22535705566406 5.000005722045898 C 66.54793548583984 5.000005722045898 73.64881896972656 6.43302583694458 80.33078002929688 9.259245872497559 C 83.54277801513672 10.61780548095703 86.64113616943359 12.29958534240723 89.53977966308594 14.25788593292236 C 92.41217803955078 16.19842529296875 95.11341857910156 18.42718505859375 97.56847381591797 20.88224601745605 C 100.0235366821289 23.3372859954834 102.2522735595703 26.03852653503418 104.1928405761719 28.91092491149902 C 106.1511383056641 31.80956649780273 107.8329162597656 34.90792465209961 109.1914749145508 38.11992645263672 C 112.0177001953125 44.80188751220703 113.4507141113281 51.90276718139648 113.4507141113281 59.22534561157227 C 113.4507141113281 66.54792785644531 112.0177001953125 73.6488037109375 109.1914749145508 80.33076477050781 C 107.8329162597656 83.54276275634766 106.1511383056641 86.64112854003906 104.1928405761719 89.53976440429688 C 102.2522735595703 92.41216278076172 100.0235366821289 95.1134033203125 97.56847381591797 97.56844329833984 C 95.11341857910156 100.0235061645508 92.41217803955078 102.2522659301758 89.53977966308594 104.1928024291992 C 86.64113616943359 106.1511077880859 83.54277801513672 107.8328857421875 80.33078002929688 109.1914443969727 C 73.64881896972656 112.0176620483398 66.54793548583984 113.45068359375 59.22535705566406 113.45068359375 Z" stroke="none"/>
        <path d="M 59.22535705566406 9.999992370605469 C 32.08240509033203 9.999992370605469 10.00000762939453 32.0823974609375 10.00000762939453 59.22534561157227 C 10.00000762939453 86.36829376220703 32.08240509033203 108.4506988525391 59.22535705566406 108.4506988525391 C 86.36830139160156 108.4506988525391 108.4507064819336 86.36829376220703 108.4507064819336 59.22534561157227 C 108.4507064819336 32.0823974609375 86.36830139160156 9.999992370605469 59.22535705566406 9.999992370605469 M 59.22535705566406 -7.62939453125e-06 C 91.93463134765625 -7.62939453125e-06 118.4507064819336 26.51609802246094 118.4507064819336 59.22534561157227 C 118.4507064819336 91.93459320068359 91.93463134765625 118.4506988525391 59.22535705566406 118.4506988525391 C 26.51610565185547 118.4506988525391 7.62939453125e-06 91.93459320068359 7.62939453125e-06 59.22534561157227 C 7.62939453125e-06 26.51609802246094 26.51610565185547 -7.62939453125e-06 59.22535705566406 -7.62939453125e-06 Z" stroke="none" fill="#8c6df2"/>
      </g>
      <g id="Grupo_161281" data-name="Grupo 161281" transform="translate(27.886 23.471)">
        <path id="Trazado_231855" data-name="Trazado 231855" d="M2448.84,354.2h-32.883c-3.03,0-4.772,1.737-4.773,4.759q0,13.134,0,26.267t0,26.267c0,3.021,1.744,4.761,4.771,4.762h32.884c3.034,0,4.773-1.734,4.773-4.76q0-26.267,0-52.534C2453.612,355.933,2451.876,354.2,2448.84,354.2Zm-2.343,33.033c-.047,0-.095,0-.142,0h-1.138v-.008c-.451,0-.9.025-1.351-.006a1.087,1.087,0,0,1-1.043-1.059,1.072,1.072,0,0,1,1.067-1.1q1.314-.044,2.631,0a1.07,1.07,0,0,1,1.079,1.091A1.115,1.115,0,0,1,2446.5,387.234Zm.029,6.931c-.448.036-.9.007-1.351.007-.427,0-.856.029-1.28-.007a1.1,1.1,0,0,1-1.064-1.12,1.048,1.048,0,0,1,1.03-1.074,23.774,23.774,0,0,1,2.7,0,1.047,1.047,0,0,1,1.029,1.075A1.1,1.1,0,0,1,2446.527,394.166Zm-1.281-21.987a.921.921,0,0,1-.268,0Zm1.3,8.123c-.9.041-1.8.041-2.7,0a1.073,1.073,0,0,1-1.022-1.079,1.13,1.13,0,0,1,1.086-1.1c.047,0,.095,0,.142,0h1.209v0c.4,0,.807-.018,1.209,0a1.124,1.124,0,0,1,1.129,1.06A1.082,1.082,0,0,1,2446.549,380.3Zm-1.341-17.853h-.229A.917.917,0,0,1,2445.207,362.449Zm-5.665,0h-.229A.9.9,0,0,1,2439.543,362.449Zm-16.239,9.73a1.118,1.118,0,0,1-.24,0Zm-5.2,5.959a2.131,2.131,0,0,1,.5-.028q8.5,0,16.992,0a2.078,2.078,0,0,1,.495.024,1.044,1.044,0,0,1,.9,1.108,1,1,0,0,1-.881,1.039,4.233,4.233,0,0,1-.779.042q-4.124,0-8.247,0t-8.247,0a3.914,3.914,0,0,1-.708-.037,1.028,1.028,0,0,1-.912-1.1A1.053,1.053,0,0,1,2418.1,378.138Zm18.885,7.969a1.037,1.037,0,0,1-1.036,1.117c-1.113.033-2.227.015-3.341.015q-2.736,0-5.474,0c-2.867,0-5.735,0-8.6,0a1.159,1.159,0,0,1-1.252-.722,1.069,1.069,0,0,1,.76-1.433,3.077,3.077,0,0,1,.637-.035q8.424,0,16.848,0c.142,0,.285,0,.426.008A1.048,1.048,0,0,1,2436.984,386.107Zm-18.964,5.909a2.952,2.952,0,0,1,.773-.067q8.318-.005,16.638,0a2.936,2.936,0,0,1,.705.052,1.094,1.094,0,0,1-.024,2.135,3.031,3.031,0,0,1-.707.043q-4.159,0-8.319,0c-2.821,0-5.641.025-8.461-.026a1.875,1.875,0,0,1-1.255-.583A1.009,1.009,0,0,1,2418.021,392.016Zm18.961,8a1,1,0,0,1-.888,1.032,4.036,4.036,0,0,1-.708.03q-4.124,0-8.246,0-4.159,0-8.317,0a4.517,4.517,0,0,1-.709-.029,1,1,0,0,1-.9-1.027,1.037,1.037,0,0,1,.9-1.112,2.628,2.628,0,0,1,.567-.024q8.424,0,16.848,0a2.332,2.332,0,0,1,.636.036A1.027,1.027,0,0,1,2436.981,400.016Zm-1.24,8c-.166.005-.332,0-.5,0h-16.422a4.831,4.831,0,0,1-.639-.014,1.091,1.091,0,0,1-.98-1.12,1.045,1.045,0,0,1,.972-1.046,5.05,5.05,0,0,1,.638-.021h16.564c.118,0,.237,0,.355,0,.82.031,1.271.437,1.253,1.129C2436.969,407.592,2436.508,407.989,2435.741,408.013Zm3.559-35.834h.23A.932.932,0,0,1,2439.3,372.179ZM2446.558,408c-.447.033-.9.007-1.351.007s-.9.027-1.35-.007a1.1,1.1,0,0,1-1.033-1.075,1.061,1.061,0,0,1,1.007-1.086c.922-.039,1.849-.04,2.771,0a1.06,1.06,0,0,1,1,1.093A1.1,1.1,0,0,1,2446.558,408Zm.03-6.944c-.923.036-1.85.037-2.772,0a1.056,1.056,0,0,1-.992-1.1,1.094,1.094,0,0,1,1.047-1.057c.448-.03.9-.006,1.351-.006s.9-.026,1.351.008a1.093,1.093,0,0,1,1.028,1.075A1.058,1.058,0,0,1,2446.588,401.056Z" transform="translate(-2401.014 -349.476)" fill="#8c6df2"/>
        <path id="Trazado_231856" data-name="Trazado 231856" d="M2648.172,398c-1.8-.909-3.6-1.8-5.4-2.7-.175-.087-.367-.14-.609-.229V420l.114.056c.1-.176.206-.347.3-.528q3.829-7.658,7.653-15.317A4.31,4.31,0,0,0,2648.172,398Z" transform="translate(-2588.067 -382.58)" fill="#8c6df2"/>
        <path id="Trazado_231857" data-name="Trazado 231857" d="M2358.186,523.87a4.236,4.236,0,0,0,1.958,5.8c1.876.958,3.768,1.887,5.655,2.825.16.079.334.13.549.212v-25.1c-.146.234-.214.327-.265.428C2363.447,513.312,2360.8,518.581,2358.186,523.87Z" transform="translate(-2357.706 -473.711)" fill="#8c6df2"/>
        <path id="Trazado_231858" data-name="Trazado 231858" d="M2494.767,332.2c-1.5-.754-3-1.511-4.5-2.255-2.751-1.359-5.3-.346-6.454,2.638h11.628C2495.114,332.4,2494.945,332.293,2494.767,332.2Z" transform="translate(-2459.828 -329.354)" fill="#8c6df2"/>
        <path id="Trazado_231859" data-name="Trazado 231859" d="M2501.4,688.675c1.693.85,3.379,1.714,5.083,2.543a4.335,4.335,0,0,0,6.231-2.7h-11.465C2501.333,688.608,2501.358,688.656,2501.4,688.675Z" transform="translate(-2473.952 -620.217)" fill="#8c6df2"/>
      </g>
    </g>
  </g>
</svg>
