<svg xmlns="http://www.w3.org/2000/svg" width="96.627" height="100.5" viewBox="0 0 96.627 100.5">
  <g id="Grupo_161284" data-name="Grupo 161284" transform="translate(-303.091 757.656)">
    <path id="Trazado_231865" data-name="Trazado 231865" d="M614.114-581.591a6.083,6.083,0,0,1-4.554-4.012,27.294,27.294,0,0,1-.726-4.441c-.534-3.718-1.007-7.444-1.531-11.164a9.532,9.532,0,0,1,.4-4.627c1.253-3.531,2.441-7.085,3.646-10.634.118-.347.348-.684-.027-1.073-1.641-1.7-2.088-3.852-2.265-6.105-.126-1.6-.267-3.192-.447-4.783a1.5,1.5,0,0,1,.575-1.432c3.3-2.976,6.58-5.984,9.859-8.987a8.321,8.321,0,0,0,2.724-8.662,8.292,8.292,0,0,0-12.576-4.649c-.477.342-.938.706-1.607,1.21a8.114,8.114,0,0,1,4.614-4.459,8.193,8.193,0,0,1,11.124,6.69c.53,4.015.814,8.063,1.2,12.1.364,3.806.684,7.617,1.086,11.419a10.724,10.724,0,0,1-1.185,6.7,27.671,27.671,0,0,0-1.691,4.679c-.984,2.866-1.848,5.78-2.977,8.587a10.7,10.7,0,0,0-.484,5.907c.562,3.548,1.029,7.111,1.489,10.674.458,3.543-1.13,5.913-4.562,6.923-.049.014-.078.092-.117.14Z" transform="translate(-225.978 -75.566)" fill="#5038a1"/>
    <path id="Trazado_231866" data-name="Trazado 231866" d="M312.754-539.812A8.642,8.642,0,0,1,309.8-541.4a6.086,6.086,0,0,1-1.726-5.48c.594-4.4,1.186-8.808,1.812-13.208a2.76,2.76,0,0,0-.133-1.333q-2.467-7.218-4.938-14.434a4.705,4.705,0,0,0-.423-.983,8.22,8.22,0,0,1-1.26-5.237c.533-5.883,1.091-11.763,1.642-17.672.413.087.408.438.52.672q2.956,6.175,5.888,12.362a8.252,8.252,0,0,0,7.866,5.15c.524.005.671.11.624.65a8.161,8.161,0,0,1-1.9,4.835,1.293,1.293,0,0,0-.281,1.473c1.2,3.415,2.288,6.867,3.544,10.259a11.212,11.212,0,0,1,.379,5.684c-.651,4.528-1.191,9.072-1.851,13.6a5.7,5.7,0,0,1-4.6,5.105.993.993,0,0,0-.249.147Z" transform="translate(0 -117.344)" fill="#5038a1"/>
    <path id="Trazado_231867" data-name="Trazado 231867" d="M519.542-612.868c-2.584,0-5.168.042-7.75-.012a4.951,4.951,0,0,1-4.845-3.948,4.96,4.96,0,0,1,2.755-5.519,6.137,6.137,0,0,1,2.672-.5c3.989,0,7.979-.015,11.969.017a2.189,2.189,0,0,0,1.636-.653q4.826-4.461,9.7-8.865a4.942,4.942,0,0,1,7.257.174,4.945,4.945,0,0,1-.493,7.1c-2.7,2.527-5.444,5-8.171,7.491-1.134,1.037-2.285,2.057-3.4,3.113a5.7,5.7,0,0,1-4.173,1.616c-2.387-.032-4.774-.008-7.161-.008Z" transform="translate(-151.415 -92.003)" fill="#5038a1"/>
    <path id="Trazado_231868" data-name="Trazado 231868" d="M320.455-644.116a4.929,4.929,0,0,1,4.156,3.153c1.85,3.919,3.761,7.809,5.559,11.751a1.489,1.489,0,0,0,1.819,1.046c2.888-.337,5.788-.566,8.682-.852a5,5,0,0,1,5.64,4.463,5.008,5.008,0,0,1-4.613,5.434q-6.781.658-13.565,1.273a5.019,5.019,0,0,1-4.962-2.98q-3.83-7.974-7.607-15.972a5.931,5.931,0,0,1-.5-1.577A5.015,5.015,0,0,1,320.455-644.116Z" transform="translate(-8.844 -84.371)" fill="#5038a1"/>
    <path id="Trazado_231869" data-name="Trazado 231869" d="M334.859-722.027a10.253,10.253,0,0,1-10.2-10.353,10.275,10.275,0,0,1,10.321-10.137,10.289,10.289,0,0,1,10.2,10.257A10.279,10.279,0,0,1,334.859-722.027Z" transform="translate(-16.028 -11.25)" fill="#5038a1"/>
    <path id="Trazado_231870" data-name="Trazado 231870" d="M588.11-722.027a10.283,10.283,0,0,1-10.169-10.292,10.285,10.285,0,0,1,10.362-10.2,10.271,10.271,0,0,1,10.164,10.392A10.275,10.275,0,0,1,588.11-722.027Z" transform="translate(-204.245 -11.25)" fill="#5038a1"/>
    <path id="Trazado_231871" data-name="Trazado 231871" d="M476.537-752.229a1.931,1.931,0,0,1-2.445,1.941,11.028,11.028,0,0,0-4.169-.336c-.874.148-1.648.44-1.865,1.449-.235,1.087.449,1.615,1.246,2.083a31.794,31.794,0,0,0,3.574,1.583c.567.246,1.139.49,1.682.784A5.7,5.7,0,0,1,477.9-739.1a6.087,6.087,0,0,1-3.742,5.422c-.029.014-.06.026-.089.041-.672.353-1.564.31-2.092.753-.568.476-.083,1.407-.283,2.126a1.6,1.6,0,0,1-1.68,1.345,1.544,1.544,0,0,1-1.6-1.424.541.541,0,0,0-.025-.095c-.216-.57.3-1.368-.3-1.726-.46-.276-1.149-.152-1.727-.256a13.612,13.612,0,0,1-2-.46,2.183,2.183,0,0,1-1.375-2.775,1.908,1.908,0,0,1,2.539-1.176,10.417,10.417,0,0,0,4.823.5c1-.209,1.917-.523,2.192-1.659.217-.9-.265-1.662-1.366-2.357a20.715,20.715,0,0,0-3.047-1.316c-.6-.256-1.213-.484-1.79-.784-2.764-1.434-3.87-3.3-3.6-6.015a6.056,6.056,0,0,1,4.746-5.129c.856-.219,1.1-.553,1.028-1.364a1.924,1.924,0,0,1,.684-1.843,1.582,1.582,0,0,1,1.751-.189,1.676,1.676,0,0,1,.965,1.777c-.1.995.31,1.209,1.2,1.207a6.983,6.983,0,0,1,2.015.372A1.844,1.844,0,0,1,476.537-752.229Z" transform="translate(-118.612)" fill="#5038a1"/>
    <path id="Trazado_231872" data-name="Trazado 231872" d="M431.108-614.092c-.311-4.4-2.458-7.1-6.57-8.346,1.612-2.587,3.172-5.177,4.83-7.7a1.766,1.766,0,0,1,2.593-.5c1.685.99,3.356,2.008,5,3.069a1.948,1.948,0,0,1,.668,2.883C435.518-621.208,433.367-617.757,431.108-614.092Z" transform="translate(-90.249 -94.127)" fill="#5038a1"/>
    <path id="Trazado_231873" data-name="Trazado 231873" d="M344.132-655.929a7.955,7.955,0,0,1,6.529,3.178c2.24,2.944,4.878,5.544,7.118,8.472,1.088,1.422,2.165,1.995,3.815,1.148a2.653,2.653,0,0,1,.688-.109c-.426.706-.806,1.3-1.15,1.919-.2.358-.536.345-.848.376-1.723.171-3.45.3-5.169.5-.6.07-.849-.164-1.087-.674-1.531-3.275-3.125-6.521-4.639-9.8a8.514,8.514,0,0,0-4.839-4.7A2.452,2.452,0,0,1,344.132-655.929Z" transform="translate(-30.498 -75.595)" fill="#5038a1"/>
  </g>
</svg>
