<svg xmlns="http://www.w3.org/2000/svg" width="136.973" height="136.973" viewBox="0 0 136.973 136.973">
  <g id="Grupo_161351" data-name="Grupo 161351" transform="translate(-1076.007 -3659)">
    <g id="Trazado_137458" data-name="Trazado 137458" transform="translate(1076.007 3659)" fill="#fff">
      <path d="M 68.48631286621094 131.9726409912109 C 59.91350936889648 131.9726409912109 51.59981155395508 130.2947692871094 43.77611541748047 126.9856185913086 C 40.01535797119141 125.3949661254883 36.38774871826172 123.4259033203125 32.9940071105957 121.1331405639648 C 29.6312255859375 118.8612899780273 26.46885681152344 116.2520523071289 23.5947265625 113.3779220581055 C 20.72059631347656 110.503791809082 18.11135673522949 107.341423034668 15.83950805664062 103.9786376953125 C 13.5467472076416 100.5848999023438 11.57768249511719 96.95726776123047 9.987030029296875 93.196533203125 C 6.677877902984619 85.37283325195312 5.000008583068848 77.05912017822266 5.000008583068848 68.48631286621094 C 5.000008583068848 59.91350936889648 6.677877902984619 51.59981155395508 9.987030029296875 43.77611541748047 C 11.57768249511719 40.01535797119141 13.5467472076416 36.38774871826172 15.83950805664062 32.9940071105957 C 18.11135673522949 29.6312255859375 20.72059631347656 26.46885681152344 23.5947265625 23.5947265625 C 26.46885681152344 20.72059631347656 29.6312255859375 18.11135673522949 32.9940071105957 15.83950805664062 C 36.38774871826172 13.5467472076416 40.01535797119141 11.57768249511719 43.77611541748047 9.987030029296875 C 51.59981155395508 6.677877902984619 59.91350936889648 5.000008583068848 68.48631286621094 5.000008583068848 C 77.05912017822266 5.000008583068848 85.37283325195312 6.677877902984619 93.196533203125 9.987030029296875 C 96.95726776123047 11.57768249511719 100.5848999023438 13.5467472076416 103.9786376953125 15.83950805664062 C 107.341423034668 18.11135673522949 110.503791809082 20.72059631347656 113.3779220581055 23.5947265625 C 116.2520523071289 26.46885681152344 118.8612899780273 29.6312255859375 121.1331405639648 32.9940071105957 C 123.4259033203125 36.38774871826172 125.3949661254883 40.01535797119141 126.9856185913086 43.77611541748047 C 130.2947692871094 51.59981155395508 131.9726409912109 59.91350936889648 131.9726409912109 68.48631286621094 C 131.9726409912109 77.05912017822266 130.2947692871094 85.37283325195312 126.9856185913086 93.196533203125 C 125.3949661254883 96.95726776123047 123.4259033203125 100.5848999023438 121.1331405639648 103.9786376953125 C 118.8612899780273 107.341423034668 116.2520523071289 110.503791809082 113.3779220581055 113.3779220581055 C 110.503791809082 116.2520523071289 107.341423034668 118.8612899780273 103.9786376953125 121.1331405639648 C 100.5848999023438 123.4259033203125 96.95726776123047 125.3949661254883 93.196533203125 126.9856185913086 C 85.37283325195312 130.2947692871094 77.05912017822266 131.9726409912109 68.48631286621094 131.9726409912109 Z" stroke="none"/>
      <path d="M 68.48631286621094 10.00000762939453 C 36.23686981201172 10.00000762939453 10.00000762939453 36.23686981201172 10.00000762939453 68.48631286621094 C 10.00000762939453 100.7357559204102 36.23686981201172 126.9726181030273 68.48631286621094 126.9726181030273 C 100.7357559204102 126.9726181030273 126.9726181030273 100.7357559204102 126.9726181030273 68.48631286621094 C 126.9726181030273 36.23686981201172 100.7357559204102 10.00000762939453 68.48631286621094 10.00000762939453 M 68.48631286621094 0 C 106.3102569580078 0 136.9726257324219 30.66236877441406 136.9726257324219 68.48631286621094 C 136.9726257324219 106.3102569580078 106.3102569580078 136.9726257324219 68.48631286621094 136.9726257324219 C 30.66236877441406 136.9726257324219 0 106.3102569580078 0 68.48631286621094 C 0 30.66236877441406 30.66236877441406 0 68.48631286621094 0 Z" stroke="none" fill="#8c6df2"/>
    </g>
    <circle id="Elipse_4752" data-name="Elipse 4752" cx="60.161" cy="60.161" r="60.161" transform="translate(1084.007 3667)" fill="#fedc72"/>
    <g id="Grupo_161230" data-name="Grupo 161230" transform="translate(101.333 3423.981)">
      <path id="Trazado_231729" data-name="Trazado 231729" d="M1048.106,295.447l5.863,5.844.012-.007,4.1,4.105,2.385,2.376v.014l14.748,14.778a8.158,8.158,0,1,1-11.535,11.538l-13.531-13.577-13.578-13.532a8.159,8.159,0,0,1,11.539-11.539Z" fill="#fcdb72" stroke="#5b3c9e" stroke-linejoin="round" stroke-width="4.6"/>
      <path id="Trazado_231730" data-name="Trazado 231730" d="M1062.075,295.719a26.7,26.7,0,1,1-26.7-26.7A26.7,26.7,0,0,1,1062.075,295.719Z" fill="#c184bf" stroke="#5b3c9e" stroke-linejoin="round" stroke-width="4.6"/>
      <path id="Trazado_231731" data-name="Trazado 231731" d="M1035.674,269.034V322.4a26.687,26.687,0,0,0,0-53.371Z" fill="#fcdb72"/>
      <path id="Trazado_231732" data-name="Trazado 231732" d="M1062.075,295.719a26.7,26.7,0,1,1-26.7-26.7A26.7,26.7,0,0,1,1062.075,295.719Z" fill="none" stroke="#5b3c9e" stroke-linejoin="round" stroke-width="4.6"/>
      <path id="Trazado_231733" data-name="Trazado 231733" d="M1053.037,295.719a17.663,17.663,0,1,1-17.664-17.662A17.663,17.663,0,0,1,1053.037,295.719Z" fill="#c184bf" stroke="#5b3c9e" stroke-linejoin="round" stroke-width="4.6"/>
      <path id="Trazado_231734" data-name="Trazado 231734" d="M1035.373,287.057a8.662,8.662,0,0,1,8.664,8.662" fill="none" stroke="#fff" stroke-linecap="round" stroke-linejoin="round" stroke-width="4.6"/>
    </g>
  </g>
</svg>
