<svg xmlns="http://www.w3.org/2000/svg" xmlns:xlink="http://www.w3.org/1999/xlink" width="593.098" height="593" viewBox="0 0 593.098 593">
  <defs>
    <radialGradient id="radial-gradient" cx="0.5" cy="0.5" r="0.5" gradientTransform="translate(0)" gradientUnits="objectBoundingBox">
      <stop offset="0.427" stop-color="#5038a1"/>
      <stop offset="0.981" stop-color="#fdb74d"/>
    </radialGradient>
    <linearGradient id="linear-gradient" x1="70.391" y1="-50.555" x2="70.521" y2="-48.928" gradientUnits="objectBoundingBox">
      <stop offset="0" stop-color="#2f1f45"/>
      <stop offset="1" stop-color="#8a3c74"/>
    </linearGradient>
    <linearGradient id="linear-gradient-2" x1="6.425" y1="-4.503" x2="6.928" y2="-4.11" gradientUnits="objectBoundingBox">
      <stop offset="0" stop-color="#5038a1"/>
      <stop offset="0.996" stop-color="#414375"/>
    </linearGradient>
    <linearGradient id="linear-gradient-3" x1="7.208" y1="-5.372" x2="7.772" y2="-4.917" xlink:href="#linear-gradient-2"/>
    <linearGradient id="linear-gradient-4" x1="-8.371" y1="0.966" x2="-6.934" y2="0.966" gradientUnits="objectBoundingBox">
      <stop offset="0" stop-color="#5038a1"/>
      <stop offset="0.996" stop-color="#2a2a4f"/>
    </linearGradient>
    <linearGradient id="linear-gradient-5" x1="-1.628" y1="3.442" x2="-0.886" y2="3.442" xlink:href="#linear-gradient-4"/>
    <linearGradient id="linear-gradient-6" x1="-8.444" y1="0.95" x2="-7.007" y2="0.95" gradientUnits="objectBoundingBox">
      <stop offset="0" stop-color="#9d7ff4"/>
      <stop offset="0.996" stop-color="#5038a1"/>
    </linearGradient>
    <linearGradient id="linear-gradient-7" x1="2.408" y1="5.758" x2="3.708" y2="4.459" xlink:href="#linear-gradient-6"/>
    <linearGradient id="linear-gradient-8" x1="-1.436" y1="1.051" x2="-0.7" y2="0.259" gradientUnits="objectBoundingBox">
      <stop offset="0" stop-color="#efc250"/>
      <stop offset="0.996" stop-color="#ffedb4"/>
    </linearGradient>
    <linearGradient id="linear-gradient-9" x1="-1.965" y1="0.992" x2="-1.092" y2="0.08" xlink:href="#linear-gradient-8"/>
    <linearGradient id="linear-gradient-10" x1="-4.686" y1="0.68" x2="-3.327" y2="0.68" xlink:href="#linear-gradient-6"/>
    <linearGradient id="linear-gradient-11" x1="-19.58" y1="0.894" x2="-17.272" y2="0.018" xlink:href="#linear-gradient-6"/>
    <linearGradient id="linear-gradient-12" x1="-4.143" y1="1.11" x2="-3.032" y2="1.11" gradientUnits="objectBoundingBox">
      <stop offset="0.004" stop-color="#ebedf0"/>
      <stop offset="1" stop-color="#fff"/>
    </linearGradient>
    <linearGradient id="linear-gradient-13" x1="-4.515" y1="1.238" x2="-3.331" y2="1.238" xlink:href="#linear-gradient-12"/>
    <linearGradient id="linear-gradient-14" x1="-3.771" y1="0.817" x2="-4.069" y2="1.369" xlink:href="#linear-gradient-12"/>
    <linearGradient id="linear-gradient-15" x1="-5.225" y1="2.06" x2="-4.189" y2="0.7" xlink:href="#linear-gradient-4"/>
    <linearGradient id="linear-gradient-16" x1="-11.022" y1="2.138" x2="-10.896" y2="1.652" xlink:href="#linear-gradient-8"/>
    <linearGradient id="linear-gradient-17" x1="-4.98" y1="2.202" x2="-3.744" y2="2.202" xlink:href="#linear-gradient-6"/>
    <linearGradient id="linear-gradient-18" x1="-10.746" y1="1.834" x2="-11.472" y2="2.572" xlink:href="#linear-gradient-6"/>
    <linearGradient id="linear-gradient-19" x1="-14.359" y1="2.318" x2="-15.086" y2="3.057" xlink:href="#linear-gradient-4"/>
    <linearGradient id="linear-gradient-20" x1="-5.517" y1="2.64" x2="-4.449" y2="0.501" xlink:href="#linear-gradient-4"/>
    <linearGradient id="linear-gradient-21" x1="1.935" y1="3.84" x2="1.21" y2="6.183" xlink:href="#linear-gradient-8"/>
    <linearGradient id="linear-gradient-22" x1="6.753" y1="4.108" x2="5.74" y2="5.692" xlink:href="#linear-gradient-8"/>
    <linearGradient id="linear-gradient-23" x1="65.334" y1="-41.025" x2="66.27" y2="-40.249" xlink:href="#linear-gradient"/>
    <linearGradient id="linear-gradient-24" x1="11.637" y1="-9.543" x2="12.657" y2="-9.543" xlink:href="#linear-gradient-8"/>
    <linearGradient id="linear-gradient-25" x1="116.326" y1="-65.583" x2="115.493" y2="-62.544" xlink:href="#linear-gradient"/>
    <linearGradient id="linear-gradient-26" x1="13.237" y1="-9.431" x2="14.41" y2="-9.431" xlink:href="#linear-gradient-8"/>
    <linearGradient id="linear-gradient-27" x1="6.792" y1="-4.03" x2="7.602" y2="-4.03" xlink:href="#linear-gradient-2"/>
    <linearGradient id="linear-gradient-28" x1="5.894" y1="-3.468" x2="6.924" y2="-3.468" xlink:href="#linear-gradient-8"/>
    <linearGradient id="linear-gradient-29" x1="29.641" y1="-33.8" x2="29.51" y2="-33.187" xlink:href="#linear-gradient"/>
    <linearGradient id="linear-gradient-30" x1="7.697" y1="-3.85" x2="9.106" y2="-3.85" xlink:href="#linear-gradient-8"/>
    <linearGradient id="linear-gradient-31" x1="98.803" y1="-58.751" x2="97.31" y2="-57.1" xlink:href="#linear-gradient"/>
    <linearGradient id="linear-gradient-32" x1="28.632" y1="-0.607" x2="26.786" y2="1.597" gradientUnits="objectBoundingBox">
      <stop offset="0" stop-color="#5c2ef2"/>
      <stop offset="1" stop-color="#8c6df2"/>
    </linearGradient>
    <linearGradient id="linear-gradient-33" x1="0.159" y1="1.763" x2="0.349" y2="0.887" xlink:href="#linear-gradient"/>
  </defs>
  <g id="Grupo_161324" data-name="Grupo 161324" transform="translate(1717.216 714.643)">
    <path id="Unión_1" data-name="Unión 1" d="M90.979,510.123,211.223,389.881A125.74,125.74,0,0,0,357.731,407.26l88.823,144.947A296.313,296.313,0,0,1,90.979,510.123ZM367.5,401.275a127.885,127.885,0,0,0,55.684-104.82,125.721,125.721,0,0,0-4.63-33.627l161.711-52.538A296.229,296.229,0,0,1,593.1,296.455c0,100.29-52.323,195.707-136.769,249.778ZM0,296.455A294.855,294.855,0,0,1,20.489,188.3l157.086,65.075A125.876,125.876,0,0,0,203.131,381.79L82.893,502.022A294.667,294.667,0,0,1,0,296.455ZM302.272,170.027V0A296.578,296.578,0,0,1,576.726,199.4L415.015,251.943A125.358,125.358,0,0,0,302.272,170.027Zm-277.419,7.69A296.328,296.328,0,0,1,290.826,0V170.021a127.011,127.011,0,0,0-108.9,72.764Z" transform="translate(-1717.216 -714.643)" fill="url(#radial-gradient)"/>
    <g id="Grupo_161323" data-name="Grupo 161323" transform="translate(-1633.397 -636.381)">
      <path id="Trazado_232413" data-name="Trazado 232413" d="M-1117.7-446.179c-9.332-12.831-34.956-47.117-81.183-64.313-76.459-28.443-149.125,12.243-195.049,37.955-42.548,23.823-105.165,58.882-105.432,106.486-.245,43.891,52.771,52.24,61.151,107.54,8.954,59.086-45.877,87.122-31.63,125.464,16.6,44.669,108.632,54.015,166.582,47.445,22.259-2.524,144.186-16.347,200.32-126.518C-1064.448-287.667-1070.66-381.5-1117.7-446.179Z" transform="translate(1503.225 520.188)" fill="#e8e8e8"/>
      <g id="Grupo_161314" data-name="Grupo 161314" transform="translate(172.321 124.368)">
        <path id="Trazado_232414" data-name="Trazado 232414" d="M-904.562,19.065s-3.224.48-3.553,2.046-.666,3.22.629,7.493,1.149,6.1,2.709,6.372S-900.177,23.877-904.562,19.065Z" transform="translate(977.792 73.6)" fill="#2a2a4f"/>
        <path id="Trazado_232415" data-name="Trazado 232415" d="M-902.317,7.841c-.027.311-1.181,3.818-1.844,5.813a1.924,1.924,0,0,0,.737,2.191h0a2.356,2.356,0,0,0,3.206-.5,57.69,57.69,0,0,0,4.108-5.9Z" transform="translate(975.308 80.306)" fill="url(#linear-gradient)"/>
        <path id="Trazado_232416" data-name="Trazado 232416" d="M-1080.462-167.876c-2.748-5.468,12.443-18.124,14.464-19.807,3.978-3.314,42.344-34.587,64.678-19.315,18.8,12.855,12.369,49.208,11.109,56.329a90.079,90.079,0,0,1-13.2,33.2l-7.352-4.091c-1.585-7.932-2.549-14.612-3.153-19.515a207.763,207.763,0,0,1-1.9-22.426c-.311-13.679,1.276-16.387-.914-18.076-4.84-3.733-14.892,7.724-35.912,13.4C-1061.451-165.8-1077.953-162.884-1080.462-167.876Z" transform="translate(1080.793 211.176)" fill="url(#linear-gradient-2)"/>
        <path id="Trazado_232417" data-name="Trazado 232417" d="M-1066-168.813a140.56,140.56,0,0,1,11.494-8.508,11.112,11.112,0,0,0,5.354,4.306c7.4,2.531,12.614-6.305,25.614-6.561,3.325-.066,12.443-.246,17.042,5.4,5.495,6.748-1.537,14.354,3.1,29.455,2.406,7.835,4.892,7.722,5.216,13.558.511,9.213-5.5,12.776-5.139,20.847a17.62,17.62,0,0,0,2.326,7.735c-.833,1.437-1.654,2.8-2.422,3.982l-7.352-4.091c-1.585-7.932-2.549-14.612-3.153-19.515a207.763,207.763,0,0,1-1.9-22.426c-.311-13.679,1.276-16.386-.914-18.076-4.84-3.733-14.892,7.724-35.912,13.4-8.811,2.378-25.313,5.294-27.822.3C-1083.21-154.473-1068.019-167.13-1066-168.813Z" transform="translate(1080.793 192.305)" opacity="0.3" fill="url(#linear-gradient-3)" style="mix-blend-mode: multiply;isolation: isolate"/>
      </g>
      <g id="Grupo_161320" data-name="Grupo 161320" transform="translate(6.114 54.977)">
        <g id="Grupo_161319" data-name="Grupo 161319" transform="translate(66.355)">
          <g id="Grupo_161315" data-name="Grupo 161315" transform="translate(0 124.405)">
            <path id="Trazado_232418" data-name="Trazado 232418" d="M-897.6,172.561s33.926,51.22-10.974,119.31a9.823,9.823,0,0,1-17.021-1.128l-21.21-43.5a27.518,27.518,0,0,1-.82-22.266l14.776-37Z" transform="translate(1102.245 -73.133)" fill="url(#linear-gradient-4)"/>
            <path id="Trazado_232419" data-name="Trazado 232419" d="M-1204.329-59.509s-49.348-36.6-119.724,4.627a9.823,9.823,0,0,0,.223,17.057l42.316,23.488a27.517,27.517,0,0,0,22.191,2l37.728-12.792Z" transform="translate(1328.893 74.485)" fill="url(#linear-gradient-5)"/>
          </g>
          <g id="Grupo_161316" data-name="Grupo 161316" transform="translate(4.715 119.934)">
            <path id="Trazado_232420" data-name="Trazado 232420" d="M-885.885,161.452s33.926,51.22-10.974,119.311a9.823,9.823,0,0,1-17.021-1.128l-21.21-43.5a27.518,27.518,0,0,1-.82-22.266l14.776-37Z" transform="translate(1090.531 -62.024)" fill="url(#linear-gradient-6)"/>
            <path id="Trazado_232421" data-name="Trazado 232421" d="M-1192.615-70.617s-49.347-36.6-119.724,4.627a9.824,9.824,0,0,0,.223,17.057l42.316,23.488a27.519,27.519,0,0,0,22.191,2l37.728-12.792Z" transform="translate(1317.178 85.593)" fill="url(#linear-gradient-7)"/>
          </g>
          <path id="Trazado_232422" data-name="Trazado 232422" d="M-1016.892-357.021c64.929-49.175,155.948-15.051,155.981-14.929.12.04,29.361,92.746-23.186,154.97-47.663,56.44-140.373,89.135-158.126,95.013-1.91.632-4.977,1.434-5.8-.4-15.909-35.737-40.558-60.409-72.153-76.048-1.749-.865-.739-3.828-.028-5.645C-1113.486-221.246-1075.889-312.339-1016.892-357.021Z" transform="translate(1204.754 383.59)" fill="url(#linear-gradient-8)"/>
          <g id="Grupo_161317" data-name="Grupo 161317" transform="translate(126.162 34.654)" style="mix-blend-mode: multiply;isolation: isolate">
            <path id="Trazado_232423" data-name="Trazado 232423" d="M-929.555-213.71c36.3-27.256,64.206-9.96,98.833-33.281,12.644-8.515,27.236-23.156,38.174-50.5,5.195,31.489,7.909,88.989-28.376,131.956C-868.588-109.091-961.3-76.4-979.051-70.518c-1.91.632-4.977,1.434-5.8-.4a157.171,157.171,0,0,0-30.575-45.948,104.163,104.163,0,0,0,30.079-18.756C-955.418-162.531-962.625-188.876-929.555-213.71Z" transform="translate(1015.421 297.487)" fill="url(#linear-gradient-9)"/>
          </g>
          <path id="Trazado_232424" data-name="Trazado 232424" d="M-684.46-330.033c-19.378-20.435-44.046-39.957-67.413-48.322,48.219-12.788,96.856,1.4,108.826,5.416a5.619,5.619,0,0,1,3.631,3.829c3.372,12.166,14.958,61.488-.368,108.959C-645.549-281.329-665.081-309.6-684.46-330.033Z" transform="translate(984.105 383.586)" fill="url(#linear-gradient-10)"/>
          <path id="Trazado_232425" data-name="Trazado 232425" d="M-504.724-297.482q.037.22.073.442c.041.251.082.5.122.758s.081.509.121.766.076.488.113.735c.041.272.083.547.124.822.035.236.07.473.105.711.042.291.085.585.126.88q.049.344.1.69.064.464.128.934.045.333.089.668.065.491.128.99.041.321.081.644.065.517.127,1.04.038.315.075.632.063.537.124,1.081.035.307.068.617.062.563.121,1.133.031.3.061.6.06.586.117,1.178l.056.581q.057.609.112,1.224.025.28.049.561.054.63.105,1.267l.043.549q.05.65.1,1.307.019.267.038.535.046.669.09,1.344.016.261.032.524.042.688.081,1.383c.009.169.018.338.027.507q.037.709.07,1.423c.008.163.014.328.022.492q.032.727.059,1.459c.006.159.011.319.017.479q.026.747.047,1.5c0,.151.008.3.012.455q.02.767.034,1.541c0,.146,0,.293.007.439q.013.785.02,1.576c0,.142,0,.285,0,.428q.005.8,0,1.6c0,.139,0,.279,0,.419q0,.815-.011,1.636c0,.133,0,.266-.006.4q-.011.832-.028,1.67c0,.128-.006.258-.009.386q-.019.849-.046,1.7c0,.122-.008.244-.012.366q-.03.866-.066,1.737c0,.117-.01.235-.016.352q-.039.881-.086,1.768c-.006.11-.012.22-.018.33q-.05.9-.108,1.8c-.006.1-.014.209-.021.313q-.061.914-.13,1.833c-.007.1-.015.2-.023.293q-.072.929-.154,1.863c-.008.093-.017.187-.026.28q-.085.943-.179,1.89c-.008.084-.017.168-.026.252q-.1.962-.206,1.928c-.008.076-.018.151-.026.227q-.112.979-.234,1.961-.013.1-.026.2-.126,1-.263,2l-.024.169q-.141,1.017-.3,2.037l-.021.135q-.158,1.037-.329,2.078c-.005.033-.011.066-.017.1q-.175,1.059-.365,2.122c0,.017-.006.033-.009.05a152.821,152.821,0,0,1-4.959,19.986c-3.685-13.535-13-29.965-24.293-45.4C-523.6-263.094-513.091-276.57-504.724-297.482Z" transform="translate(853.758 332.138)" opacity="0.3" fill="url(#linear-gradient-11)" style="mix-blend-mode: multiply;isolation: isolate"/>
          <ellipse id="Elipse_6705" data-name="Elipse 6705" cx="59.142" cy="65.671" rx="59.142" ry="65.671" transform="matrix(0.726, -0.688, 0.688, 0.726, 147.497, 107.328)" fill="url(#linear-gradient-12)"/>
          <path id="Trazado_232426" data-name="Trazado 232426" d="M-839.165-124.972c29.618-22.242,53.653-14.819,80.31-24.006,10.191,23.5,6.458,50.437-11.551,67.514-23.7,22.475-63.146,19.361-88.1-6.957a73.574,73.574,0,0,1-5.639-6.708A82.264,82.264,0,0,1-839.165-124.972Z" transform="translate(1051.194 243.402)" fill="url(#linear-gradient-13)" style="mix-blend-mode: multiply;isolation: isolate"/>
          <ellipse id="Elipse_6706" data-name="Elipse 6706" cx="54.211" cy="60.195" rx="54.211" ry="60.195" transform="matrix(0.726, -0.688, 0.688, 0.726, 154.843, 107.908)" fill="url(#linear-gradient-14)"/>
          <ellipse id="Elipse_6707" data-name="Elipse 6707" cx="47.223" cy="52.436" rx="47.223" ry="52.436" transform="translate(165.252 108.73) rotate(-43.479)" fill="url(#linear-gradient-15)"/>
          <ellipse id="Elipse_6708" data-name="Elipse 6708" cx="16.137" cy="54.617" rx="16.137" ry="54.617" transform="translate(71.13 194.679) rotate(-43.479)" fill="url(#linear-gradient-16)"/>
          <path id="Trazado_232427" data-name="Trazado 232427" d="M-1106.859,122.57l16.129,17.01a30.634,30.634,0,0,1,5.66,33.753l-4.9,10.774a6.139,6.139,0,0,1-10.043,1.684l-53.488-56.407a6.139,6.139,0,0,1,2.214-9.94l11.019-4.318A30.634,30.634,0,0,1-1106.859,122.57Z" transform="translate(1225.097 86.853)" fill="url(#linear-gradient-17)"/>
          <ellipse id="Elipse_6709" data-name="Elipse 6709" cx="15.228" cy="45.074" rx="15.228" ry="45.074" transform="matrix(0.726, -0.688, 0.688, 0.726, 58.529, 220.059)" fill="url(#linear-gradient-18)"/>
          <ellipse id="Elipse_6710" data-name="Elipse 6710" cx="11.573" cy="34.256" rx="11.573" ry="34.256" transform="translate(68.625 225.394) rotate(-43.479)" fill="url(#linear-gradient-19)"/>
          <g id="Grupo_161318" data-name="Grupo 161318" transform="translate(193.826 97.586)" opacity="0.3" style="mix-blend-mode: color-burn;isolation: isolate">
            <path id="Trazado_232428" data-name="Trazado 232428" d="M-829.1-120.277c25.191-18.916,46.342-16.376,68.5-20.845,8.6,18.959,5.744,40.908-8.851,54.749-18.925,17.946-50.42,15.459-70.347-5.555a58.06,58.06,0,0,1-7.507-9.817A81.6,81.6,0,0,1-829.1-120.277Z" transform="translate(847.3 141.122)" fill="url(#linear-gradient-20)"/>
          </g>
        </g>
        <path id="Trazado_232429" data-name="Trazado 232429" d="M-1333.836,204.365c3,6.059-30.606,30.069-60.481,45.689a282.646,282.646,0,0,1-38.328,16.428c-31.8,11.008-50.813,18.755-58.071,10.915-4.743-5.123-3.449-15.608.467-22.351,7.975-13.733,23.916-6.94,40.936-21.475,13.761-11.752,9.865-21.766,21.876-27.487,11.5-5.475,19.244,1.706,40.006,3.835C-1355.216,213.222-1336.094,199.805-1333.836,204.365Z" transform="translate(1493.763 32.839)" fill="url(#linear-gradient-21)"/>
        <path id="Trazado_232430" data-name="Trazado 232430" d="M-1229.7,243.292c-27.473,9.451-42.64,22.794-51.443,33.359-10.449,12.539-11.354,20.471-24.48,29.507-12.938,8.907-22.63,8.48-31.14,19.754-1.9,2.514-10.219,13.539-6.728,21.32,5.911,13.172,44.513,14.458,72.026-1.168,5.406-3.07,26.333-14.956,29.708-34.988,1.651-9.8-2.2-13.806-2.482-25.655C-1244.534,273.1-1240.807,259-1229.7,243.292Z" transform="translate(1404.478 9.008)" fill="url(#linear-gradient-22)"/>
      </g>
      <g id="Grupo_161322" data-name="Grupo 161322" transform="translate(0 13.603)">
        <path id="Trazado_232431" data-name="Trazado 232431" d="M-1270.364-312.139c1.861-3.14,5.1-8.775,3.376-14.628-1.654-5.633-7.4-9.924-13.235-10.766-1.428-.206-5.995-.659-13.325,3.715-10.494,6.262-8.909,15.575-17.069,18.223-4.783,1.552-6.137-1.254-13.946.4-5.938,1.259-6.774,3.225-11.427,4.7-10.6,3.372-14.505-4.214-26.1-2.391-8.315,1.307-17.385,6.95-18.8,13.972-.83,4.118,1.724,4.987,1.972,11.619.287,7.713-3.026,10.323-4.151,17.386a31,31,0,0,0,4.179,20.864c9.38,14.319,31.83,12.494,34.27,12.262,11.906-1.133,19.757-6.735,30.1-14.321C-1300.409-261.448-1290.394-278.345-1270.364-312.139Z" transform="translate(1433.946 397.517)" fill="#2a2a4f"/>
        <path id="Trazado_232432" data-name="Trazado 232432" d="M-910.926-391.091l4.573-4.415q1.778-1.667,3.788-3.377c1.956-1.658,3.875-3.157,5.725-4.509,0,0,.385.787-.66,1.927a48.352,48.352,0,0,1-3.623,3.285c-.508.434,1.307,2.077.234,4.036s-3.666,2.092-4.6,1.19l-3.361,3.261Z" transform="translate(1151.613 436.796)" fill="url(#linear-gradient-23)"/>
        <path id="Trazado_232433" data-name="Trazado 232433" d="M-1030-378.9l4.068,4.21a25.344,25.344,0,0,1-3.382,9.912c-5.385,8.889-13.216,8.356-25.158,17.449-5.353,4.076-3.27,3.8-15.022,14.74-9.766,9.1-14.728,13.652-18.594,14.081-12.326,1.371-23.5-18.649-25.437-22.2a273.143,273.143,0,0,1,30.226-13.493c16.875-6.322,30.852-9.608,48.354-21.245C-1032.836-376.853-1031.133-378.072-1030-378.9Z" transform="translate(1272.673 422.163)" fill="url(#linear-gradient-24)"/>
        <path id="Trazado_232434" data-name="Trazado 232434" d="M-978.687,97.478a2.719,2.719,0,0,1-.356.043,4.655,4.655,0,0,0-3.685,1.984c-1.338,2.072-.877,6.57-.126,11.94s3.373.489,3.618-.341S-976.4,99-976.4,99Z" transform="translate(1195.026 137.51)" fill="#2a2a4f"/>
        <path id="Trazado_232435" data-name="Trazado 232435" d="M-968.872,91.563l-4.33,4.624s-1.479-.117-1.24-2.1l.6-4.991Z" transform="translate(1189.581 142.521)" fill="url(#linear-gradient-25)"/>
        <path id="Trazado_232436" data-name="Trazado 232436" d="M-1063.549-337.34c1.015-1.886,3.411-7.43,9.027-9.939,4.468-2,6.5-.072,11.155-1.869,5.735-2.213,5.258-6.134,11.735-11.747,7.469-6.471,11.792-4.452,15.819-9.617a15.77,15.77,0,0,0,3.077-7.714l3.806,3.938a25.345,25.345,0,0,1-3.382,9.912c-5.385,8.889-13.216,8.356-25.158,17.449-5.353,4.076-3.27,3.8-15.023,14.74-9.766,9.095-14.728,13.652-18.594,14.081-5.039.561-9.884-2.455-13.986-6.457C-1071.531-328.253-1065.87-333.025-1063.549-337.34Z" transform="translate(1255.671 421.759)" opacity="0.3" fill="url(#linear-gradient-26)" style="mix-blend-mode: multiply;isolation: isolate"/>
        <path id="Trazado_232437" data-name="Trazado 232437" d="M-1129.727-141.266c7.624-1.875,34.536-7.5,57.016,8.406a42.951,42.951,0,0,1,11.252,10.951c12.063,18.022,5.278,48.214-14.218,76.41l-6.68-3.749a60.15,60.15,0,0,1-2.056-24.144c1.678-13.436,7.331-19.142,4.373-26.938-3.405-8.975-15.031-12.3-17.216-12.876-16.227-4.269-25.458,8.026-39.9,3.8-7.484-2.191-12.615-7.719-15.938-12.466Z" transform="translate(1296.317 281.666)" fill="url(#linear-gradient-27)"/>
        <path id="Trazado_232438" data-name="Trazado 232438" d="M-1326.149-268.818A21.931,21.931,0,0,0-1315-260.6c8.916,2.615,17.31-2.331,23.971-6.386,9.655-5.878,7.623-8.181,16.886-14.427,10.807-7.286,28.857-10.681,31.057-11.066,6.364-1.115,9.593-1.658,11.916-.971,8.665,2.563,15.231,13.341,15.3,22.968.018,2.712-1.023,7.886-3.108,18.235-1.1,5.437-1.876,8.631-.264,9.943,2.855,2.322,10.324-3.6,12.017-1.671,1.041,1.187-.891,4.447-1.242,5.041-5.648,9.563-15.2,10.8-24.628,17.237-14.767,10.092-10.008,19.844-23.521,25.837-8.521,3.779-13.286,1.176-19.516,6.805-6.185,5.589-4.488,10.866-9.986,14.127-8.47,5.024-22.976-1.284-23.014-5.357-.028-2.954,7.574-2.215,13.563-9.333,5.206-6.186,2.219-10.019,7.673-18.251,3.893-5.877,5.754-4.433,11.966-12.135,4.022-4.986,7.907-9.8,8.664-16.74A24.681,24.681,0,0,0-1270-250.494c-1.465,2-13.482,17.889-32.745,17.662-3.76-.044-17.581-.207-25.46-11.368-6.77-9.59-4.458-20.65-3.976-22.758Z" transform="translate(1403.786 371.286)" fill="url(#linear-gradient-28)"/>
        <path id="Trazado_232439" data-name="Trazado 232439" d="M-1138.168-308.92s-.825,6.778-3.32,8.338-6.53,3.6-6.974,4.153,15.5,2.211,23.38-1.8c0,0,.254-1.291-3.005-1.752a24.62,24.62,0,0,0-3.656-.292,3.394,3.394,0,0,1-3.688-3.388l.017-3.751Z" transform="translate(1293.553 380.346)" fill="url(#linear-gradient-29)"/>
        <path id="Trazado_232440" data-name="Trazado 232440" d="M-1240.475-157.135c1.381-2.53.514-4.846,3.169-8.966,2.929-4.547,6.027-4.9,10.67-10.005,3.286-3.615,2.7-4.506,5.458-7.949,7.441-9.3,14.334-6.106,19.942-13.778,4.914-6.724,1.756-12.1,7.018-15.629,4.859-3.258,9.92-.263,12.166-3.45,2.407-3.416-2.895-7.584-1.59-13.6,1.567-7.226,10.557-7.412,14.8-14.468,1.617-2.687,2.744-6.737,1.565-13.041a25.527,25.527,0,0,1,1.765,8.89c.018,2.712-1.023,7.886-3.108,18.235-1.1,5.437-1.876,8.631-.264,9.943,2.855,2.322,10.324-3.6,12.017-1.671,1.041,1.187-.891,4.447-1.242,5.041-5.648,9.563-15.2,10.8-24.628,17.237-14.767,10.092-10.008,19.845-23.521,25.837-8.521,3.779-13.286,1.176-19.516,6.805-6.185,5.589-4.488,10.866-9.986,14.127-3.717,2.205-8.6,2.226-12.906,1.212C-1243.892-153.331-1241.557-155.155-1240.475-157.135Z" transform="translate(1353.422 349.932)" opacity="0.3" fill="url(#linear-gradient-30)" style="mix-blend-mode: multiply;isolation: isolate"/>
        <path id="Trazado_232441" data-name="Trazado 232441" d="M-1126.08-312.22a3.75,3.75,0,0,0,4.191,1.291c2.286-.842.9-6.751-.917-7.419a3.211,3.211,0,0,0-2.46.347,3.562,3.562,0,0,0-1.105,4.009c-.579-.166-1.088-.012-1.214.275-.161.364.331.857.442.969A1.944,1.944,0,0,0-1126.08-312.22Z" transform="translate(1281.093 386.047)" fill="url(#linear-gradient-31)"/>
        <g id="Grupo_161321" data-name="Grupo 161321">
          <path id="Trazado_232442" data-name="Trazado 232442" d="M-1431.947-476.666c-14.514-7.2-28.355-5.256-35.266-2.2-8.17,3.615-10.88,6.328-18.112,7.693-6.428,1.214-13.1-6.671-18.112-1.1a8.988,8.988,0,0,0-1.219,1.648c-3.589,6.2.651,13.7-.522,26.789-.6,6.7-2.052,8.557-3.4,21.431-.511,4.9-.4,5.616-.261,6.182,2.2,8.687,19.612,7.045,31.87,3.3,16.9-5.167,22.341-13.834,33.438-9.891a28.967,28.967,0,0,1,11.493,8.243C-1433.166-435.178-1430.815-456.059-1431.947-476.666Z" transform="translate(1508.953 483.535)" fill="url(#linear-gradient-32)"/>
          <path id="Trazado_232443" data-name="Trazado 232443" d="M-1319.505-361.413a1.194,1.194,0,0,0,1.194-1.195V-485.2a1.194,1.194,0,0,0-1.194-1.195,1.194,1.194,0,0,0-1.194,1.195v122.587A1.194,1.194,0,0,0-1319.505-361.413Z" transform="translate(1396.466 486.39)" fill="#a1a4ab"/>
        </g>
        <path id="Trazado_232444" data-name="Trazado 232444" d="M-1328.854-240.563a37.274,37.274,0,0,1-1.02-6.2c0-2.052,5.643-2.052,6.669-2.052s.513,3.591-1.539,3.848c-1.482.186-1.626,2.142-1.592,3.215a.819.819,0,0,1-.666.832Z" transform="translate(1401.947 344.431)" fill="url(#linear-gradient-33)"/>
      </g>
    </g>
  </g>
</svg>
