<svg xmlns="http://www.w3.org/2000/svg" width="522.119" height="521.99" viewBox="0 0 522.119 521.99">
  <g id="Grupo_161425" data-name="Grupo 161425" transform="translate(-932.881 -4440.005)">
    <path id="Trazado_231883" data-name="Trazado 231883" d="M3354.492-124.459c-.183,2.282-1.683,2.546-2.537,3.381-13.965,13.651-30,24.524-46.766,34.334a238.705,238.705,0,0,1-29.106,14.257A254.783,254.783,0,0,1,3236.321-59.6a272.706,272.706,0,0,1-38.113,5.9,260.631,260.631,0,0,1-40.246.239,256.336,256.336,0,0,1-57.609-10.557,252.076,252.076,0,0,1-46.238-19.2c-1.6-.862-2.216-.381-2.917.907q-5.25,9.644-10.54,19.267c-.328.6-.372,1.543-1.26,1.557-.869.014-1.052-.851-1.325-1.494a256.626,256.626,0,0,1-15.271-49.642c-2.7-13.348-3.749-26.87-4.186-40.449-.1-3.035.187-6.082.146-9.121-.022-1.561.552-1.974,2.054-1.981a197.46,197.46,0,0,0,28.863-2.148,175.133,175.133,0,0,0,45.611-13.13c3.587-1.608,7.031-3.513,11.285-5.283-1.292,2.457-2.314,4.431-3.365,6.391-2.7,5.033-5.383,10.074-8.136,15.078-.819,1.488-.91,2.32.875,3.335a128.013,128.013,0,0,0,19.568,8.732,171.018,171.018,0,0,0,32.331,8.588,179.274,179.274,0,0,0,54.475.429,172.717,172.717,0,0,0,56.9-19A154.357,154.357,0,0,0,3293.1-185.45c.621-.6,1.2-1.687,2.144-1.374,1.12.371.781,1.637.87,2.569A223.507,223.507,0,0,1,3297.25-158a166.683,166.683,0,0,1-2.044,22.971c-.335,2.071-.509,3.443,2.5,4.188a231.493,231.493,0,0,0,52.285,6.633C3351.419-124.182,3352.847-124.361,3354.492-124.459Z" transform="translate(-1982.473 5014.793)" fill="#fedc72"/>
    <path id="Trazado_231884" data-name="Trazado 231884" d="M3228.94-775.66c.72-3.051,2.219-5.091,3.322-7.266,2.342-4.619,4.91-9.132,7.564-13.582,1.208-2.027.822-3.138-1.182-4.19a174.306,174.306,0,0,0-23.177-9.933,166.693,166.693,0,0,0-34.9-8.2,168.183,168.183,0,0,0-35.615-.752c-7.932.7-15.863,1.459-23.606,3.376-12.409,3.073-24.549,6.815-36.173,12.373a178.25,178.25,0,0,0-39.427,25.575c-1.956,1.678-3.976,3.307-6.333,5.358-.358-3.056-.77-5.732-.971-8.425a189.631,189.631,0,0,1,1.469-44.374c.365-2.27.007-3.238-2.488-3.83a233.508,233.508,0,0,0-50.695-6.621c-2.107-.03-4.215.114-6.323.177l-.116-.884c2.123-2.009,4.165-4.113,6.385-6.009a278.352,278.352,0,0,1,27.23-20.815,260.619,260.619,0,0,1,28.713-16.663,281.981,281.981,0,0,1,26.582-11.451,248.622,248.622,0,0,1,41.263-11.408,271.112,271.112,0,0,1,35.118-4.052,261.431,261.431,0,0,1,31.679.361,259.065,259.065,0,0,1,47.029,7.668,276.619,276.619,0,0,1,39.222,13.474,144.891,144.891,0,0,1,16.851,8.261c1.751,1.032,2.814,1.241,3.928-.958,3.149-6.211,6.551-12.295,9.861-18.425.452-.838.945-1.654,1.542-2.692,1.6,2.2,2.2,4.542,3.1,6.725a238.77,238.77,0,0,1,11.937,37.717,223.473,223.473,0,0,1,5.379,38.457c.307,5.992.422,11.982.261,17.982-.048,1.786-.6,2.473-2.521,2.464a190.741,190.741,0,0,0-49.6,6.452A170.063,170.063,0,0,0,3228.94-775.66Z" transform="translate(-1964.785 5347.58)" fill="#8c6df2"/>
    <path id="Trazado_231885" data-name="Trazado 231885" d="M2897.948-379.255c-5.166-4.584-9.093-9.829-13.232-14.847a232.012,232.012,0,0,1-16.208-22.314,260.106,260.106,0,0,1-22.324-42.451,261.386,261.386,0,0,1-12.505-39.028,258.355,258.355,0,0,1-6.586-46.7,266.938,266.938,0,0,1,3-54.892,258.384,258.384,0,0,1,16.8-58.941,209.979,209.979,0,0,1,10.23-21.579c.913-1.636.7-2.458-.974-3.337-6.418-3.363-12.777-6.841-19.138-10.313-.6-.326-1.572-.444-1.649-1.209-.111-1.1,1.081-1.075,1.732-1.355a259.2,259.2,0,0,1,27.521-9.936,218.45,218.45,0,0,1,44.449-8.626,227.075,227.075,0,0,1,25.756-.889c2.807.079,3.5,1.009,3.445,3.539a158.371,158.371,0,0,0,2.018,27.267,169.487,169.487,0,0,0,17.182,53.978c.406.775.716,1.6,1.254,2.817-2.932-.855-5.08-2.389-7.363-3.589-4.827-2.535-9.645-5.1-14.345-7.858-1.589-.933-2.1-.481-2.833.875a167.274,167.274,0,0,0-12.1,29.2,170.7,170.7,0,0,0-7.762,51.56,173.107,173.107,0,0,0,9.73,57.415,176.275,176.275,0,0,0,24.634,46.215c3.841,5.239,8.219,10.085,12.555,15.357a69.619,69.619,0,0,1-11.789,1.389,190.923,190.923,0,0,1-40.187-1.551c-2.648-.377-3.728.062-4.456,3.011a244.622,244.622,0,0,0-6.666,50.242C2898.063-383.755,2898.477-381.7,2897.948-379.255Z" transform="translate(-1893.902 5259)" fill="#fdb74d"/>
    <path id="Trazado_231886" data-name="Trazado 231886" d="M3610.369-754.509c3.764,3.979,7.466,7.478,10.681,11.378a275.658,275.658,0,0,1,18.044,24.331,262.059,262.059,0,0,1,31.615,67.815,253.694,253.694,0,0,1,9.837,49.944,265,265,0,0,1-4.526,79.3,269.456,269.456,0,0,1-21.254,61.509,54.5,54.5,0,0,1-3.17,5.911c-1.162,1.814-1.276,2.808.993,3.958,6.465,3.275,12.777,6.851,19.138,10.329.586.32,1.57.393,1.484,1.312-.068.723-.964.714-1.491.938a240.7,240.7,0,0,1-59.44,17.086,223.071,223.071,0,0,1-37.471,2.406c-4.525-.108-4.521-.118-4.575-4.577a194.142,194.142,0,0,0-4.562-39.391,170.019,170.019,0,0,0-14.637-40.8c-.283-.558-.561-1.12-.812-1.692a7.4,7.4,0,0,1-.247-1.043c2.683.74,4.742,2.333,6.981,3.481,4.852,2.49,9.621,5.147,14.359,7.85,1.482.846,2.219.743,3.03-.857a175.56,175.56,0,0,0,14.53-38.01,178.231,178.231,0,0,0,5.053-51.924,170.342,170.342,0,0,0-15.542-62.933,169.709,169.709,0,0,0-29.532-44.544c-.572-.615-1.7-1.178-1.216-2.162.339-.683,1.423-.552,2.221-.648a191.505,191.505,0,0,1,49.809.764c2.469.35,3.285-.247,3.882-2.695a239.816,239.816,0,0,0,6.1-38.908C3610.1-742.335,3610.453-748.3,3610.369-754.509Z" transform="translate(-2226.709 5276.9)" fill="#5038a1"/>
    <path id="Trazado_231887" data-name="Trazado 231887" d="M3170.275-822.475l4.5,14.914-10.6,3.2-13.277-43.958,17.541-5.3a21.328,21.328,0,0,1,9.482-.838,14.624,14.624,0,0,1,7.6,3.468,15.068,15.068,0,0,1,4.477,7.131,13.289,13.289,0,0,1-1.5,11.67q-3.442,5.241-11.472,7.666Zm-2.471-8.182,6.944-2.1a6.841,6.841,0,0,0,4.229-2.958,5.978,5.978,0,0,0,.3-4.836,7.39,7.39,0,0,0-3.147-4.42,6.145,6.145,0,0,0-5.094-.5l-7.065,2.134Z" transform="translate(-2043.568 5323.148)" fill="#fff"/>
    <path id="Trazado_231888" data-name="Trazado 231888" d="M3253.107-831.091l19.161-2.032.9,8.468-30.17,3.2-4.841-45.663,11.008-1.167Z" transform="translate(-2083.856 5329.438)" fill="#fff"/>
    <path id="Trazado_231889" data-name="Trazado 231889" d="M3332.764-832.161l-15.106-1.38-3.418,8.3-11.778-1.076,20.948-44.2,10.365.947,12.72,47.272-11.841-1.082Zm-11.691-9.65,9.831.9-3.483-16.31Z" transform="translate(-2113.55 5330.465)" fill="#fff"/>
    <path id="Trazado_231890" data-name="Trazado 231890" d="M3422.968-806.315l-10.507-3.28-7.019-32.125-8.516,27.275-10.567-3.3,13.685-43.832,10.567,3.3,6.989,32.115,8.515-27.275,10.537,3.29Z" transform="translate(-2152.291 5326.339)" fill="#fff"/>
    <path id="Trazado_231891" data-name="Trazado 231891" d="M3668.562-504.137l45.578-5.583,1.8,14.682a21.754,21.754,0,0,1-1.409,11.2,19.394,19.394,0,0,1-6.81,8.475,23.506,23.506,0,0,1-10.855,4.11l-2.1.258a23.661,23.661,0,0,1-11.546-1.271,19.479,19.479,0,0,1-8.676-6.5,21.266,21.266,0,0,1-4.146-10.374Zm38.44,6.444-28.642,3.509.468,3.819a8.61,8.61,0,0,0,4.254,6.85q3.676,2.123,10.312,1.311l1.973-.242q6.6-.809,9.643-3.755a8.761,8.761,0,0,0,2.445-7.8Z" transform="translate(-2282.6 5163.867)" fill="#fff"/>
    <path id="Trazado_231892" data-name="Trazado 231892" d="M3693.313-385.276a27.082,27.082,0,0,1-11.614-3.563,18.417,18.417,0,0,1-7.287-7.775,19.718,19.718,0,0,1-1.828-10.665,19.992,19.992,0,0,1,3.632-10.119,18.385,18.385,0,0,1,8.323-6.35,26.305,26.305,0,0,1,11.705-1.607l2.576.235a27.186,27.186,0,0,1,11.631,3.549,18.372,18.372,0,0,1,7.286,7.79,19.865,19.865,0,0,1,1.839,10.729,19.668,19.668,0,0,1-3.711,10.112,18.7,18.7,0,0,1-8.514,6.364,26.433,26.433,0,0,1-11.932,1.491Zm2.94-11.037q6.814.622,10.556-1.332a7.337,7.337,0,0,0,4.129-6.195q.756-8.291-11.637-9.9l-3.358-.339q-6.722-.614-10.537,1.286a7.322,7.322,0,0,0-4.217,6.3,7.237,7.237,0,0,0,2.96,6.763q3.343,2.584,10,3.225Z" transform="translate(-2284.412 5124.95)" fill="#fff"/>
    <path id="Trazado_231893" data-name="Trazado 231893" d="M3437.13-70.477a16.766,16.766,0,0,1-1.084-8.787,15.606,15.606,0,0,1,3.747-7.9,22.589,22.589,0,0,1,8.094-5.816q8.267-3.684,15.421-.414t11.53,13.092l.924,2.074a27.785,27.785,0,0,1,2.661,11.744,17.8,17.8,0,0,1-3,9.9,18.883,18.883,0,0,1-8.211,6.68q-7.633,3.4-14.062,1.449t-10.207-8.728l10.083-4.492q1.822,3.779,4.38,4.642t6.277-.794a6.613,6.613,0,0,0,4.272-5.287q.5-3.607-2.174-9.839l-1.323-2.967q-2.99-6.712-5.959-8.842t-7.088-.294a8.5,8.5,0,0,0-4.6,4.016q-1.112,2.464.364,6.088Z" transform="translate(-2175.149 4972.336)" fill="#12263f"/>
    <path id="Trazado_231894" data-name="Trazado 231894" d="M3351.342-66.364l10.775-2.247,3.915,18.771,15.961-3.33-3.915-18.771,10.836-2.261,9.377,44.951-10.836,2.261-3.722-17.845-15.961,3.33,3.722,17.844-10.774,2.248Z" transform="translate(-2136.122 4962.763)" fill="#12263f"/>
    <path id="Trazado_231895" data-name="Trazado 231895" d="M3286.7-39.8l17.408-.136-.085-10.974-20.562.16-.066-8.516,31.632-.247.357,45.917-31.694.247-.066-8.547,20.626-.16-.076-9.681-17.409.136Z" transform="translate(-2104.748 4955.981)" fill="#12263f"/>
    <path id="Trazado_231896" data-name="Trazado 231896" d="M3203.263-54.381a16.782,16.782,0,0,1,4.06-7.868,15.611,15.611,0,0,1,7.55-4.413,22.6,22.6,0,0,1,9.965-.239q8.906,1.62,12.969,8.354t2.14,17.314L3239.541-39a27.767,27.767,0,0,1-4.426,11.2,17.794,17.794,0,0,1-8.055,6.485,18.866,18.866,0,0,1-10.547.886q-8.221-1.494-12.431-6.732t-3.508-12.964l10.86,1.976q-.626,4.148,1,6.3t5.63,2.883a6.612,6.612,0,0,0,6.511-1.957q2.446-2.7,3.752-9.35l.581-3.2q1.316-7.23.064-10.663t-5.688-4.24a8.5,8.5,0,0,0-6.062.724q-2.307,1.407-3.132,5.233Z" transform="translate(-2066.457 4959.594)" fill="#12263f"/>
    <path id="Trazado_231897" data-name="Trazado 231897" d="M3139.131-76.031l6.076-2.923,4.531-11.231L3160-86.044l-17.177,42.586L3132.561-47.6l7.574-18.777-5.751,3.972-14.575,9.663-12.694-5.12L3129.1-70.895l-4.812-29.553,12.167,4.908Z" transform="translate(-2023.347 4974.883)" fill="#12263f"/>
    <path id="Trazado_231898" data-name="Trazado 231898" d="M2906.386-373.793l3.046,14.861,8.935.873,2.374,11.586-48.365-7.279-2.09-10.2,41.577-25.841,2.387,11.648Zm-5.859,13.981-1.982-9.671-14.608,8.049Z" transform="translate(-1913.99 5108.488)" fill="#12263f"/>
    <path id="Trazado_231899" data-name="Trazado 231899" d="M2893-460.117a16.763,16.763,0,0,1,8.457,2.62,15.607,15.607,0,0,1,5.666,6.662,22.6,22.6,0,0,1,1.979,9.769q-.038,9.051-5.956,14.231t-16.673,5.136l-2.271-.01a27.789,27.789,0,0,1-11.8-2.4,17.811,17.811,0,0,1-7.794-6.8,18.87,18.87,0,0,1-2.717-10.23q.034-8.356,4.454-13.417t12.149-5.722l-.044,11.038q-4.195.11-6.033,2.089t-1.854,6.048a6.611,6.611,0,0,0,3.066,6.068q3.082,1.936,9.862,2.058l3.249.014q7.348.029,10.51-1.8t3.179-6.342a8.5,8.5,0,0,0-1.774-5.842q-1.789-2.026-5.7-2.168Z" transform="translate(-1910.112 5141.034)" fill="#12263f"/>
    <path id="Trazado_231900" data-name="Trazado 231900" d="M2880.9-544.839l-2.718,13.512,36.637,7.371-2.183,10.852L2876-520.476l-2.668,13.264-8.379-1.686,7.571-37.627Z" transform="translate(-1911.527 5180.862)" fill="#12263f"/>
    <path id="Trazado_232837" data-name="Trazado 232837" d="M-65.537-14.473V0H-75.82V-42.656H-58.8a19.825,19.825,0,0,1,8.657,1.8,13.579,13.579,0,0,1,5.83,5.127,14,14,0,0,1,2.065,7.544,12.343,12.343,0,0,1-4.468,9.976q-4.468,3.735-12.261,3.735Zm0-7.939H-58.8a6.355,6.355,0,0,0,4.556-1.494,5.551,5.551,0,0,0,1.567-4.219A6.862,6.862,0,0,0-54.287-32.9a5.706,5.706,0,0,0-4.395-1.816h-6.855ZM-36.768,0V-42.656h13.74a20.212,20.212,0,0,1,10.166,2.563,18.019,18.019,0,0,1,7.046,7.236A21.848,21.848,0,0,1-3.252-22.383v1.963a21.974,21.974,0,0,1-2.476,10.5A18.1,18.1,0,0,1-12.7-2.651,19.767,19.767,0,0,1-22.734,0Zm10.283-34.717V-7.91h3.574a8,8,0,0,0,6.8-3.149q2.373-3.149,2.373-9.36v-1.846q0-6.182-2.373-9.316a8.139,8.139,0,0,0-6.914-3.135ZM36.533-14.443a15.578,15.578,0,0,1-2.4,7.866,14.5,14.5,0,0,1-6.167,5.288A20.99,20.99,0,0,1,18.9.586q-8.408,0-13.242-5.479T.82-20.361v-2.109A25.82,25.82,0,0,1,3-33.442a16.538,16.538,0,0,1,6.284-7.266,17.533,17.533,0,0,1,9.492-2.563q7.764,0,12.48,4.087T36.621-27.92H26.367q-.117-3.9-1.963-5.6t-5.625-1.7a6.143,6.143,0,0,0-5.625,2.871q-1.787,2.871-1.875,9.17v3.018q0,6.826,1.714,9.756t5.9,2.93a7.9,7.9,0,0,0,5.42-1.67q1.875-1.67,1.992-5.3ZM65.625-7.969H51.533L49.072,0H38.086L53.73-42.656H63.4L79.16,0H68.115ZM53.994-15.908h9.17L58.564-30.7Z" transform="translate(1192.736 4722.262)" fill="#12263f"/>
  </g>
</svg>
