<svg xmlns="http://www.w3.org/2000/svg" width="136.973" height="136.973" viewBox="0 0 136.973 136.973">
  <g id="Grupo_161349" data-name="Grupo 161349" transform="translate(4489 8041.476)">
    <g id="Trazado_231507" data-name="Trazado 231507" transform="translate(-4489 -8041.476)" fill="#fff">
      <path d="M 68.48631286621094 131.9726409912109 C 59.91350936889648 131.9726409912109 51.59981155395508 130.2947692871094 43.77611541748047 126.9856185913086 C 40.01535797119141 125.3949661254883 36.38774871826172 123.4259033203125 32.9940071105957 121.1331405639648 C 29.6312255859375 118.8612899780273 26.46885681152344 116.2520523071289 23.5947265625 113.3779220581055 C 20.72059631347656 110.503791809082 18.11135673522949 107.341423034668 15.83950805664062 103.9786376953125 C 13.5467472076416 100.5848999023438 11.57768249511719 96.95726776123047 9.987030029296875 93.196533203125 C 6.677877902984619 85.37283325195312 5.000008583068848 77.05912017822266 5.000008583068848 68.48631286621094 C 5.000008583068848 59.91350936889648 6.677877902984619 51.59981155395508 9.987030029296875 43.77611541748047 C 11.57768249511719 40.01535797119141 13.5467472076416 36.38774871826172 15.83950805664062 32.9940071105957 C 18.11135673522949 29.6312255859375 20.72059631347656 26.46885681152344 23.5947265625 23.5947265625 C 26.46885681152344 20.72059631347656 29.6312255859375 18.11135673522949 32.9940071105957 15.83950805664062 C 36.38774871826172 13.5467472076416 40.01535797119141 11.57768249511719 43.77611541748047 9.987030029296875 C 51.59981155395508 6.677877902984619 59.91350936889648 5.000008583068848 68.48631286621094 5.000008583068848 C 77.05912017822266 5.000008583068848 85.37283325195312 6.677877902984619 93.196533203125 9.987030029296875 C 96.95726776123047 11.57768249511719 100.5848999023438 13.5467472076416 103.9786376953125 15.83950805664062 C 107.341423034668 18.11135673522949 110.503791809082 20.72059631347656 113.3779220581055 23.5947265625 C 116.2520523071289 26.46885681152344 118.8612899780273 29.6312255859375 121.1331405639648 32.9940071105957 C 123.4259033203125 36.38774871826172 125.3949661254883 40.01535797119141 126.9856185913086 43.77611541748047 C 130.2947692871094 51.59981155395508 131.9726409912109 59.91350936889648 131.9726409912109 68.48631286621094 C 131.9726409912109 77.05912017822266 130.2947692871094 85.37283325195312 126.9856185913086 93.196533203125 C 125.3949661254883 96.95726776123047 123.4259033203125 100.5848999023438 121.1331405639648 103.9786376953125 C 118.8612899780273 107.341423034668 116.2520523071289 110.503791809082 113.3779220581055 113.3779220581055 C 110.503791809082 116.2520523071289 107.341423034668 118.8612899780273 103.9786376953125 121.1331405639648 C 100.5848999023438 123.4259033203125 96.95726776123047 125.3949661254883 93.196533203125 126.9856185913086 C 85.37283325195312 130.2947692871094 77.05912017822266 131.9726409912109 68.48631286621094 131.9726409912109 Z" stroke="none"/>
      <path d="M 68.48631286621094 10.00000762939453 C 36.23686981201172 10.00000762939453 10.00000762939453 36.23686981201172 10.00000762939453 68.48631286621094 C 10.00000762939453 100.7357559204102 36.23686981201172 126.9726181030273 68.48631286621094 126.9726181030273 C 100.7357559204102 126.9726181030273 126.9726181030273 100.7357559204102 126.9726181030273 68.48631286621094 C 126.9726181030273 36.23686981201172 100.7357559204102 10.00000762939453 68.48631286621094 10.00000762939453 M 68.48631286621094 0 C 106.3102569580078 0 136.9726257324219 30.66236877441406 136.9726257324219 68.48631286621094 C 136.9726257324219 106.3102569580078 106.3102569580078 136.9726257324219 68.48631286621094 136.9726257324219 C 30.66236877441406 136.9726257324219 0 106.3102569580078 0 68.48631286621094 C 0 30.66236877441406 30.66236877441406 0 68.48631286621094 0 Z" stroke="none" fill="#8c6df2"/>
    </g>
    <circle id="Elipse_4752" data-name="Elipse 4752" cx="60.161" cy="60.161" r="60.161" transform="translate(-4481 -8033.603)" fill="#fedc72"/>
    <g id="Grupo_161234" data-name="Grupo 161234" transform="translate(-5941.559 -7917.737)">
      <g id="Grupo_161232" data-name="Grupo 161232">
        <path id="Trazado_231738" data-name="Trazado 231738" d="M1500.882-37.478a7.583,7.583,0,0,1-7.574-7.575V-73.591a7.583,7.583,0,0,1,7.574-7.576h45.609a6.051,6.051,0,0,1,5.337,3.124,6.05,6.05,0,0,1-.111,6.183l-6.689,10.983a3.266,3.266,0,0,0,.012,3.39l6.628,10.714a6.016,6.016,0,0,1,.143,6.168,6.016,6.016,0,0,1-5.32,3.127Z" fill="#c184bf"/>
        <path id="Trazado_231739" data-name="Trazado 231739" d="M1546.491-78.867a3.821,3.821,0,0,1,3.262,5.81l-6.69,10.984a5.552,5.552,0,0,0,.022,5.8l6.627,10.713a3.789,3.789,0,0,1-3.221,5.785h-45.609a5.275,5.275,0,0,1-5.274-5.275V-73.591a5.275,5.275,0,0,1,5.274-5.276h45.609m0-4.6h-45.609a9.885,9.885,0,0,0-9.873,9.876v28.538a9.885,9.885,0,0,0,9.873,9.875h45.609a8.394,8.394,0,0,0,7.329-4.308,8.394,8.394,0,0,0-.2-8.5L1547-58.7a.948.948,0,0,1-.005-.985l6.689-10.984a8.431,8.431,0,0,0,.152-8.5,8.431,8.431,0,0,0-7.342-4.3Z" fill="#5b3c9e"/>
      </g>
      <path id="Trazado_231740" data-name="Trazado 231740" d="M1524.825-78.867h-23.943a5.275,5.275,0,0,0-5.274,5.276v28.538a5.275,5.275,0,0,0,5.274,5.275h23.943Z" fill="#fcdb72"/>
      <g id="Grupo_161233" data-name="Grupo 161233">
        <path id="Trazado_231741" data-name="Trazado 231741" d="M1491.163-21.2a2.3,2.3,0,0,1-2.3-2.3c0-.292,0-59.48,0-59.48a6.327,6.327,0,0,1,6.319-6.32,6.327,6.327,0,0,1,6.32,6.32l0,59.48a2.3,2.3,0,0,1-2.3,2.3Z" fill="#fcdb72"/>
        <path id="Trazado_231742" data-name="Trazado 231742" d="M1495.178-87a4.02,4.02,0,0,1,4.02,4.021v5.262c0,.011,0,54.207,0,54.218h-8.031c0-.292,0-54.219,0-54.219h0v-5.262A4.02,4.02,0,0,1,1495.178-87m0-4.6a8.63,8.63,0,0,0-8.619,8.621v5.262h0c0,.149,0,53.926,0,54.218a4.6,4.6,0,0,0,4.6,4.6h8.031a4.6,4.6,0,0,0,4.6-4.6l0-27.109,0-27.109v-5.262a8.63,8.63,0,0,0-8.62-8.621Z" fill="#5b3c9e"/>
      </g>
      <line id="Línea_467" data-name="Línea 467" x2="24.178" transform="translate(1512.022 -71.856)" fill="none" stroke="#fff" stroke-linecap="round" stroke-linejoin="round" stroke-width="4.6"/>
    </g>
  </g>
</svg>
